<svg width="3840" height="1920" viewBox="0 0 3840 1920" fill="none" xmlns="http://www.w3.org/2000/svg">
<g clip-path="url(#clip0_587_811)">
<rect width="3840" height="1920" fill="#F2F3F4"/>
<g opacity="0.3">
<path d="M-155.924 1900.64C-155.924 1890.08 -146.518 1881.91 -136.059 1883.5C-104.667 1888.27 -72.5979 1885.76 -42.3327 1876.15L-30.9867 1872.55C-13.8272 1867.1 3.96936 1863.92 21.9526 1863.07L28.6757 1862.75C38.3053 1862.3 47.7505 1865.5 55.1198 1871.72C62.3537 1877.83 71.5989 1881.04 81.063 1880.72C90.5272 1880.4 99.536 1876.58 106.343 1870C121.282 1855.55 140.432 1846.24 161.016 1843.42C181.601 1840.6 202.549 1844.41 220.821 1854.3L245.744 1867.79C276.79 1884.59 313.195 1888.5 347.099 1878.68L424.255 1856.35C456.41 1847.04 490.879 1850.07 520.923 1864.83C532.957 1870.75 546.187 1873.82 559.596 1873.82C573.518 1873.82 587.239 1870.51 599.626 1864.15C612.012 1857.79 622.707 1848.58 630.826 1837.26L632.397 1835.07C645.748 1816.49 664.091 1802.07 685.299 1793.49C706.508 1784.91 729.713 1782.52 752.225 1786.6C773.536 1790.45 795.491 1788.52 815.8 1780.99L849.21 1768.61C895.183 1751.57 946.118 1776.09 961.495 1822.66C968.035 1842.47 981.503 1859.25 999.421 1869.91C1017.34 1880.58 1038.51 1884.42 1059.03 1880.73L1059.25 1880.69C1083.94 1876.25 1109.41 1879.54 1132.17 1890.11C1134.7 1891.28 1136.84 1893.16 1138.34 1895.51C1139.84 1897.86 1140.64 1900.59 1140.64 1903.37C1140.64 1907.25 1139.1 1910.97 1136.36 1913.71C1133.61 1916.46 1129.9 1918 1126.02 1918H-138.591C-143.188 1918 -147.597 1916.17 -150.847 1912.92C-154.098 1909.67 -155.924 1905.26 -155.924 1900.66V1900.64Z" fill="#765132"/>
<path d="M181.981 1894.02V1891.78C181.981 1887.03 180.092 1882.47 176.73 1879.1C173.368 1875.74 168.807 1873.85 164.053 1873.85H87.6018V1894.02M256.143 1894.02V1891.78C256.143 1887.03 258.031 1882.47 261.394 1879.1C264.756 1875.74 269.316 1873.85 274.071 1873.85H350.512V1894.02" stroke="#5A3516" stroke-width="15.63" stroke-miterlimit="10"/>
<path d="M-0.348755 1683.03H37.8831V1697.17C37.8831 1700.89 36.4067 1704.46 33.7788 1707.09C31.1509 1709.71 27.5867 1711.19 23.8703 1711.19H13.664C9.9476 1711.19 6.38341 1709.71 3.7555 1707.09C1.12759 1704.46 -0.348755 1700.89 -0.348755 1697.17V1683.03Z" fill="#D2C09F"/>
<path d="M12.2714 1683.03H25.2982V1689.55C25.2982 1691.27 24.6121 1692.93 23.3909 1694.15C22.1697 1695.37 20.5134 1696.06 18.7864 1696.06C17.9312 1696.06 17.0844 1695.89 16.2942 1695.56C15.504 1695.24 14.7859 1694.76 14.1809 1694.15C13.576 1693.55 13.096 1692.83 12.7683 1692.04C12.4407 1691.25 12.2718 1690.4 12.2714 1689.55V1683.03Z" fill="#5A3516"/>
<path d="M18.7704 1683.03V1659.92" stroke="#5A3516" stroke-width="15.63" stroke-miterlimit="10"/>
<path d="M69.2094 1804.03H107.448V1818.17C107.448 1821.89 105.971 1825.45 103.343 1828.08C100.716 1830.71 97.1513 1832.19 93.4349 1832.19H83.2222C79.5058 1832.19 75.9416 1830.71 73.3137 1828.08C70.6858 1825.45 69.2094 1821.89 69.2094 1818.17V1804.03Z" fill="#E38739"/>
<path d="M88.3253 1817.06C86.5983 1817.06 84.942 1816.37 83.7208 1815.15C82.4996 1813.93 81.8135 1812.27 81.8135 1810.54V1804.03H94.8403V1810.54C94.8403 1811.4 94.6718 1812.25 94.3443 1813.04C94.0169 1813.83 93.5369 1814.55 92.9319 1815.15C92.3269 1815.76 91.6087 1816.24 90.8183 1816.56C90.0278 1816.89 89.1807 1817.06 88.3253 1817.06Z" fill="#5A3516"/>
<path d="M88.3253 1804.03V1780.91" stroke="#5A3516" stroke-width="15.63" stroke-miterlimit="10"/>
<path d="M199.938 1851.31H238.176V1865.46C238.176 1869.17 236.7 1872.74 234.072 1875.37C231.444 1878 227.88 1879.47 224.163 1879.47H213.963C210.247 1879.47 206.683 1878 204.055 1875.37C201.427 1872.74 199.951 1869.17 199.951 1865.46V1851.31H199.938Z" fill="#FBA256"/>
<path d="M212.542 1851.31H225.569V1857.83C225.569 1859.56 224.883 1861.21 223.662 1862.43C222.44 1863.66 220.784 1864.34 219.057 1864.34C217.33 1864.34 215.674 1863.66 214.452 1862.43C213.231 1861.21 212.545 1859.56 212.545 1857.83V1851.31H212.542Z" fill="#5A3516"/>
<path d="M219.057 1851.31V1828.2" stroke="#5A3516" stroke-width="15.63" stroke-miterlimit="10"/>
<path d="M330.66 1804.03H368.898V1818.17C368.898 1821.89 367.422 1825.45 364.794 1828.08C362.166 1830.71 358.602 1832.19 354.885 1832.19H344.676C340.959 1832.19 337.395 1830.71 334.767 1828.08C332.139 1825.45 330.663 1821.89 330.663 1818.17V1804.03H330.66Z" fill="#D2C09F"/>
<path d="M343.264 1804.03H356.291V1810.54C356.291 1812.27 355.605 1813.92 354.384 1815.15C353.162 1816.37 351.506 1817.05 349.779 1817.05C348.052 1817.05 346.396 1816.37 345.174 1815.15C343.953 1813.92 343.267 1812.27 343.267 1810.54V1804.03H343.264Z" fill="#5A3516"/>
<path d="M349.779 1804.03V1780.91" stroke="#5A3516" stroke-width="15.63" stroke-miterlimit="10"/>
<path d="M400.215 1683.88H438.453V1698.03C438.453 1699.87 438.091 1701.69 437.386 1703.39C436.682 1705.09 435.65 1706.64 434.349 1707.94C433.048 1709.24 431.503 1710.27 429.803 1710.98C428.103 1711.68 426.28 1712.04 424.44 1712.04H414.231C412.391 1712.04 410.568 1711.68 408.868 1710.98C407.168 1710.27 405.624 1709.24 404.322 1707.94C403.021 1706.64 401.989 1705.09 401.285 1703.39C400.58 1701.69 400.218 1699.87 400.218 1698.03V1683.88H400.215Z" fill="#E38739"/>
<path d="M419.334 1696.93C417.607 1696.93 415.951 1696.24 414.729 1695.02C413.508 1693.8 412.822 1692.14 412.822 1690.42V1683.9H425.849V1690.42C425.849 1691.27 425.68 1692.12 425.353 1692.91C425.025 1693.7 424.545 1694.42 423.94 1695.02C423.335 1695.63 422.617 1696.11 421.827 1696.44C421.036 1696.76 420.189 1696.93 419.334 1696.93Z" fill="#5A3516"/>
<path d="M419.334 1683.88V1660.77" stroke="#5A3516" stroke-width="15.63" stroke-miterlimit="10"/>
<path d="M376.06 1546.84H414.298V1560.98C414.298 1562.82 413.936 1564.65 413.233 1566.35C412.529 1568.05 411.497 1569.59 410.196 1570.9C408.895 1572.2 407.351 1573.23 405.651 1573.94C403.951 1574.64 402.129 1575 400.288 1575H390.079C386.363 1575 382.798 1573.53 380.17 1570.9C377.543 1568.27 376.066 1564.7 376.066 1560.99V1546.84H376.06Z" fill="#FBA256"/>
<path d="M388.664 1546.84H401.691V1553.36C401.69 1554.21 401.521 1555.06 401.193 1555.85C400.865 1556.64 400.384 1557.36 399.778 1557.96C399.172 1558.57 398.453 1559.05 397.661 1559.37C396.87 1559.7 396.022 1559.87 395.166 1559.87C393.439 1559.87 391.783 1559.18 390.562 1557.96C389.34 1556.74 388.654 1555.08 388.654 1553.35V1546.84H388.664Z" fill="#5A3516"/>
<path d="M395.179 1546.84V1523.73" stroke="#5A3516" stroke-width="15.63" stroke-miterlimit="10"/>
<path d="M269.49 1457.39H307.728V1471.53C307.731 1473.37 307.37 1475.2 306.668 1476.9C305.965 1478.6 304.933 1480.15 303.631 1481.46C302.33 1482.76 300.784 1483.79 299.083 1484.5C297.381 1485.21 295.557 1485.57 293.715 1485.57H283.506C279.789 1485.57 276.225 1484.09 273.597 1481.46C270.969 1478.84 269.493 1475.27 269.493 1471.55V1457.39H269.49Z" fill="#D2C09F"/>
<path d="M282.097 1457.39H295.124V1463.9C295.124 1465.63 294.438 1467.29 293.216 1468.51C291.995 1469.73 290.339 1470.42 288.612 1470.42C286.885 1470.42 285.229 1469.73 284.007 1468.51C282.786 1467.29 282.1 1465.63 282.1 1463.9V1457.39H282.097Z" fill="#5A3516"/>
<path d="M288.609 1457.39V1434.28" stroke="#5A3516" stroke-width="15.63" stroke-miterlimit="10"/>
<path d="M23.7967 1548.31H62.0445V1562.45C62.0445 1566.17 60.5682 1569.74 57.9403 1572.37C55.3124 1574.99 51.7482 1576.47 48.0317 1576.47H37.8223C35.981 1576.47 34.1575 1576.11 32.4559 1575.41C30.7543 1574.7 29.208 1573.67 27.9055 1572.37C26.6029 1571.07 25.5696 1569.52 24.8646 1567.82C24.1596 1566.12 23.7967 1564.3 23.7967 1562.45V1548.31Z" fill="#E38739"/>
<path d="M42.9254 1561.34C41.1981 1561.34 39.5418 1560.65 38.3207 1559.43C37.0996 1558.21 36.4136 1556.55 36.4136 1554.83V1548.31H49.4404V1554.83C49.4404 1556.55 48.754 1558.21 47.5322 1559.43C46.3104 1560.66 44.6533 1561.34 42.9254 1561.34Z" fill="#5A3516"/>
<path d="M42.9254 1548.31V1525.2" stroke="#5A3516" stroke-width="15.63" stroke-miterlimit="10"/>
<path d="M130.376 1457.39H168.615V1471.53C168.618 1473.37 168.257 1475.2 167.554 1476.9C166.851 1478.61 165.819 1480.15 164.517 1481.46C163.215 1482.76 161.669 1483.8 159.967 1484.5C158.265 1485.21 156.441 1485.57 154.599 1485.57H144.389C140.673 1485.57 137.109 1484.09 134.481 1481.46C131.853 1478.84 130.376 1475.27 130.376 1471.55V1457.39Z" fill="#FBA256"/>
<path d="M149.496 1470.42C148.64 1470.42 147.793 1470.25 147.003 1469.93C146.212 1469.6 145.494 1469.12 144.889 1468.52C144.284 1467.91 143.804 1467.19 143.477 1466.4C143.149 1465.61 142.981 1464.76 142.981 1463.91V1457.39H156.017V1463.9C156.018 1464.76 155.85 1465.61 155.522 1466.4C155.195 1467.19 154.714 1467.91 154.109 1468.52C153.503 1469.12 152.784 1469.6 151.992 1469.93C151.2 1470.26 150.352 1470.42 149.496 1470.42Z" fill="#5A3516"/>
<path d="M149.496 1457.39V1434.28" stroke="#5A3516" stroke-width="15.63" stroke-miterlimit="10"/>
<path d="M42.9254 1523.73L18.7704 1660.77" stroke="#5A3516" stroke-width="15.63" stroke-miterlimit="10"/>
<path d="M18.7704 1660.77L88.3253 1781.28" stroke="#5A3516" stroke-width="15.63" stroke-miterlimit="10"/>
<path d="M88.3253 1781.28L219.051 1828.88" stroke="#5A3516" stroke-width="15.63" stroke-miterlimit="10"/>
<path d="M219.051 1828.88L349.779 1781.28" stroke="#5A3516" stroke-width="15.63" stroke-miterlimit="10"/>
<path d="M349.779 1781.28L419.334 1660.77" stroke="#5A3516" stroke-width="15.63" stroke-miterlimit="10"/>
<path d="M419.334 1660.77L395.179 1523.73" stroke="#5A3516" stroke-width="15.63" stroke-miterlimit="10"/>
<path d="M395.179 1523.73L288.609 1434.28" stroke="#5A3516" stroke-width="15.63" stroke-miterlimit="10"/>
<path d="M288.609 1434.28H149.496" stroke="#5A3516" stroke-width="15.63" stroke-miterlimit="10"/>
<path d="M42.9254 1523.73L149.496 1434.28" stroke="#5A3516" stroke-width="15.63" stroke-miterlimit="10"/>
<path d="M211.489 1612.34L395.179 1523.73L226.616 1638.55" stroke="#162A5A" stroke-width="15.63" stroke-miterlimit="10"/>
<path d="M204.836 1620.27L288.609 1434.28L233.268 1630.62" stroke="#162A5A" stroke-width="15.63" stroke-miterlimit="10"/>
<path d="M204.836 1630.62L149.496 1434.28L233.268 1620.27" stroke="#162A5A" stroke-width="15.63" stroke-miterlimit="10"/>
<path d="M211.489 1638.55L42.9254 1523.73L226.616 1612.34" stroke="#162A5A" stroke-width="15.63" stroke-miterlimit="10"/>
<path d="M221.679 1640.35L18.7704 1660.77L216.425 1610.54" stroke="#162A5A" stroke-width="15.63" stroke-miterlimit="10"/>
<path d="M230.64 1635.17L88.3253 1781.28L207.464 1615.72" stroke="#162A5A" stroke-width="15.63" stroke-miterlimit="10"/>
<path d="M234.181 1625.44L219.051 1828.88L203.924 1625.44" stroke="#162A5A" stroke-width="15.63" stroke-miterlimit="10"/>
<path d="M230.64 1615.72L349.776 1781.28L207.464 1635.17" stroke="#162A5A" stroke-width="15.63" stroke-miterlimit="10"/>
<path d="M221.679 1610.54L419.334 1660.77L216.425 1640.35" stroke="#162A5A" stroke-width="15.63" stroke-miterlimit="10"/>
<path d="M219.051 1828.88C331.37 1828.88 422.423 1737.8 422.423 1625.44C422.423 1513.09 331.37 1422.01 219.051 1422.01C106.731 1422.01 15.6778 1513.09 15.6778 1625.44C15.6778 1737.8 106.731 1828.88 219.051 1828.88Z" stroke="#E38739" stroke-width="15.63" stroke-miterlimit="10"/>
<path d="M219.051 1671.89C244.695 1671.89 265.485 1651.1 265.485 1625.44C265.485 1599.79 244.695 1578.99 219.051 1578.99C193.406 1578.99 172.617 1599.79 172.617 1625.44C172.617 1651.1 193.406 1671.89 219.051 1671.89Z" fill="#5A3516"/>
<path d="M276.824 1899.47L219.054 1669.45L161.287 1899.47L140.493 1894.25L208.659 1622.83H229.452L297.618 1894.25L276.824 1899.47Z" fill="#E38739"/>
<path d="M153.504 1886.46L153.52 1886.39" stroke="#EC9F5E" stroke-width="22.32" stroke-linecap="round" stroke-linejoin="bevel"/>
<path d="M156.936 1872.79L217.331 1632.31" stroke="#EC9F5E" stroke-width="22.32" stroke-linecap="round" stroke-linejoin="bevel" stroke-dasharray="0.44 43.79"/>
<path d="M219.038 1625.51L219.054 1625.45L219.073 1625.51" stroke="#ECC35E" stroke-width="22.32" stroke-linecap="round" stroke-linejoin="bevel"/>
<path d="M222.489 1639.11L282.884 1879.59" stroke="#EC9F5E" stroke-width="22.32" stroke-linecap="round" stroke-linejoin="bevel" stroke-dasharray="0.44 43.79"/>
<path d="M284.591 1886.39L284.607 1886.46" stroke="#EC9F5E" stroke-width="22.32" stroke-linecap="round" stroke-linejoin="bevel"/>
<path d="M235.342 1641.74C244.34 1632.74 244.34 1618.15 235.342 1609.15C226.344 1600.15 211.756 1600.15 202.757 1609.15C193.759 1618.15 193.759 1632.74 202.757 1641.74C211.756 1650.74 226.344 1650.74 235.342 1641.74Z" fill="#FBA256"/>
<path d="M219.051 1640.57C227.405 1640.57 234.177 1633.8 234.177 1625.44C234.177 1617.09 227.405 1610.31 219.051 1610.31C210.696 1610.31 203.924 1617.09 203.924 1625.44C203.924 1633.8 210.696 1640.57 219.051 1640.57Z" fill="#5A3516"/>
<path d="M353.057 1894.02H85.0438V1917.98H353.057V1894.02Z" fill="#FBA256"/>
<path d="M270.107 1906H168.634V1917.98H270.107V1906Z" fill="#E38739"/>
<path d="M779.178 1566.61H818.018V1584.01C818.018 1588.34 816.296 1592.5 813.23 1595.57C810.165 1598.64 806.007 1600.36 801.672 1600.36H795.528C791.193 1600.36 787.035 1598.64 783.969 1595.57C780.904 1592.5 779.181 1588.34 779.181 1584.01V1566.61H779.178Z" fill="#E38739"/>
<path d="M893.893 1618.9H932.733V1636.3C932.733 1640.64 931.01 1644.8 927.944 1647.87C924.878 1650.93 920.719 1652.66 916.383 1652.66H910.24C905.903 1652.66 901.745 1650.93 898.678 1647.87C895.612 1644.8 893.89 1640.64 893.89 1636.3V1618.9H893.893Z" fill="#D2C09F"/>
<path d="M921.637 1743H960.477V1760.4C960.477 1764.74 958.754 1768.9 955.688 1771.97C952.622 1775.03 948.463 1776.76 944.127 1776.76H937.983C933.647 1776.76 929.488 1775.03 926.422 1771.97C923.356 1768.9 921.634 1764.74 921.634 1760.4V1743H921.637Z" fill="#FBA256"/>
<path d="M841.751 1841.91H880.591V1859.29C880.591 1863.63 878.868 1867.79 875.802 1870.86C872.736 1873.93 868.577 1875.65 864.241 1875.65H858.097C853.761 1875.65 849.602 1873.93 846.536 1870.86C843.47 1867.79 841.747 1863.63 841.747 1859.29V1841.91H841.751Z" fill="#E38739"/>
<path d="M715.754 1841.91H754.594V1859.29C754.594 1863.63 752.872 1867.79 749.805 1870.86C746.739 1873.93 742.58 1875.65 738.244 1875.65H732.101C729.954 1875.65 727.827 1875.23 725.844 1874.4C723.86 1873.58 722.058 1872.38 720.54 1870.86C719.021 1869.34 717.817 1867.54 716.995 1865.55C716.174 1863.57 715.751 1861.44 715.751 1859.29V1841.91H715.754Z" fill="#FBA256"/>
<path d="M636.732 1743H675.572V1760.4C675.572 1764.74 673.85 1768.9 670.785 1771.97C667.719 1775.03 663.561 1776.75 659.226 1776.75H653.082C650.935 1776.75 648.809 1776.33 646.825 1775.51C644.842 1774.69 643.039 1773.48 641.521 1771.96C640.003 1770.45 638.799 1768.64 637.977 1766.66C637.155 1764.67 636.732 1762.55 636.732 1760.4V1743V1743Z" fill="#D2C09F"/>
<path d="M663.128 1618.9H701.968V1636.3C701.968 1640.64 700.246 1644.8 697.181 1647.86C694.115 1650.93 689.957 1652.65 685.622 1652.65H679.478C675.142 1652.65 670.983 1650.93 667.917 1647.86C664.851 1644.8 663.128 1640.64 663.128 1636.3V1618.9Z" fill="#FBA256"/>
<path d="M864.6 1898.31H732.61L726.572 1917.98H870.637L864.6 1898.31Z" fill="#5A3516"/>
<path d="M798.604 1580.94L684.367 1635.97L656.152 1759.62L735.209 1858.78H862.003L941.057 1759.62L912.842 1635.97L798.604 1580.94Z" stroke="#5A3516" stroke-width="15.75" stroke-miterlimit="10"/>
<path d="M798.604 1577.71V1725.85" stroke="#5A3516" stroke-width="15.75" stroke-miterlimit="10"/>
<path d="M681.598 1635.04L798.608 1725.85" stroke="#5A3516" stroke-width="15.75" stroke-miterlimit="10"/>
<path d="M654.526 1760.11L798.604 1725.85" stroke="#5A3516" stroke-width="15.75" stroke-miterlimit="10"/>
<path d="M734.812 1859.54L798.605 1725.85" stroke="#5A3516" stroke-width="15.75" stroke-miterlimit="10"/>
<path d="M861.686 1859.87L798.608 1725.85" stroke="#5A3516" stroke-width="15.75" stroke-miterlimit="10"/>
<path d="M942.648 1760.26L798.611 1725.85" stroke="#5A3516" stroke-width="15.75" stroke-miterlimit="10"/>
<path d="M915.096 1634.38L798.604 1725.85" stroke="#5A3516" stroke-width="15.75" stroke-miterlimit="10"/>
<path d="M798.604 1873.98C880.394 1873.98 946.698 1807.66 946.698 1725.85C946.698 1644.03 880.394 1577.71 798.604 1577.71C716.815 1577.71 650.511 1644.03 650.511 1725.85C650.511 1807.66 716.815 1873.98 798.604 1873.98Z" stroke="#EC9F5E" stroke-width="15.75" stroke-miterlimit="10"/>
<path d="M796.341 1768.86L769.795 1793.4C769.305 1793.85 768.691 1794.15 768.032 1794.25C767.372 1794.35 766.699 1794.24 766.098 1793.96C765.497 1793.67 764.997 1793.2 764.663 1792.63C764.329 1792.05 764.176 1791.39 764.224 1790.72L766.852 1754.65C766.913 1753.82 766.658 1753 766.137 1752.34C765.616 1751.69 764.867 1751.26 764.042 1751.13L728.307 1745.67C727.648 1745.57 727.035 1745.27 726.547 1744.82C726.059 1744.36 725.719 1743.77 725.57 1743.12C725.422 1742.47 725.472 1741.79 725.715 1741.17C725.957 1740.55 726.381 1740.02 726.93 1739.64L756.758 1719.21C757.448 1718.74 757.934 1718.02 758.12 1717.21C758.306 1716.39 758.177 1715.54 757.76 1714.81L739.749 1683.46C739.418 1682.88 739.268 1682.22 739.318 1681.56C739.369 1680.89 739.617 1680.26 740.03 1679.74C740.444 1679.22 741.005 1678.83 741.639 1678.64C742.274 1678.44 742.954 1678.43 743.591 1678.63L778.166 1689.22C778.966 1689.46 779.828 1689.39 780.581 1689.03C781.333 1688.67 781.922 1688.03 782.229 1687.26L795.502 1653.63C795.747 1653.01 796.173 1652.48 796.724 1652.1C797.275 1651.73 797.927 1651.53 798.593 1651.53C799.26 1651.53 799.911 1651.73 800.463 1652.1C801.014 1652.48 801.44 1653.01 801.684 1653.63L814.961 1687.26C815.267 1688.03 815.856 1688.67 816.609 1689.03C817.362 1689.39 818.224 1689.46 819.023 1689.22L853.599 1678.63C854.236 1678.43 854.916 1678.44 855.55 1678.64C856.185 1678.83 856.746 1679.22 857.159 1679.74C857.573 1680.26 857.821 1680.89 857.871 1681.56C857.922 1682.22 857.772 1682.88 857.441 1683.46L839.43 1714.81C839.013 1715.54 838.885 1716.39 839.072 1717.21C839.258 1718.02 839.745 1718.74 840.435 1719.21L870.26 1739.64C870.811 1740.02 871.236 1740.55 871.479 1741.17C871.723 1741.79 871.774 1742.47 871.626 1743.12C871.478 1743.77 871.137 1744.36 870.648 1744.82C870.16 1745.27 869.546 1745.57 868.886 1745.67L833.152 1751.13C832.325 1751.26 831.577 1751.69 831.055 1752.34C830.534 1753 830.277 1753.82 830.337 1754.65L832.969 1790.72C833.017 1791.39 832.864 1792.05 832.53 1792.63C832.196 1793.2 831.696 1793.67 831.095 1793.96C830.494 1794.24 829.821 1794.35 829.161 1794.25C828.502 1794.15 827.888 1793.85 827.399 1793.4L800.849 1768.86C800.235 1768.29 799.43 1767.98 798.595 1767.98C797.759 1767.98 796.955 1768.29 796.341 1768.86Z" fill="#E38739"/>
<path d="M798.604 1745.73C809.584 1745.73 818.486 1736.83 818.486 1725.85C818.486 1714.86 809.584 1705.96 798.604 1705.96C787.624 1705.96 778.723 1714.86 778.723 1725.85C778.723 1736.83 787.624 1745.73 798.604 1745.73Z" fill="#5A3516"/>
<path d="M798.604 1754.14C814.224 1754.14 826.886 1741.47 826.886 1725.85C826.886 1710.22 814.224 1697.55 798.604 1697.55C782.985 1697.55 770.323 1710.22 770.323 1725.85C770.323 1741.47 782.985 1754.14 798.604 1754.14Z" stroke="#EDE5D6" stroke-width="15.75" stroke-linecap="round" stroke-linejoin="round" stroke-dasharray="0.46 34.24"/>
<path d="M798.605 1715.28C795.872 1715.28 793.235 1716.29 791.202 1718.11C789.168 1719.94 787.88 1722.45 787.585 1725.17L766.654 1917.98H830.565L809.637 1725.17C809.341 1722.45 808.05 1719.93 806.014 1718.11C803.978 1716.28 801.339 1715.27 798.605 1715.28Z" fill="#D2C09F"/>
<path d="M798.604 1917.98V1758.04" stroke="#E38739" stroke-width="15.75" stroke-miterlimit="10"/>
<path d="M810.677 1917.98V1838.01" stroke="#E38739" stroke-width="15.75" stroke-miterlimit="10"/>
<path d="M786.532 1917.98V1838.01" stroke="#E38739" stroke-width="15.75" stroke-miterlimit="10"/>
<path d="M798.605 1730.42C801.129 1730.42 803.176 1728.37 803.176 1725.85C803.176 1723.32 801.129 1721.27 798.605 1721.27C796.08 1721.27 794.033 1723.32 794.033 1725.85C794.033 1728.37 796.08 1730.42 798.605 1730.42Z" fill="#5A3516"/>
<path d="M1098.04 1797.9C1102.38 1790.31 1104.65 1781.71 1104.65 1772.97C1104.64 1764.22 1102.35 1755.63 1098 1748.04C1093.08 1739.34 1090.51 1729.49 1090.56 1719.49C1090.56 1719.42 1090.56 1719.36 1090.56 1719.29C1090.61 1714.5 1089.7 1709.75 1087.9 1705.31C1086.1 1700.87 1083.44 1696.83 1080.07 1693.43C1076.7 1690.03 1072.69 1687.33 1068.27 1685.48C1063.85 1683.64 1059.11 1682.69 1054.32 1682.69C1049.53 1682.69 1044.79 1683.64 1040.37 1685.48C1035.95 1687.33 1031.94 1690.03 1028.57 1693.43C1025.2 1696.83 1022.53 1700.87 1020.73 1705.31C1018.93 1709.75 1018.03 1714.5 1018.07 1719.29C1018.07 1719.35 1018.07 1719.42 1018.07 1719.49C1018.12 1729.5 1015.54 1739.35 1010.58 1748.04C1006.25 1755.64 1003.97 1764.23 1003.98 1772.98C1003.98 1781.72 1006.27 1790.32 1010.62 1797.9C1015.54 1806.61 1018.11 1816.45 1018.06 1826.46C1018.07 1826.53 1018.07 1826.6 1018.06 1826.66C1018.15 1836.22 1022.01 1845.36 1028.8 1852.08C1035.58 1858.81 1044.75 1862.58 1054.31 1862.58C1063.86 1862.58 1073.03 1858.81 1079.82 1852.08C1086.6 1845.36 1090.46 1836.22 1090.55 1826.66C1090.55 1826.59 1090.55 1826.53 1090.55 1826.46C1090.51 1816.45 1093.09 1806.6 1098.04 1797.9Z" fill="#765132"/>
<path d="M1072.21 1745.86C1070.08 1748.57 1067.37 1750.76 1064.27 1752.27C1061.17 1753.78 1057.76 1754.56 1054.32 1754.56M1083.37 1773.44C1083.37 1781.15 1080.31 1788.54 1074.86 1793.99C1069.41 1799.44 1062.02 1802.5 1054.32 1802.5M1031.57 1815.33C1031.56 1818.32 1032.15 1821.28 1033.3 1824.04C1034.44 1826.81 1036.11 1829.31 1038.23 1831.43C1040.34 1833.54 1042.85 1835.22 1045.61 1836.36C1048.37 1837.51 1051.33 1838.09 1054.31 1838.09" stroke="#5A3516" stroke-width="15.62" stroke-linecap="round"/>
<path d="M1054.32 1898.31V1917.98" stroke="#5A3516" stroke-width="15.62"/>
<path d="M1054.32 1731V1898.31" stroke="#5A3516" stroke-width="15.62" stroke-linecap="round"/>
<path d="M481.398 1666.62C486.734 1665.43 491.753 1663.11 496.112 1659.81C500.472 1656.51 504.07 1652.31 506.663 1647.49C510.038 1641.21 514.907 1635.85 520.842 1631.89C526.776 1627.93 533.593 1625.49 540.692 1624.79C547.79 1624.09 554.952 1625.15 561.544 1627.88C568.137 1630.6 573.958 1634.9 578.495 1640.41C581.765 1644.38 585.806 1647.64 590.373 1650C594.941 1652.36 599.939 1653.77 605.067 1654.14C619.937 1655.32 631.744 1667.62 631.744 1682.8C631.762 1687.61 630.569 1692.35 628.274 1696.58C625.979 1700.8 622.656 1704.39 618.613 1706.99C614.57 1709.59 609.936 1711.14 605.14 1711.48C600.344 1711.81 595.539 1710.94 591.169 1708.93C586.476 1706.83 581.408 1705.7 576.267 1705.61C571.127 1705.51 566.02 1706.45 561.252 1708.38C550.561 1712.7 538.594 1712.6 527.976 1708.1C522.948 1706.01 517.528 1705.01 512.084 1705.2C506.64 1705.38 501.298 1706.73 496.422 1709.16C493.262 1710.69 489.802 1711.51 486.289 1711.55C480.696 1711.53 475.303 1709.46 471.143 1705.72C466.983 1701.98 464.348 1696.84 463.742 1691.27C463.136 1685.71 464.601 1680.12 467.858 1675.57C471.115 1671.02 475.935 1667.83 481.394 1666.62H481.398Z" fill="#765132"/>
<path d="M550.069 1894.02L550.165 1917.98" stroke="#5A3516" stroke-width="15.62" stroke-linejoin="round"/>
<path d="M549.166 1670.73L550.069 1894.02" stroke="#5A3516" stroke-width="15.62" stroke-linecap="round" stroke-linejoin="round"/>
<path d="M479.838 1786.87C481.537 1792.21 484.524 1797.05 488.536 1800.96C492.548 1804.87 497.461 1807.73 502.841 1809.29C508.221 1810.85 513.903 1811.06 519.383 1809.9C524.863 1808.74 529.974 1806.25 534.263 1802.65C537.378 1800.07 540.98 1798.16 544.852 1797.01C548.724 1795.86 552.788 1795.5 556.801 1795.96C559.995 1796.31 563.226 1796 566.291 1795.03C571.871 1793.26 576.545 1789.39 579.324 1784.24C582.102 1779.08 582.767 1773.05 581.177 1767.41C579.587 1761.78 575.867 1756.98 570.805 1754.04C565.743 1751.1 559.736 1750.25 554.055 1751.66C550.115 1752.57 546.034 1752.68 542.049 1752C538.065 1751.31 534.258 1749.83 530.85 1747.66C522.559 1742.49 512.09 1740.61 501.944 1743.87C497.67 1745.24 493.708 1747.44 490.283 1750.35C486.859 1753.25 484.04 1756.8 481.987 1760.79C479.934 1764.78 478.688 1769.14 478.319 1773.62C477.951 1778.09 478.467 1782.6 479.838 1786.87Z" fill="#765132"/>
<path d="M549.166 1837.82L500.837 1789.47" stroke="#5A3516" stroke-width="15.62" stroke-linecap="round" stroke-linejoin="round"/>
<path d="M531.577 1820.22V1780.6" stroke="#5A3516" stroke-width="15.62" stroke-linecap="round" stroke-linejoin="round"/>
<path d="M549.166 1737.43L599.16 1687.42" stroke="#5A3516" stroke-width="15.62" stroke-linecap="round" stroke-linejoin="round"/>
<path d="M549.669 1699.53L525.001 1677.76" stroke="#5A3516" stroke-width="15.62" stroke-linecap="round" stroke-linejoin="round"/>
</g>
<g opacity="0.3">
<path d="M1133.08 1899.64C1133.08 1889.08 1142.48 1880.91 1152.94 1882.5C1184.33 1887.27 1216.4 1884.76 1246.67 1875.15L1258.01 1871.55C1275.17 1866.1 1292.97 1862.92 1310.95 1862.07L1317.68 1861.75C1327.31 1861.3 1336.75 1864.5 1344.12 1870.72C1351.35 1876.83 1360.6 1880.04 1370.06 1879.72C1379.53 1879.4 1388.54 1875.58 1395.34 1869C1410.28 1854.55 1429.43 1845.24 1450.02 1842.42C1470.6 1839.6 1491.55 1843.41 1509.82 1853.3L1534.74 1866.79C1565.79 1883.59 1602.2 1887.5 1636.1 1877.68L1713.25 1855.35C1745.41 1846.04 1779.88 1849.07 1809.92 1863.83C1821.96 1869.75 1835.19 1872.82 1848.6 1872.82C1862.52 1872.82 1876.24 1869.51 1888.63 1863.15C1901.01 1856.79 1911.71 1847.58 1919.83 1836.26L1921.4 1834.07C1934.75 1815.49 1953.09 1801.07 1974.3 1792.49C1995.51 1783.91 2018.71 1781.52 2041.22 1785.6C2062.54 1789.45 2084.49 1787.52 2104.8 1779.99L2138.21 1767.61C2184.18 1750.57 2235.12 1775.09 2250.49 1821.66C2257.04 1841.47 2270.5 1858.25 2288.42 1868.91C2306.34 1879.58 2327.51 1883.42 2348.03 1879.73L2348.25 1879.69C2372.94 1875.25 2398.41 1878.54 2421.17 1889.11C2423.7 1890.28 2425.84 1892.16 2427.34 1894.51C2428.84 1896.86 2429.64 1899.59 2429.64 1902.37C2429.64 1906.25 2428.1 1909.97 2425.36 1912.71C2422.61 1915.46 2418.9 1917 2415.02 1917H1150.41C1145.81 1917 1141.4 1915.17 1138.15 1911.92C1134.9 1908.67 1133.08 1904.26 1133.08 1899.66V1899.64Z" fill="#765132"/>
<path d="M1470.98 1893.02V1890.78C1470.98 1886.03 1469.09 1881.47 1465.73 1878.1C1462.37 1874.74 1457.81 1872.85 1453.05 1872.85H1376.6V1893.02M1545.14 1893.02V1890.78C1545.14 1886.03 1547.03 1881.47 1550.39 1878.1C1553.76 1874.74 1558.32 1872.85 1563.07 1872.85H1639.51V1893.02" stroke="#5A3516" stroke-width="15.63" stroke-miterlimit="10"/>
<path d="M1288.65 1682.03H1326.88V1696.17C1326.88 1699.89 1325.41 1703.46 1322.78 1706.09C1320.15 1708.71 1316.59 1710.19 1312.87 1710.19H1302.66C1298.95 1710.19 1295.38 1708.71 1292.76 1706.09C1290.13 1703.46 1288.65 1699.89 1288.65 1696.17V1682.03Z" fill="#D2C09F"/>
<path d="M1301.27 1682.03H1314.3V1688.55C1314.3 1690.27 1313.61 1691.93 1312.39 1693.15C1311.17 1694.37 1309.51 1695.06 1307.79 1695.06C1306.93 1695.06 1306.08 1694.89 1305.29 1694.56C1304.5 1694.24 1303.79 1693.76 1303.18 1693.15C1302.58 1692.55 1302.1 1691.83 1301.77 1691.04C1301.44 1690.25 1301.27 1689.4 1301.27 1688.55V1682.03Z" fill="#5A3516"/>
<path d="M1307.77 1682.03V1658.92" stroke="#5A3516" stroke-width="15.63" stroke-miterlimit="10"/>
<path d="M1358.21 1803.03H1396.45V1817.17C1396.45 1820.89 1394.97 1824.45 1392.34 1827.08C1389.72 1829.71 1386.15 1831.19 1382.43 1831.19H1372.22C1368.51 1831.19 1364.94 1829.71 1362.31 1827.08C1359.69 1824.45 1358.21 1820.89 1358.21 1817.17V1803.03Z" fill="#E38739"/>
<path d="M1377.33 1816.06C1375.6 1816.06 1373.94 1815.37 1372.72 1814.15C1371.5 1812.93 1370.81 1811.27 1370.81 1809.54V1803.03H1383.84V1809.54C1383.84 1810.4 1383.67 1811.25 1383.34 1812.04C1383.02 1812.83 1382.54 1813.55 1381.93 1814.15C1381.33 1814.76 1380.61 1815.24 1379.82 1815.56C1379.03 1815.89 1378.18 1816.06 1377.33 1816.06Z" fill="#5A3516"/>
<path d="M1377.33 1803.03V1779.91" stroke="#5A3516" stroke-width="15.63" stroke-miterlimit="10"/>
<path d="M1488.94 1850.31H1527.18V1864.46C1527.18 1868.17 1525.7 1871.74 1523.07 1874.37C1520.44 1877 1516.88 1878.47 1513.16 1878.47H1502.96C1499.25 1878.47 1495.68 1877 1493.05 1874.37C1490.43 1871.74 1488.95 1868.17 1488.95 1864.46V1850.31H1488.94Z" fill="#FBA256"/>
<path d="M1501.54 1850.31H1514.57V1856.83C1514.57 1858.56 1513.88 1860.21 1512.66 1861.43C1511.44 1862.66 1509.78 1863.34 1508.06 1863.34C1506.33 1863.34 1504.67 1862.66 1503.45 1861.43C1502.23 1860.21 1501.55 1858.56 1501.55 1856.83V1850.31H1501.54Z" fill="#5A3516"/>
<path d="M1508.06 1850.31V1827.2" stroke="#5A3516" stroke-width="15.63" stroke-miterlimit="10"/>
<path d="M1619.66 1803.03H1657.9V1817.17C1657.9 1820.89 1656.42 1824.45 1653.79 1827.08C1651.17 1829.71 1647.6 1831.19 1643.89 1831.19H1633.68C1629.96 1831.19 1626.4 1829.71 1623.77 1827.08C1621.14 1824.45 1619.66 1820.89 1619.66 1817.17V1803.03H1619.66Z" fill="#D2C09F"/>
<path d="M1632.26 1803.03H1645.29V1809.54C1645.29 1811.27 1644.6 1812.92 1643.38 1814.15C1642.16 1815.37 1640.51 1816.05 1638.78 1816.05C1637.05 1816.05 1635.4 1815.37 1634.17 1814.15C1632.95 1812.92 1632.27 1811.27 1632.27 1809.54V1803.03H1632.26Z" fill="#5A3516"/>
<path d="M1638.78 1803.03V1779.91" stroke="#5A3516" stroke-width="15.63" stroke-miterlimit="10"/>
<path d="M1689.21 1682.88H1727.45V1697.03C1727.45 1698.87 1727.09 1700.69 1726.39 1702.39C1725.68 1704.09 1724.65 1705.64 1723.35 1706.94C1722.05 1708.24 1720.5 1709.27 1718.8 1709.98C1717.1 1710.68 1715.28 1711.04 1713.44 1711.04H1703.23C1701.39 1711.04 1699.57 1710.68 1697.87 1709.98C1696.17 1709.27 1694.62 1708.24 1693.32 1706.94C1692.02 1705.64 1690.99 1704.09 1690.28 1702.39C1689.58 1700.69 1689.22 1698.87 1689.22 1697.03V1682.88H1689.21Z" fill="#E38739"/>
<path d="M1708.33 1695.93C1706.61 1695.93 1704.95 1695.24 1703.73 1694.02C1702.51 1692.8 1701.82 1691.14 1701.82 1689.42V1682.9H1714.85V1689.42C1714.85 1690.27 1714.68 1691.12 1714.35 1691.91C1714.03 1692.7 1713.55 1693.42 1712.94 1694.02C1712.34 1694.63 1711.62 1695.11 1710.83 1695.44C1710.04 1695.76 1709.19 1695.93 1708.33 1695.93Z" fill="#5A3516"/>
<path d="M1708.33 1682.88V1659.77" stroke="#5A3516" stroke-width="15.63" stroke-miterlimit="10"/>
<path d="M1665.06 1545.84H1703.3V1559.98C1703.3 1561.82 1702.94 1563.65 1702.23 1565.35C1701.53 1567.05 1700.5 1568.59 1699.2 1569.9C1697.9 1571.2 1696.35 1572.23 1694.65 1572.94C1692.95 1573.64 1691.13 1574 1689.29 1574H1679.08C1675.36 1574 1671.8 1572.53 1669.17 1569.9C1666.54 1567.27 1665.07 1563.7 1665.07 1559.99V1545.84H1665.06Z" fill="#FBA256"/>
<path d="M1677.66 1545.84H1690.69V1552.36C1690.69 1553.21 1690.52 1554.06 1690.19 1554.85C1689.86 1555.64 1689.38 1556.36 1688.78 1556.96C1688.17 1557.57 1687.45 1558.05 1686.66 1558.37C1685.87 1558.7 1685.02 1558.87 1684.17 1558.87C1682.44 1558.87 1680.78 1558.18 1679.56 1556.96C1678.34 1555.74 1677.65 1554.08 1677.65 1552.35V1545.84H1677.66Z" fill="#5A3516"/>
<path d="M1684.18 1545.84V1522.73" stroke="#5A3516" stroke-width="15.63" stroke-miterlimit="10"/>
<path d="M1558.49 1456.39H1596.73V1470.53C1596.73 1472.37 1596.37 1474.2 1595.67 1475.9C1594.96 1477.6 1593.93 1479.15 1592.63 1480.46C1591.33 1481.76 1589.78 1482.79 1588.08 1483.5C1586.38 1484.21 1584.56 1484.57 1582.71 1484.57H1572.51C1568.79 1484.57 1565.22 1483.09 1562.6 1480.46C1559.97 1477.84 1558.49 1474.27 1558.49 1470.55V1456.39H1558.49Z" fill="#D2C09F"/>
<path d="M1571.1 1456.39H1584.12V1462.9C1584.12 1464.63 1583.44 1466.29 1582.22 1467.51C1581 1468.73 1579.34 1469.42 1577.61 1469.42C1575.88 1469.42 1574.23 1468.73 1573.01 1467.51C1571.79 1466.29 1571.1 1464.63 1571.1 1462.9V1456.39H1571.1Z" fill="#5A3516"/>
<path d="M1577.61 1456.39V1433.28" stroke="#5A3516" stroke-width="15.63" stroke-miterlimit="10"/>
<path d="M1312.8 1547.31H1351.04V1561.45C1351.04 1565.17 1349.57 1568.74 1346.94 1571.37C1344.31 1573.99 1340.75 1575.47 1337.03 1575.47H1326.82C1324.98 1575.47 1323.16 1575.11 1321.46 1574.41C1319.75 1573.7 1318.21 1572.67 1316.91 1571.37C1315.6 1570.07 1314.57 1568.52 1313.86 1566.82C1313.16 1565.12 1312.8 1563.3 1312.8 1561.45V1547.31Z" fill="#E38739"/>
<path d="M1331.93 1560.34C1330.2 1560.34 1328.54 1559.65 1327.32 1558.43C1326.1 1557.21 1325.41 1555.55 1325.41 1553.83V1547.31H1338.44V1553.83C1338.44 1555.55 1337.75 1557.21 1336.53 1558.43C1335.31 1559.66 1333.65 1560.34 1331.93 1560.34Z" fill="#5A3516"/>
<path d="M1331.93 1547.31V1524.2" stroke="#5A3516" stroke-width="15.63" stroke-miterlimit="10"/>
<path d="M1419.38 1456.39H1457.61V1470.53C1457.62 1472.37 1457.26 1474.2 1456.55 1475.9C1455.85 1477.61 1454.82 1479.15 1453.52 1480.46C1452.22 1481.76 1450.67 1482.8 1448.97 1483.5C1447.27 1484.21 1445.44 1484.57 1443.6 1484.57H1433.39C1429.67 1484.57 1426.11 1483.09 1423.48 1480.46C1420.85 1477.84 1419.38 1474.27 1419.38 1470.55V1456.39Z" fill="#FBA256"/>
<path d="M1438.5 1469.42C1437.64 1469.42 1436.79 1469.25 1436 1468.93C1435.21 1468.6 1434.49 1468.12 1433.89 1467.52C1433.28 1466.91 1432.8 1466.19 1432.48 1465.4C1432.15 1464.61 1431.98 1463.76 1431.98 1462.91V1456.39H1445.02V1462.9C1445.02 1463.76 1444.85 1464.61 1444.52 1465.4C1444.19 1466.19 1443.71 1466.91 1443.11 1467.52C1442.5 1468.12 1441.78 1468.6 1440.99 1468.93C1440.2 1469.26 1439.35 1469.42 1438.5 1469.42Z" fill="#5A3516"/>
<path d="M1438.5 1456.39V1433.28" stroke="#5A3516" stroke-width="15.63" stroke-miterlimit="10"/>
<path d="M1331.93 1522.73L1307.77 1659.77" stroke="#5A3516" stroke-width="15.63" stroke-miterlimit="10"/>
<path d="M1307.77 1659.77L1377.33 1780.28" stroke="#5A3516" stroke-width="15.63" stroke-miterlimit="10"/>
<path d="M1377.33 1780.28L1508.05 1827.88" stroke="#5A3516" stroke-width="15.63" stroke-miterlimit="10"/>
<path d="M1508.05 1827.88L1638.78 1780.28" stroke="#5A3516" stroke-width="15.63" stroke-miterlimit="10"/>
<path d="M1638.78 1780.28L1708.33 1659.77" stroke="#5A3516" stroke-width="15.63" stroke-miterlimit="10"/>
<path d="M1708.33 1659.77L1684.18 1522.73" stroke="#5A3516" stroke-width="15.63" stroke-miterlimit="10"/>
<path d="M1684.18 1522.73L1577.61 1433.28" stroke="#5A3516" stroke-width="15.63" stroke-miterlimit="10"/>
<path d="M1577.61 1433.28H1438.5" stroke="#5A3516" stroke-width="15.63" stroke-miterlimit="10"/>
<path d="M1331.93 1522.73L1438.5 1433.28" stroke="#5A3516" stroke-width="15.63" stroke-miterlimit="10"/>
<path d="M1500.49 1611.34L1684.18 1522.73L1515.62 1637.55" stroke="#162A5A" stroke-width="15.63" stroke-miterlimit="10"/>
<path d="M1493.84 1619.27L1577.61 1433.28L1522.27 1629.62" stroke="#162A5A" stroke-width="15.63" stroke-miterlimit="10"/>
<path d="M1493.84 1629.62L1438.5 1433.28L1522.27 1619.27" stroke="#162A5A" stroke-width="15.63" stroke-miterlimit="10"/>
<path d="M1500.49 1637.55L1331.93 1522.73L1515.62 1611.34" stroke="#162A5A" stroke-width="15.63" stroke-miterlimit="10"/>
<path d="M1510.68 1639.35L1307.77 1659.77L1505.43 1609.54" stroke="#162A5A" stroke-width="15.63" stroke-miterlimit="10"/>
<path d="M1519.64 1634.17L1377.33 1780.28L1496.46 1614.72" stroke="#162A5A" stroke-width="15.63" stroke-miterlimit="10"/>
<path d="M1523.18 1624.44L1508.05 1827.88L1492.92 1624.44" stroke="#162A5A" stroke-width="15.63" stroke-miterlimit="10"/>
<path d="M1519.64 1614.72L1638.78 1780.28L1496.46 1634.17" stroke="#162A5A" stroke-width="15.63" stroke-miterlimit="10"/>
<path d="M1510.68 1609.54L1708.33 1659.77L1505.43 1639.35" stroke="#162A5A" stroke-width="15.63" stroke-miterlimit="10"/>
<path d="M1508.05 1827.88C1620.37 1827.88 1711.42 1736.8 1711.42 1624.44C1711.42 1512.09 1620.37 1421.01 1508.05 1421.01C1395.73 1421.01 1304.68 1512.09 1304.68 1624.44C1304.68 1736.8 1395.73 1827.88 1508.05 1827.88Z" stroke="#E38739" stroke-width="15.63" stroke-miterlimit="10"/>
<path d="M1508.05 1670.89C1533.7 1670.89 1554.48 1650.1 1554.48 1624.44C1554.48 1598.79 1533.7 1577.99 1508.05 1577.99C1482.41 1577.99 1461.62 1598.79 1461.62 1624.44C1461.62 1650.1 1482.41 1670.89 1508.05 1670.89Z" fill="#5A3516"/>
<path d="M1565.82 1898.47L1508.05 1668.45L1450.29 1898.47L1429.49 1893.25L1497.66 1621.83H1518.45L1586.62 1893.25L1565.82 1898.47Z" fill="#E38739"/>
<path d="M1442.5 1885.46L1442.52 1885.39" stroke="#EC9F5E" stroke-width="22.32" stroke-linecap="round" stroke-linejoin="bevel"/>
<path d="M1445.94 1871.79L1506.33 1631.31" stroke="#EC9F5E" stroke-width="22.32" stroke-linecap="round" stroke-linejoin="bevel" stroke-dasharray="0.44 43.79"/>
<path d="M1508.04 1624.51L1508.05 1624.45L1508.07 1624.51" stroke="#ECC35E" stroke-width="22.32" stroke-linecap="round" stroke-linejoin="bevel"/>
<path d="M1511.49 1638.11L1571.88 1878.59" stroke="#EC9F5E" stroke-width="22.32" stroke-linecap="round" stroke-linejoin="bevel" stroke-dasharray="0.44 43.79"/>
<path d="M1573.59 1885.39L1573.61 1885.46" stroke="#EC9F5E" stroke-width="22.32" stroke-linecap="round" stroke-linejoin="bevel"/>
<path d="M1524.34 1640.74C1533.34 1631.74 1533.34 1617.15 1524.34 1608.15C1515.34 1599.15 1500.76 1599.15 1491.76 1608.15C1482.76 1617.15 1482.76 1631.74 1491.76 1640.74C1500.76 1649.74 1515.34 1649.74 1524.34 1640.74Z" fill="#FBA256"/>
<path d="M1508.05 1639.57C1516.4 1639.57 1523.18 1632.8 1523.18 1624.44C1523.18 1616.09 1516.4 1609.31 1508.05 1609.31C1499.7 1609.31 1492.92 1616.09 1492.92 1624.44C1492.92 1632.8 1499.7 1639.57 1508.05 1639.57Z" fill="#5A3516"/>
<path d="M1642.06 1893.02H1374.04V1916.98H1642.06V1893.02Z" fill="#FBA256"/>
<path d="M1559.11 1905H1457.63V1916.98H1559.11V1905Z" fill="#E38739"/>
<path d="M2068.18 1565.61H2107.02V1583.01C2107.02 1587.34 2105.3 1591.5 2102.23 1594.57C2099.16 1597.64 2095.01 1599.36 2090.67 1599.36H2084.53C2080.19 1599.36 2076.03 1597.64 2072.97 1594.57C2069.9 1591.5 2068.18 1587.34 2068.18 1583.01V1565.61H2068.18Z" fill="#E38739"/>
<path d="M2182.89 1617.9H2221.73V1635.3C2221.73 1639.64 2220.01 1643.8 2216.94 1646.87C2213.88 1649.93 2209.72 1651.66 2205.38 1651.66H2199.24C2194.9 1651.66 2190.74 1649.93 2187.68 1646.87C2184.61 1643.8 2182.89 1639.64 2182.89 1635.3V1617.9H2182.89Z" fill="#D2C09F"/>
<path d="M2210.64 1742H2249.48V1759.4C2249.48 1763.74 2247.75 1767.9 2244.69 1770.97C2241.62 1774.03 2237.46 1775.76 2233.13 1775.76H2226.98C2222.65 1775.76 2218.49 1774.03 2215.42 1770.97C2212.36 1767.9 2210.63 1763.74 2210.63 1759.4V1742H2210.64Z" fill="#FBA256"/>
<path d="M2130.75 1840.91H2169.59V1858.29C2169.59 1862.63 2167.87 1866.79 2164.8 1869.86C2161.74 1872.93 2157.58 1874.65 2153.24 1874.65H2147.1C2142.76 1874.65 2138.6 1872.93 2135.54 1869.86C2132.47 1866.79 2130.75 1862.63 2130.75 1858.29V1840.91H2130.75Z" fill="#E38739"/>
<path d="M2004.75 1840.91H2043.59V1858.29C2043.59 1862.63 2041.87 1866.79 2038.81 1869.86C2035.74 1872.93 2031.58 1874.65 2027.24 1874.65H2021.1C2018.95 1874.65 2016.83 1874.23 2014.84 1873.4C2012.86 1872.58 2011.06 1871.38 2009.54 1869.86C2008.02 1868.34 2006.82 1866.54 2006 1864.55C2005.17 1862.57 2004.75 1860.44 2004.75 1858.29V1840.91H2004.75Z" fill="#FBA256"/>
<path d="M1925.73 1742H1964.57V1759.4C1964.57 1763.74 1962.85 1767.9 1959.78 1770.97C1956.72 1774.03 1952.56 1775.75 1948.23 1775.75H1942.08C1939.94 1775.75 1937.81 1775.33 1935.83 1774.51C1933.84 1773.69 1932.04 1772.48 1930.52 1770.96C1929 1769.45 1927.8 1767.64 1926.98 1765.66C1926.16 1763.67 1925.73 1761.55 1925.73 1759.4V1742V1742Z" fill="#D2C09F"/>
<path d="M1952.13 1617.9H1990.97V1635.3C1990.97 1639.64 1989.25 1643.8 1986.18 1646.86C1983.12 1649.93 1978.96 1651.65 1974.62 1651.65H1968.48C1964.14 1651.65 1959.98 1649.93 1956.92 1646.86C1953.85 1643.8 1952.13 1639.64 1952.13 1635.3V1617.9Z" fill="#FBA256"/>
<path d="M2153.6 1897.31H2021.61L2015.57 1916.98H2159.64L2153.6 1897.31Z" fill="#5A3516"/>
<path d="M2087.6 1579.94L1973.37 1634.97L1945.15 1758.62L2024.21 1857.78H2151L2230.06 1758.62L2201.84 1634.97L2087.6 1579.94Z" stroke="#5A3516" stroke-width="15.75" stroke-miterlimit="10"/>
<path d="M2087.6 1576.71V1724.85" stroke="#5A3516" stroke-width="15.75" stroke-miterlimit="10"/>
<path d="M1970.6 1634.04L2087.61 1724.85" stroke="#5A3516" stroke-width="15.75" stroke-miterlimit="10"/>
<path d="M1943.53 1759.11L2087.6 1724.85" stroke="#5A3516" stroke-width="15.75" stroke-miterlimit="10"/>
<path d="M2023.81 1858.54L2087.6 1724.85" stroke="#5A3516" stroke-width="15.75" stroke-miterlimit="10"/>
<path d="M2150.69 1858.87L2087.61 1724.85" stroke="#5A3516" stroke-width="15.75" stroke-miterlimit="10"/>
<path d="M2231.65 1759.26L2087.61 1724.85" stroke="#5A3516" stroke-width="15.75" stroke-miterlimit="10"/>
<path d="M2204.1 1633.38L2087.6 1724.85" stroke="#5A3516" stroke-width="15.75" stroke-miterlimit="10"/>
<path d="M2087.6 1872.98C2169.39 1872.98 2235.7 1806.66 2235.7 1724.85C2235.7 1643.03 2169.39 1576.71 2087.6 1576.71C2005.81 1576.71 1939.51 1643.03 1939.51 1724.85C1939.51 1806.66 2005.81 1872.98 2087.6 1872.98Z" stroke="#EC9F5E" stroke-width="15.75" stroke-miterlimit="10"/>
<path d="M2085.34 1767.86L2058.79 1792.4C2058.31 1792.85 2057.69 1793.15 2057.03 1793.25C2056.37 1793.35 2055.7 1793.24 2055.1 1792.96C2054.5 1792.67 2054 1792.2 2053.66 1791.63C2053.33 1791.05 2053.18 1790.39 2053.22 1789.72L2055.85 1753.65C2055.91 1752.82 2055.66 1752 2055.14 1751.34C2054.62 1750.69 2053.87 1750.26 2053.04 1750.13L2017.31 1744.67C2016.65 1744.57 2016.04 1744.27 2015.55 1743.82C2015.06 1743.36 2014.72 1742.77 2014.57 1742.12C2014.42 1741.47 2014.47 1740.79 2014.71 1740.17C2014.96 1739.55 2015.38 1739.02 2015.93 1738.64L2045.76 1718.21C2046.45 1717.74 2046.93 1717.02 2047.12 1716.21C2047.31 1715.39 2047.18 1714.54 2046.76 1713.81L2028.75 1682.46C2028.42 1681.88 2028.27 1681.22 2028.32 1680.56C2028.37 1679.89 2028.62 1679.26 2029.03 1678.74C2029.44 1678.22 2030 1677.83 2030.64 1677.64C2031.27 1677.44 2031.95 1677.43 2032.59 1677.63L2067.17 1688.22C2067.97 1688.46 2068.83 1688.39 2069.58 1688.03C2070.33 1687.67 2070.92 1687.03 2071.23 1686.26L2084.5 1652.63C2084.75 1652.01 2085.17 1651.48 2085.72 1651.1C2086.28 1650.73 2086.93 1650.53 2087.59 1650.53C2088.26 1650.53 2088.91 1650.73 2089.46 1651.1C2090.01 1651.48 2090.44 1652.01 2090.68 1652.63L2103.96 1686.26C2104.27 1687.03 2104.86 1687.67 2105.61 1688.03C2106.36 1688.39 2107.22 1688.46 2108.02 1688.22L2142.6 1677.63C2143.24 1677.43 2143.92 1677.44 2144.55 1677.64C2145.19 1677.83 2145.75 1678.22 2146.16 1678.74C2146.57 1679.26 2146.82 1679.89 2146.87 1680.56C2146.92 1681.22 2146.77 1681.88 2146.44 1682.46L2128.43 1713.81C2128.01 1714.54 2127.89 1715.39 2128.07 1716.21C2128.26 1717.02 2128.74 1717.74 2129.43 1718.21L2159.26 1738.64C2159.81 1739.02 2160.24 1739.55 2160.48 1740.17C2160.72 1740.79 2160.77 1741.47 2160.63 1742.12C2160.48 1742.77 2160.14 1743.36 2159.65 1743.82C2159.16 1744.27 2158.55 1744.57 2157.89 1744.67L2122.15 1750.13C2121.33 1750.26 2120.58 1750.69 2120.06 1751.34C2119.53 1752 2119.28 1752.82 2119.34 1753.65L2121.97 1789.72C2122.02 1790.39 2121.86 1791.05 2121.53 1791.63C2121.2 1792.2 2120.7 1792.67 2120.1 1792.96C2119.49 1793.24 2118.82 1793.35 2118.16 1793.25C2117.5 1793.15 2116.89 1792.85 2116.4 1792.4L2089.85 1767.86C2089.24 1767.29 2088.43 1766.98 2087.59 1766.98C2086.76 1766.98 2085.95 1767.29 2085.34 1767.86Z" fill="#E38739"/>
<path d="M2087.6 1744.73C2098.58 1744.73 2107.49 1735.83 2107.49 1724.85C2107.49 1713.86 2098.58 1704.96 2087.6 1704.96C2076.62 1704.96 2067.72 1713.86 2067.72 1724.85C2067.72 1735.83 2076.62 1744.73 2087.6 1744.73Z" fill="#5A3516"/>
<path d="M2087.6 1753.14C2103.22 1753.14 2115.89 1740.47 2115.89 1724.85C2115.89 1709.22 2103.22 1696.55 2087.6 1696.55C2071.98 1696.55 2059.32 1709.22 2059.32 1724.85C2059.32 1740.47 2071.98 1753.14 2087.6 1753.14Z" stroke="#EDE5D6" stroke-width="15.75" stroke-linecap="round" stroke-linejoin="round" stroke-dasharray="0.46 34.24"/>
<path d="M2087.6 1714.28C2084.87 1714.28 2082.24 1715.29 2080.2 1717.11C2078.17 1718.94 2076.88 1721.45 2076.59 1724.17L2055.65 1916.98H2119.56L2098.64 1724.17C2098.34 1721.45 2097.05 1718.93 2095.01 1717.11C2092.98 1715.28 2090.34 1714.27 2087.6 1714.28Z" fill="#D2C09F"/>
<path d="M2087.6 1916.98V1757.04" stroke="#E38739" stroke-width="15.75" stroke-miterlimit="10"/>
<path d="M2099.68 1916.98V1837.01" stroke="#E38739" stroke-width="15.75" stroke-miterlimit="10"/>
<path d="M2075.53 1916.98V1837.01" stroke="#E38739" stroke-width="15.75" stroke-miterlimit="10"/>
<path d="M2087.6 1729.42C2090.13 1729.42 2092.18 1727.37 2092.18 1724.85C2092.18 1722.32 2090.13 1720.27 2087.6 1720.27C2085.08 1720.27 2083.03 1722.32 2083.03 1724.85C2083.03 1727.37 2085.08 1729.42 2087.6 1729.42Z" fill="#5A3516"/>
<path d="M1176.52 1814.47C1176.52 1828.78 1182.2 1842.51 1192.32 1852.63C1202.44 1862.75 1216.16 1868.44 1230.47 1868.44C1260.3 1868.44 1284.46 1844.27 1284.46 1814.47C1284.46 1779.35 1270.39 1747.94 1270.39 1697.18C1270.3 1686.66 1266.05 1676.59 1258.58 1669.19C1251.11 1661.78 1241.01 1657.62 1230.49 1657.62C1219.96 1657.62 1209.87 1661.78 1202.39 1669.19C1194.92 1676.59 1190.67 1686.66 1190.58 1697.18C1190.58 1747.94 1176.52 1779.35 1176.52 1814.47Z" fill="#765132"/>
<path d="M1230.49 1734.38H1211.11" stroke="#5A3516" stroke-width="15.62" stroke-linecap="round" stroke-linejoin="round"/>
<path d="M1230.49 1752.3H1258.8" stroke="#5A3516" stroke-width="15.62" stroke-linecap="round" stroke-linejoin="round"/>
<path d="M1230.49 1801.41H1202.05" stroke="#5A3516" stroke-width="15.62" stroke-linecap="round" stroke-linejoin="round"/>
<path d="M1230.49 1824.17H1253.97" stroke="#5A3516" stroke-width="15.62" stroke-linecap="round" stroke-linejoin="round"/>
<path d="M1230.49 1893.02V1916.98" stroke="#5A3516" stroke-width="15.62" stroke-linejoin="round"/>
<path d="M1230.49 1706.06V1893.02" stroke="#5A3516" stroke-width="15.62" stroke-linecap="round" stroke-linejoin="round"/>
<path d="M2387.04 1796.9C2391.38 1789.31 2393.65 1780.71 2393.65 1771.97C2393.64 1763.22 2391.35 1754.63 2387 1747.04C2382.08 1738.34 2379.51 1728.49 2379.56 1718.49C2379.56 1718.42 2379.56 1718.36 2379.56 1718.29C2379.61 1713.5 2378.7 1708.75 2376.9 1704.31C2375.1 1699.87 2372.44 1695.83 2369.07 1692.43C2365.7 1689.03 2361.69 1686.33 2357.27 1684.48C2352.85 1682.64 2348.11 1681.69 2343.32 1681.69C2338.53 1681.69 2333.79 1682.64 2329.37 1684.48C2324.95 1686.33 2320.94 1689.03 2317.57 1692.43C2314.2 1695.83 2311.53 1699.87 2309.73 1704.31C2307.93 1708.75 2307.03 1713.5 2307.07 1718.29C2307.07 1718.35 2307.07 1718.42 2307.07 1718.49C2307.12 1728.5 2304.54 1738.35 2299.58 1747.04C2295.25 1754.64 2292.97 1763.23 2292.98 1771.98C2292.98 1780.72 2295.27 1789.32 2299.62 1796.9C2304.54 1805.61 2307.11 1815.45 2307.06 1825.46C2307.07 1825.53 2307.07 1825.6 2307.06 1825.66C2307.15 1835.22 2311.01 1844.36 2317.8 1851.08C2324.58 1857.81 2333.75 1861.58 2343.31 1861.58C2352.86 1861.58 2362.03 1857.81 2368.82 1851.08C2375.6 1844.36 2379.46 1835.22 2379.55 1825.66C2379.55 1825.59 2379.55 1825.53 2379.55 1825.46C2379.51 1815.45 2382.09 1805.6 2387.04 1796.9Z" fill="#765132"/>
<path d="M2361.21 1744.86C2359.08 1747.57 2356.37 1749.76 2353.27 1751.27C2350.17 1752.78 2346.76 1753.56 2343.32 1753.56M2372.37 1772.44C2372.37 1780.15 2369.31 1787.54 2363.86 1792.99C2358.41 1798.44 2351.02 1801.5 2343.32 1801.5M2320.57 1814.33C2320.56 1817.32 2321.15 1820.28 2322.3 1823.04C2323.44 1825.81 2325.11 1828.31 2327.23 1830.43C2329.34 1832.54 2331.85 1834.22 2334.61 1835.36C2337.37 1836.51 2340.33 1837.09 2343.31 1837.09" stroke="#5A3516" stroke-width="15.62" stroke-linecap="round"/>
<path d="M2343.32 1897.31V1916.98" stroke="#5A3516" stroke-width="15.62"/>
<path d="M2343.32 1730V1897.31" stroke="#5A3516" stroke-width="15.62" stroke-linecap="round"/>
<path d="M1770.4 1665.62C1775.73 1664.43 1780.75 1662.11 1785.11 1658.81C1789.47 1655.51 1793.07 1651.31 1795.66 1646.49C1799.04 1640.21 1803.91 1634.85 1809.84 1630.89C1815.78 1626.93 1822.59 1624.49 1829.69 1623.79C1836.79 1623.09 1843.95 1624.15 1850.54 1626.88C1857.14 1629.6 1862.96 1633.9 1867.49 1639.41C1870.76 1643.38 1874.81 1646.64 1879.37 1649C1883.94 1651.36 1888.94 1652.77 1894.07 1653.14C1908.94 1654.32 1920.74 1666.62 1920.74 1681.8C1920.76 1686.61 1919.57 1691.35 1917.27 1695.58C1914.98 1699.8 1911.66 1703.39 1907.61 1705.99C1903.57 1708.59 1898.94 1710.14 1894.14 1710.48C1889.34 1710.81 1884.54 1709.94 1880.17 1707.93C1875.48 1705.83 1870.41 1704.7 1865.27 1704.61C1860.13 1704.51 1855.02 1705.45 1850.25 1707.38C1839.56 1711.7 1827.59 1711.6 1816.98 1707.1C1811.95 1705.01 1806.53 1704.01 1801.08 1704.2C1795.64 1704.38 1790.3 1705.73 1785.42 1708.16C1782.26 1709.69 1778.8 1710.51 1775.29 1710.55C1769.7 1710.53 1764.3 1708.46 1760.14 1704.72C1755.98 1700.98 1753.35 1695.84 1752.74 1690.27C1752.14 1684.71 1753.6 1679.12 1756.86 1674.57C1760.12 1670.02 1764.93 1666.83 1770.39 1665.62H1770.4Z" fill="#765132"/>
<path d="M1839.07 1893.02L1839.16 1916.98" stroke="#5A3516" stroke-width="15.62" stroke-linejoin="round"/>
<path d="M1838.17 1669.73L1839.07 1893.02" stroke="#5A3516" stroke-width="15.62" stroke-linecap="round" stroke-linejoin="round"/>
<path d="M1768.84 1785.87C1770.54 1791.21 1773.52 1796.05 1777.54 1799.96C1781.55 1803.87 1786.46 1806.73 1791.84 1808.29C1797.22 1809.85 1802.9 1810.06 1808.38 1808.9C1813.86 1807.74 1818.97 1805.25 1823.26 1801.65C1826.38 1799.07 1829.98 1797.16 1833.85 1796.01C1837.72 1794.86 1841.79 1794.5 1845.8 1794.96C1848.99 1795.31 1852.23 1795 1855.29 1794.03C1860.87 1792.26 1865.55 1788.39 1868.32 1783.24C1871.1 1778.08 1871.77 1772.05 1870.18 1766.41C1868.59 1760.78 1864.87 1755.98 1859.81 1753.04C1854.74 1750.1 1848.74 1749.25 1843.05 1750.66C1839.12 1751.57 1835.03 1751.68 1831.05 1751C1827.06 1750.31 1823.26 1748.83 1819.85 1746.66C1811.56 1741.49 1801.09 1739.61 1790.94 1742.87C1786.67 1744.24 1782.71 1746.44 1779.28 1749.35C1775.86 1752.25 1773.04 1755.8 1770.99 1759.79C1768.93 1763.78 1767.69 1768.14 1767.32 1772.62C1766.95 1777.09 1767.47 1781.6 1768.84 1785.87Z" fill="#765132"/>
<path d="M1838.17 1836.82L1789.84 1788.47" stroke="#5A3516" stroke-width="15.62" stroke-linecap="round" stroke-linejoin="round"/>
<path d="M1820.58 1819.22V1779.6" stroke="#5A3516" stroke-width="15.62" stroke-linecap="round" stroke-linejoin="round"/>
<path d="M1838.17 1736.43L1888.16 1686.42" stroke="#5A3516" stroke-width="15.62" stroke-linecap="round" stroke-linejoin="round"/>
<path d="M1838.67 1698.53L1814 1676.76" stroke="#5A3516" stroke-width="15.62" stroke-linecap="round" stroke-linejoin="round"/>
</g>
<g opacity="0.3">
<path d="M2429.08 1899.64C2429.08 1889.08 2438.48 1880.91 2448.94 1882.5C2480.33 1887.27 2512.4 1884.76 2542.67 1875.15L2554.01 1871.55C2571.17 1866.1 2588.97 1862.92 2606.95 1862.07L2613.68 1861.75C2623.31 1861.3 2632.75 1864.5 2640.12 1870.72C2647.35 1876.83 2656.6 1880.04 2666.06 1879.72C2675.53 1879.4 2684.54 1875.58 2691.34 1869C2706.28 1854.55 2725.43 1845.24 2746.02 1842.42C2766.6 1839.6 2787.55 1843.41 2805.82 1853.3L2830.74 1866.79C2861.79 1883.59 2898.2 1887.5 2932.1 1877.68L3009.25 1855.35C3041.41 1846.04 3075.88 1849.07 3105.92 1863.83C3117.96 1869.75 3131.19 1872.82 3144.6 1872.82C3158.52 1872.82 3172.24 1869.51 3184.63 1863.15C3197.01 1856.79 3207.71 1847.58 3215.83 1836.26L3217.4 1834.07C3230.75 1815.49 3249.09 1801.07 3270.3 1792.49C3291.51 1783.91 3314.71 1781.52 3337.22 1785.6C3358.54 1789.45 3380.49 1787.52 3400.8 1779.99L3434.21 1767.61C3480.18 1750.57 3531.12 1775.09 3546.49 1821.66C3553.04 1841.47 3566.5 1858.25 3584.42 1868.91C3602.34 1879.58 3623.51 1883.42 3644.03 1879.73L3644.25 1879.69C3668.94 1875.25 3694.41 1878.54 3717.17 1889.11C3719.7 1890.28 3721.84 1892.16 3723.34 1894.51C3724.84 1896.86 3725.64 1899.59 3725.64 1902.37C3725.64 1906.25 3724.1 1909.97 3721.36 1912.71C3718.61 1915.46 3714.9 1917 3711.02 1917H2446.41C2441.81 1917 2437.4 1915.17 2434.15 1911.92C2430.9 1908.67 2429.08 1904.26 2429.08 1899.66V1899.64Z" fill="#765132"/>
<path d="M2766.98 1893.02V1890.78C2766.98 1886.03 2765.09 1881.47 2761.73 1878.1C2758.37 1874.74 2753.81 1872.85 2749.05 1872.85H2672.6V1893.02M2841.14 1893.02V1890.78C2841.14 1886.03 2843.03 1881.47 2846.39 1878.1C2849.76 1874.74 2854.32 1872.85 2859.07 1872.85H2935.51V1893.02" stroke="#5A3516" stroke-width="15.63" stroke-miterlimit="10"/>
<path d="M2584.65 1682.03H2622.88V1696.17C2622.88 1699.89 2621.41 1703.46 2618.78 1706.09C2616.15 1708.71 2612.59 1710.19 2608.87 1710.19H2598.66C2594.95 1710.19 2591.38 1708.71 2588.76 1706.09C2586.13 1703.46 2584.65 1699.89 2584.65 1696.17V1682.03Z" fill="#D2C09F"/>
<path d="M2597.27 1682.03H2610.3V1688.55C2610.3 1690.27 2609.61 1691.93 2608.39 1693.15C2607.17 1694.37 2605.51 1695.06 2603.79 1695.06C2602.93 1695.06 2602.08 1694.89 2601.29 1694.56C2600.5 1694.24 2599.79 1693.76 2599.18 1693.15C2598.58 1692.55 2598.1 1691.83 2597.77 1691.04C2597.44 1690.25 2597.27 1689.4 2597.27 1688.55V1682.03Z" fill="#5A3516"/>
<path d="M2603.77 1682.03V1658.92" stroke="#5A3516" stroke-width="15.63" stroke-miterlimit="10"/>
<path d="M2654.21 1803.03H2692.45V1817.17C2692.45 1820.89 2690.97 1824.45 2688.34 1827.08C2685.72 1829.71 2682.15 1831.19 2678.43 1831.19H2668.22C2664.51 1831.19 2660.94 1829.71 2658.31 1827.08C2655.69 1824.45 2654.21 1820.89 2654.21 1817.17V1803.03Z" fill="#E38739"/>
<path d="M2673.33 1816.06C2671.6 1816.06 2669.94 1815.37 2668.72 1814.15C2667.5 1812.93 2666.81 1811.27 2666.81 1809.54V1803.03H2679.84V1809.54C2679.84 1810.4 2679.67 1811.25 2679.34 1812.04C2679.02 1812.83 2678.54 1813.55 2677.93 1814.15C2677.33 1814.76 2676.61 1815.24 2675.82 1815.56C2675.03 1815.89 2674.18 1816.06 2673.33 1816.06Z" fill="#5A3516"/>
<path d="M2673.33 1803.03V1779.91" stroke="#5A3516" stroke-width="15.63" stroke-miterlimit="10"/>
<path d="M2784.94 1850.31H2823.18V1864.46C2823.18 1868.17 2821.7 1871.74 2819.07 1874.37C2816.44 1877 2812.88 1878.47 2809.16 1878.47H2798.96C2795.25 1878.47 2791.68 1877 2789.06 1874.37C2786.43 1871.74 2784.95 1868.17 2784.95 1864.46V1850.31H2784.94Z" fill="#FBA256"/>
<path d="M2797.54 1850.31H2810.57V1856.83C2810.57 1858.56 2809.88 1860.21 2808.66 1861.43C2807.44 1862.66 2805.78 1863.34 2804.06 1863.34C2802.33 1863.34 2800.67 1862.66 2799.45 1861.43C2798.23 1860.21 2797.55 1858.56 2797.55 1856.83V1850.31H2797.54Z" fill="#5A3516"/>
<path d="M2804.06 1850.31V1827.2" stroke="#5A3516" stroke-width="15.63" stroke-miterlimit="10"/>
<path d="M2915.66 1803.03H2953.9V1817.17C2953.9 1820.89 2952.42 1824.45 2949.79 1827.08C2947.17 1829.71 2943.6 1831.19 2939.89 1831.19H2929.68C2925.96 1831.19 2922.4 1829.71 2919.77 1827.08C2917.14 1824.45 2915.66 1820.89 2915.66 1817.17V1803.03H2915.66Z" fill="#D2C09F"/>
<path d="M2928.26 1803.03H2941.29V1809.54C2941.29 1811.27 2940.6 1812.92 2939.38 1814.15C2938.16 1815.37 2936.51 1816.05 2934.78 1816.05C2933.05 1816.05 2931.4 1815.37 2930.17 1814.15C2928.95 1812.92 2928.27 1811.27 2928.27 1809.54V1803.03H2928.26Z" fill="#5A3516"/>
<path d="M2934.78 1803.03V1779.91" stroke="#5A3516" stroke-width="15.63" stroke-miterlimit="10"/>
<path d="M2985.21 1682.88H3023.45V1697.03C3023.45 1698.87 3023.09 1700.69 3022.39 1702.39C3021.68 1704.09 3020.65 1705.64 3019.35 1706.94C3018.05 1708.24 3016.5 1709.27 3014.8 1709.98C3013.1 1710.68 3011.28 1711.04 3009.44 1711.04H2999.23C2997.39 1711.04 2995.57 1710.68 2993.87 1709.98C2992.17 1709.27 2990.62 1708.24 2989.32 1706.94C2988.02 1705.64 2986.99 1704.09 2986.28 1702.39C2985.58 1700.69 2985.22 1698.87 2985.22 1697.03V1682.88H2985.21Z" fill="#E38739"/>
<path d="M3004.33 1695.93C3002.61 1695.93 3000.95 1695.24 2999.73 1694.02C2998.51 1692.8 2997.82 1691.14 2997.82 1689.42V1682.9H3010.85V1689.42C3010.85 1690.27 3010.68 1691.12 3010.35 1691.91C3010.03 1692.7 3009.55 1693.42 3008.94 1694.02C3008.34 1694.63 3007.62 1695.11 3006.83 1695.44C3006.04 1695.76 3005.19 1695.93 3004.33 1695.93Z" fill="#5A3516"/>
<path d="M3004.33 1682.88V1659.77" stroke="#5A3516" stroke-width="15.63" stroke-miterlimit="10"/>
<path d="M2961.06 1545.84H2999.3V1559.98C2999.3 1561.82 2998.94 1563.65 2998.23 1565.35C2997.53 1567.05 2996.5 1568.59 2995.2 1569.9C2993.9 1571.2 2992.35 1572.23 2990.65 1572.94C2988.95 1573.64 2987.13 1574 2985.29 1574H2975.08C2971.36 1574 2967.8 1572.53 2965.17 1569.9C2962.54 1567.27 2961.07 1563.7 2961.07 1559.99V1545.84H2961.06Z" fill="#FBA256"/>
<path d="M2973.66 1545.84H2986.69V1552.36C2986.69 1553.21 2986.52 1554.06 2986.19 1554.85C2985.86 1555.64 2985.38 1556.36 2984.78 1556.96C2984.17 1557.57 2983.45 1558.05 2982.66 1558.37C2981.87 1558.7 2981.02 1558.87 2980.17 1558.87C2978.44 1558.87 2976.78 1558.18 2975.56 1556.96C2974.34 1555.74 2973.65 1554.08 2973.65 1552.35V1545.84H2973.66Z" fill="#5A3516"/>
<path d="M2980.18 1545.84V1522.73" stroke="#5A3516" stroke-width="15.63" stroke-miterlimit="10"/>
<path d="M2854.49 1456.39H2892.73V1470.53C2892.73 1472.37 2892.37 1474.2 2891.67 1475.9C2890.96 1477.6 2889.93 1479.15 2888.63 1480.46C2887.33 1481.76 2885.78 1482.79 2884.08 1483.5C2882.38 1484.21 2880.56 1484.57 2878.71 1484.57H2868.51C2864.79 1484.57 2861.22 1483.09 2858.6 1480.46C2855.97 1477.84 2854.49 1474.27 2854.49 1470.55V1456.39H2854.49Z" fill="#D2C09F"/>
<path d="M2867.1 1456.39H2880.12V1462.9C2880.12 1464.63 2879.44 1466.29 2878.22 1467.51C2877 1468.73 2875.34 1469.42 2873.61 1469.42C2871.88 1469.42 2870.23 1468.73 2869.01 1467.51C2867.79 1466.29 2867.1 1464.63 2867.1 1462.9V1456.39H2867.1Z" fill="#5A3516"/>
<path d="M2873.61 1456.39V1433.28" stroke="#5A3516" stroke-width="15.63" stroke-miterlimit="10"/>
<path d="M2608.8 1547.31H2647.04V1561.45C2647.04 1565.17 2645.57 1568.74 2642.94 1571.37C2640.31 1573.99 2636.75 1575.47 2633.03 1575.47H2622.82C2620.98 1575.47 2619.16 1575.11 2617.46 1574.41C2615.75 1573.7 2614.21 1572.67 2612.91 1571.37C2611.6 1570.07 2610.57 1568.52 2609.86 1566.82C2609.16 1565.12 2608.8 1563.3 2608.8 1561.45V1547.31Z" fill="#E38739"/>
<path d="M2627.93 1560.34C2626.2 1560.34 2624.54 1559.65 2623.32 1558.43C2622.1 1557.21 2621.41 1555.55 2621.41 1553.83V1547.31H2634.44V1553.83C2634.44 1555.55 2633.75 1557.21 2632.53 1558.43C2631.31 1559.66 2629.65 1560.34 2627.93 1560.34Z" fill="#5A3516"/>
<path d="M2627.93 1547.31V1524.2" stroke="#5A3516" stroke-width="15.63" stroke-miterlimit="10"/>
<path d="M2715.38 1456.39H2753.61V1470.53C2753.62 1472.37 2753.26 1474.2 2752.55 1475.9C2751.85 1477.61 2750.82 1479.15 2749.52 1480.46C2748.22 1481.76 2746.67 1482.8 2744.97 1483.5C2743.27 1484.21 2741.44 1484.57 2739.6 1484.57H2729.39C2725.67 1484.57 2722.11 1483.09 2719.48 1480.46C2716.85 1477.84 2715.38 1474.27 2715.38 1470.55V1456.39Z" fill="#FBA256"/>
<path d="M2734.5 1469.42C2733.64 1469.42 2732.79 1469.25 2732 1468.93C2731.21 1468.6 2730.49 1468.12 2729.89 1467.52C2729.28 1466.91 2728.8 1466.19 2728.48 1465.4C2728.15 1464.61 2727.98 1463.76 2727.98 1462.91V1456.39H2741.02V1462.9C2741.02 1463.76 2740.85 1464.61 2740.52 1465.4C2740.19 1466.19 2739.71 1466.91 2739.11 1467.52C2738.5 1468.12 2737.78 1468.6 2736.99 1468.93C2736.2 1469.26 2735.35 1469.42 2734.5 1469.42Z" fill="#5A3516"/>
<path d="M2734.5 1456.39V1433.28" stroke="#5A3516" stroke-width="15.63" stroke-miterlimit="10"/>
<path d="M2627.93 1522.73L2603.77 1659.77" stroke="#5A3516" stroke-width="15.63" stroke-miterlimit="10"/>
<path d="M2603.77 1659.77L2673.33 1780.28" stroke="#5A3516" stroke-width="15.63" stroke-miterlimit="10"/>
<path d="M2673.33 1780.28L2804.05 1827.88" stroke="#5A3516" stroke-width="15.63" stroke-miterlimit="10"/>
<path d="M2804.05 1827.88L2934.78 1780.28" stroke="#5A3516" stroke-width="15.63" stroke-miterlimit="10"/>
<path d="M2934.78 1780.28L3004.33 1659.77" stroke="#5A3516" stroke-width="15.63" stroke-miterlimit="10"/>
<path d="M3004.33 1659.77L2980.18 1522.73" stroke="#5A3516" stroke-width="15.63" stroke-miterlimit="10"/>
<path d="M2980.18 1522.73L2873.61 1433.28" stroke="#5A3516" stroke-width="15.63" stroke-miterlimit="10"/>
<path d="M2873.61 1433.28H2734.5" stroke="#5A3516" stroke-width="15.63" stroke-miterlimit="10"/>
<path d="M2627.93 1522.73L2734.5 1433.28" stroke="#5A3516" stroke-width="15.63" stroke-miterlimit="10"/>
<path d="M2796.49 1611.34L2980.18 1522.73L2811.62 1637.55" stroke="#162A5A" stroke-width="15.63" stroke-miterlimit="10"/>
<path d="M2789.84 1619.27L2873.61 1433.28L2818.27 1629.62" stroke="#162A5A" stroke-width="15.63" stroke-miterlimit="10"/>
<path d="M2789.84 1629.62L2734.5 1433.28L2818.27 1619.27" stroke="#162A5A" stroke-width="15.63" stroke-miterlimit="10"/>
<path d="M2796.49 1637.55L2627.93 1522.73L2811.62 1611.34" stroke="#162A5A" stroke-width="15.63" stroke-miterlimit="10"/>
<path d="M2806.68 1639.35L2603.77 1659.77L2801.43 1609.54" stroke="#162A5A" stroke-width="15.63" stroke-miterlimit="10"/>
<path d="M2815.64 1634.17L2673.33 1780.28L2792.46 1614.72" stroke="#162A5A" stroke-width="15.63" stroke-miterlimit="10"/>
<path d="M2819.18 1624.44L2804.05 1827.88L2788.92 1624.44" stroke="#162A5A" stroke-width="15.63" stroke-miterlimit="10"/>
<path d="M2815.64 1614.72L2934.78 1780.28L2792.46 1634.17" stroke="#162A5A" stroke-width="15.63" stroke-miterlimit="10"/>
<path d="M2806.68 1609.54L3004.33 1659.77L2801.43 1639.35" stroke="#162A5A" stroke-width="15.63" stroke-miterlimit="10"/>
<path d="M2804.05 1827.88C2916.37 1827.88 3007.42 1736.8 3007.42 1624.44C3007.42 1512.09 2916.37 1421.01 2804.05 1421.01C2691.73 1421.01 2600.68 1512.09 2600.68 1624.44C2600.68 1736.8 2691.73 1827.88 2804.05 1827.88Z" stroke="#E38739" stroke-width="15.63" stroke-miterlimit="10"/>
<path d="M2804.05 1670.89C2829.7 1670.89 2850.48 1650.1 2850.48 1624.44C2850.48 1598.79 2829.7 1577.99 2804.05 1577.99C2778.41 1577.99 2757.62 1598.79 2757.62 1624.44C2757.62 1650.1 2778.41 1670.89 2804.05 1670.89Z" fill="#5A3516"/>
<path d="M2861.82 1898.47L2804.05 1668.45L2746.29 1898.47L2725.49 1893.25L2793.66 1621.83H2814.45L2882.62 1893.25L2861.82 1898.47Z" fill="#E38739"/>
<path d="M2738.5 1885.46L2738.52 1885.39" stroke="#EC9F5E" stroke-width="22.32" stroke-linecap="round" stroke-linejoin="bevel"/>
<path d="M2741.94 1871.79L2802.33 1631.31" stroke="#EC9F5E" stroke-width="22.32" stroke-linecap="round" stroke-linejoin="bevel" stroke-dasharray="0.44 43.79"/>
<path d="M2804.04 1624.51L2804.05 1624.45L2804.07 1624.51" stroke="#ECC35E" stroke-width="22.32" stroke-linecap="round" stroke-linejoin="bevel"/>
<path d="M2807.49 1638.11L2867.88 1878.59" stroke="#EC9F5E" stroke-width="22.32" stroke-linecap="round" stroke-linejoin="bevel" stroke-dasharray="0.44 43.79"/>
<path d="M2869.59 1885.39L2869.61 1885.46" stroke="#EC9F5E" stroke-width="22.32" stroke-linecap="round" stroke-linejoin="bevel"/>
<path d="M2820.34 1640.74C2829.34 1631.74 2829.34 1617.15 2820.34 1608.15C2811.34 1599.15 2796.76 1599.15 2787.76 1608.15C2778.76 1617.15 2778.76 1631.74 2787.76 1640.74C2796.76 1649.74 2811.34 1649.74 2820.34 1640.74Z" fill="#FBA256"/>
<path d="M2804.05 1639.57C2812.4 1639.57 2819.18 1632.8 2819.18 1624.44C2819.18 1616.09 2812.4 1609.31 2804.05 1609.31C2795.7 1609.31 2788.92 1616.09 2788.92 1624.44C2788.92 1632.8 2795.7 1639.57 2804.05 1639.57Z" fill="#5A3516"/>
<path d="M2938.06 1893.02H2670.04V1916.98H2938.06V1893.02Z" fill="#FBA256"/>
<path d="M2855.11 1905H2753.63V1916.98H2855.11V1905Z" fill="#E38739"/>
<path d="M3364.18 1565.61H3403.02V1583.01C3403.02 1587.34 3401.3 1591.5 3398.23 1594.57C3395.16 1597.64 3391.01 1599.36 3386.67 1599.36H3380.53C3376.19 1599.36 3372.03 1597.64 3368.97 1594.57C3365.9 1591.5 3364.18 1587.34 3364.18 1583.01V1565.61H3364.18Z" fill="#E38739"/>
<path d="M3478.89 1617.9H3517.73V1635.3C3517.73 1639.64 3516.01 1643.8 3512.94 1646.87C3509.88 1649.93 3505.72 1651.66 3501.38 1651.66H3495.24C3490.9 1651.66 3486.74 1649.93 3483.68 1646.87C3480.61 1643.8 3478.89 1639.64 3478.89 1635.3V1617.9H3478.89Z" fill="#D2C09F"/>
<path d="M3506.64 1742H3545.48V1759.4C3545.48 1763.74 3543.75 1767.9 3540.69 1770.97C3537.62 1774.03 3533.46 1775.76 3529.13 1775.76H3522.98C3518.65 1775.76 3514.49 1774.03 3511.42 1770.97C3508.36 1767.9 3506.63 1763.74 3506.63 1759.4V1742H3506.64Z" fill="#FBA256"/>
<path d="M3426.75 1840.91H3465.59V1858.29C3465.59 1862.63 3463.87 1866.79 3460.8 1869.86C3457.74 1872.93 3453.58 1874.65 3449.24 1874.65H3443.1C3438.76 1874.65 3434.6 1872.93 3431.54 1869.86C3428.47 1866.79 3426.75 1862.63 3426.75 1858.29V1840.91H3426.75Z" fill="#E38739"/>
<path d="M3300.75 1840.91H3339.59V1858.29C3339.59 1862.63 3337.87 1866.79 3334.81 1869.86C3331.74 1872.93 3327.58 1874.65 3323.24 1874.65H3317.1C3314.95 1874.65 3312.83 1874.23 3310.84 1873.4C3308.86 1872.58 3307.06 1871.38 3305.54 1869.86C3304.02 1868.34 3302.82 1866.54 3302 1864.55C3301.17 1862.57 3300.75 1860.44 3300.75 1858.29V1840.91H3300.75Z" fill="#FBA256"/>
<path d="M3221.73 1742H3260.57V1759.4C3260.57 1763.74 3258.85 1767.9 3255.78 1770.97C3252.72 1774.03 3248.56 1775.75 3244.23 1775.75H3238.08C3235.94 1775.75 3233.81 1775.33 3231.83 1774.51C3229.84 1773.69 3228.04 1772.48 3226.52 1770.96C3225 1769.45 3223.8 1767.64 3222.98 1765.66C3222.16 1763.67 3221.73 1761.55 3221.73 1759.4V1742V1742Z" fill="#D2C09F"/>
<path d="M3248.13 1617.9H3286.97V1635.3C3286.97 1639.64 3285.25 1643.8 3282.18 1646.86C3279.12 1649.93 3274.96 1651.65 3270.62 1651.65H3264.48C3260.14 1651.65 3255.98 1649.93 3252.92 1646.86C3249.85 1643.8 3248.13 1639.64 3248.13 1635.3V1617.9Z" fill="#FBA256"/>
<path d="M3449.6 1897.31H3317.61L3311.57 1916.98H3455.64L3449.6 1897.31Z" fill="#5A3516"/>
<path d="M3383.6 1579.94L3269.37 1634.97L3241.15 1758.62L3320.21 1857.78H3447L3526.06 1758.62L3497.84 1634.97L3383.6 1579.94Z" stroke="#5A3516" stroke-width="15.75" stroke-miterlimit="10"/>
<path d="M3383.6 1576.71V1724.85" stroke="#5A3516" stroke-width="15.75" stroke-miterlimit="10"/>
<path d="M3266.6 1634.04L3383.61 1724.85" stroke="#5A3516" stroke-width="15.75" stroke-miterlimit="10"/>
<path d="M3239.53 1759.11L3383.6 1724.85" stroke="#5A3516" stroke-width="15.75" stroke-miterlimit="10"/>
<path d="M3319.81 1858.54L3383.6 1724.85" stroke="#5A3516" stroke-width="15.75" stroke-miterlimit="10"/>
<path d="M3446.69 1858.87L3383.61 1724.85" stroke="#5A3516" stroke-width="15.75" stroke-miterlimit="10"/>
<path d="M3527.65 1759.26L3383.61 1724.85" stroke="#5A3516" stroke-width="15.75" stroke-miterlimit="10"/>
<path d="M3500.1 1633.38L3383.6 1724.85" stroke="#5A3516" stroke-width="15.75" stroke-miterlimit="10"/>
<path d="M3383.6 1872.98C3465.39 1872.98 3531.7 1806.66 3531.7 1724.85C3531.7 1643.03 3465.39 1576.71 3383.6 1576.71C3301.81 1576.71 3235.51 1643.03 3235.51 1724.85C3235.51 1806.66 3301.81 1872.98 3383.6 1872.98Z" stroke="#EC9F5E" stroke-width="15.75" stroke-miterlimit="10"/>
<path d="M3381.34 1767.86L3354.79 1792.4C3354.31 1792.85 3353.69 1793.15 3353.03 1793.25C3352.37 1793.35 3351.7 1793.24 3351.1 1792.96C3350.5 1792.67 3350 1792.2 3349.66 1791.63C3349.33 1791.05 3349.18 1790.39 3349.22 1789.72L3351.85 1753.65C3351.91 1752.82 3351.66 1752 3351.14 1751.34C3350.62 1750.69 3349.87 1750.26 3349.04 1750.13L3313.31 1744.67C3312.65 1744.57 3312.03 1744.27 3311.55 1743.82C3311.06 1743.36 3310.72 1742.77 3310.57 1742.12C3310.42 1741.47 3310.47 1740.79 3310.71 1740.17C3310.96 1739.55 3311.38 1739.02 3311.93 1738.64L3341.76 1718.21C3342.45 1717.74 3342.93 1717.02 3343.12 1716.21C3343.31 1715.39 3343.18 1714.54 3342.76 1713.81L3324.75 1682.46C3324.42 1681.88 3324.27 1681.22 3324.32 1680.56C3324.37 1679.89 3324.62 1679.26 3325.03 1678.74C3325.44 1678.22 3326 1677.83 3326.64 1677.64C3327.27 1677.44 3327.95 1677.43 3328.59 1677.63L3363.17 1688.22C3363.97 1688.46 3364.83 1688.39 3365.58 1688.03C3366.33 1687.67 3366.92 1687.03 3367.23 1686.26L3380.5 1652.63C3380.75 1652.01 3381.17 1651.48 3381.72 1651.1C3382.28 1650.73 3382.93 1650.53 3383.59 1650.53C3384.26 1650.53 3384.91 1650.73 3385.46 1651.1C3386.01 1651.48 3386.44 1652.01 3386.68 1652.63L3399.96 1686.26C3400.27 1687.03 3400.86 1687.67 3401.61 1688.03C3402.36 1688.39 3403.22 1688.46 3404.02 1688.22L3438.6 1677.63C3439.24 1677.43 3439.92 1677.44 3440.55 1677.64C3441.19 1677.83 3441.75 1678.22 3442.16 1678.74C3442.57 1679.26 3442.82 1679.89 3442.87 1680.56C3442.92 1681.22 3442.77 1681.88 3442.44 1682.46L3424.43 1713.81C3424.01 1714.54 3423.89 1715.39 3424.07 1716.21C3424.26 1717.02 3424.74 1717.74 3425.43 1718.21L3455.26 1738.64C3455.81 1739.02 3456.24 1739.55 3456.48 1740.17C3456.72 1740.79 3456.77 1741.47 3456.63 1742.12C3456.48 1742.77 3456.14 1743.36 3455.65 1743.82C3455.16 1744.27 3454.55 1744.57 3453.89 1744.67L3418.15 1750.13C3417.33 1750.26 3416.58 1750.69 3416.06 1751.34C3415.53 1752 3415.28 1752.82 3415.34 1753.65L3417.97 1789.72C3418.02 1790.39 3417.86 1791.05 3417.53 1791.63C3417.2 1792.2 3416.7 1792.67 3416.1 1792.96C3415.49 1793.24 3414.82 1793.35 3414.16 1793.25C3413.5 1793.15 3412.89 1792.85 3412.4 1792.4L3385.85 1767.86C3385.24 1767.29 3384.43 1766.98 3383.59 1766.98C3382.76 1766.98 3381.95 1767.29 3381.34 1767.86Z" fill="#E38739"/>
<path d="M3383.6 1744.73C3394.58 1744.73 3403.49 1735.83 3403.49 1724.85C3403.49 1713.86 3394.58 1704.96 3383.6 1704.96C3372.62 1704.96 3363.72 1713.86 3363.72 1724.85C3363.72 1735.83 3372.62 1744.73 3383.6 1744.73Z" fill="#5A3516"/>
<path d="M3383.6 1753.14C3399.22 1753.14 3411.89 1740.47 3411.89 1724.85C3411.89 1709.22 3399.22 1696.55 3383.6 1696.55C3367.98 1696.55 3355.32 1709.22 3355.32 1724.85C3355.32 1740.47 3367.98 1753.14 3383.6 1753.14Z" stroke="#EDE5D6" stroke-width="15.75" stroke-linecap="round" stroke-linejoin="round" stroke-dasharray="0.46 34.24"/>
<path d="M3383.6 1714.28C3380.87 1714.28 3378.24 1715.29 3376.2 1717.11C3374.17 1718.94 3372.88 1721.45 3372.59 1724.17L3351.65 1916.98H3415.56L3394.64 1724.17C3394.34 1721.45 3393.05 1718.93 3391.01 1717.11C3388.98 1715.28 3386.34 1714.27 3383.6 1714.28Z" fill="#D2C09F"/>
<path d="M3383.6 1916.98V1757.04" stroke="#E38739" stroke-width="15.75" stroke-miterlimit="10"/>
<path d="M3395.68 1916.98V1837.01" stroke="#E38739" stroke-width="15.75" stroke-miterlimit="10"/>
<path d="M3371.53 1916.98V1837.01" stroke="#E38739" stroke-width="15.75" stroke-miterlimit="10"/>
<path d="M3383.6 1729.42C3386.13 1729.42 3388.18 1727.37 3388.18 1724.85C3388.18 1722.32 3386.13 1720.27 3383.6 1720.27C3381.08 1720.27 3379.03 1722.32 3379.03 1724.85C3379.03 1727.37 3381.08 1729.42 3383.6 1729.42Z" fill="#5A3516"/>
<path d="M2526.49 1893.02V1916.98" stroke="#5A3516" stroke-width="15.62" stroke-linejoin="round"/>
<path d="M3683.04 1796.9C3687.38 1789.31 3689.65 1780.71 3689.65 1771.97C3689.64 1763.22 3687.35 1754.63 3683 1747.04C3678.08 1738.34 3675.51 1728.49 3675.56 1718.49C3675.56 1718.42 3675.56 1718.36 3675.56 1718.29C3675.61 1713.5 3674.7 1708.75 3672.9 1704.31C3671.1 1699.87 3668.44 1695.83 3665.07 1692.43C3661.7 1689.03 3657.69 1686.33 3653.27 1684.48C3648.85 1682.64 3644.11 1681.69 3639.32 1681.69C3634.53 1681.69 3629.79 1682.64 3625.37 1684.48C3620.95 1686.33 3616.94 1689.03 3613.57 1692.43C3610.2 1695.83 3607.53 1699.87 3605.73 1704.31C3603.93 1708.75 3603.03 1713.5 3603.07 1718.29C3603.07 1718.35 3603.07 1718.42 3603.07 1718.49C3603.12 1728.5 3600.54 1738.35 3595.58 1747.04C3591.25 1754.64 3588.97 1763.23 3588.98 1771.98C3588.98 1780.72 3591.27 1789.32 3595.62 1796.9C3600.54 1805.61 3603.11 1815.45 3603.06 1825.46C3603.07 1825.53 3603.07 1825.6 3603.06 1825.66C3603.15 1835.22 3607.01 1844.36 3613.8 1851.08C3620.58 1857.81 3629.75 1861.58 3639.31 1861.58C3648.86 1861.58 3658.03 1857.81 3664.82 1851.08C3671.6 1844.36 3675.46 1835.22 3675.55 1825.66C3675.55 1825.59 3675.55 1825.53 3675.55 1825.46C3675.51 1815.45 3678.09 1805.6 3683.04 1796.9Z" fill="#765132"/>
<path d="M3657.21 1744.86C3655.08 1747.57 3652.37 1749.76 3649.27 1751.27C3646.17 1752.78 3642.76 1753.56 3639.32 1753.56M3668.37 1772.44C3668.37 1780.15 3665.31 1787.54 3659.86 1792.99C3654.41 1798.44 3647.02 1801.5 3639.32 1801.5M3616.57 1814.33C3616.57 1817.32 3617.15 1820.28 3618.3 1823.04C3619.44 1825.81 3621.11 1828.31 3623.23 1830.43C3625.34 1832.54 3627.85 1834.22 3630.61 1835.36C3633.37 1836.51 3636.33 1837.09 3639.31 1837.09" stroke="#5A3516" stroke-width="15.62" stroke-linecap="round"/>
<path d="M3639.32 1897.31V1916.98" stroke="#5A3516" stroke-width="15.62"/>
<path d="M3639.32 1730V1897.31" stroke="#5A3516" stroke-width="15.62" stroke-linecap="round"/>
<path d="M3066.4 1665.62C3071.73 1664.43 3076.75 1662.11 3081.11 1658.81C3085.47 1655.51 3089.07 1651.31 3091.66 1646.49C3095.04 1640.21 3099.91 1634.85 3105.84 1630.89C3111.78 1626.93 3118.59 1624.49 3125.69 1623.79C3132.79 1623.09 3139.95 1624.15 3146.54 1626.88C3153.14 1629.6 3158.96 1633.9 3163.49 1639.41C3166.76 1643.38 3170.81 1646.64 3175.37 1649C3179.94 1651.36 3184.94 1652.77 3190.07 1653.14C3204.94 1654.32 3216.74 1666.62 3216.74 1681.8C3216.76 1686.61 3215.57 1691.35 3213.27 1695.58C3210.98 1699.8 3207.66 1703.39 3203.61 1705.99C3199.57 1708.59 3194.94 1710.14 3190.14 1710.48C3185.34 1710.81 3180.54 1709.94 3176.17 1707.93C3171.48 1705.83 3166.41 1704.7 3161.27 1704.61C3156.13 1704.51 3151.02 1705.45 3146.25 1707.38C3135.56 1711.7 3123.59 1711.6 3112.98 1707.1C3107.95 1705.01 3102.53 1704.01 3097.08 1704.2C3091.64 1704.38 3086.3 1705.73 3081.42 1708.16C3078.26 1709.69 3074.8 1710.51 3071.29 1710.55C3065.7 1710.53 3060.3 1708.46 3056.14 1704.72C3051.98 1700.98 3049.35 1695.84 3048.74 1690.27C3048.14 1684.71 3049.6 1679.12 3052.86 1674.57C3056.12 1670.02 3060.93 1666.83 3066.39 1665.62H3066.4Z" fill="#765132"/>
<path d="M3135.07 1893.02L3135.16 1916.98" stroke="#5A3516" stroke-width="15.62" stroke-linejoin="round"/>
<path d="M3134.17 1669.73L3135.07 1893.02" stroke="#5A3516" stroke-width="15.62" stroke-linecap="round" stroke-linejoin="round"/>
<path d="M3064.84 1785.87C3066.54 1791.21 3069.52 1796.05 3073.54 1799.96C3077.55 1803.87 3082.46 1806.73 3087.84 1808.29C3093.22 1809.85 3098.9 1810.06 3104.38 1808.9C3109.86 1807.74 3114.97 1805.25 3119.26 1801.65C3122.38 1799.07 3125.98 1797.16 3129.85 1796.01C3133.72 1794.86 3137.79 1794.5 3141.8 1794.96C3144.99 1795.31 3148.23 1795 3151.29 1794.03C3156.87 1792.26 3161.55 1788.39 3164.32 1783.24C3167.1 1778.08 3167.77 1772.05 3166.18 1766.41C3164.59 1760.78 3160.87 1755.98 3155.81 1753.04C3150.74 1750.1 3144.74 1749.25 3139.05 1750.66C3135.12 1751.57 3131.03 1751.68 3127.05 1751C3123.06 1750.31 3119.26 1748.83 3115.85 1746.66C3107.56 1741.49 3097.09 1739.61 3086.94 1742.87C3082.67 1744.24 3078.71 1746.44 3075.28 1749.35C3071.86 1752.25 3069.04 1755.8 3066.99 1759.79C3064.93 1763.78 3063.69 1768.14 3063.32 1772.62C3062.95 1777.09 3063.47 1781.6 3064.84 1785.87Z" fill="#765132"/>
<path d="M3134.17 1836.82L3085.84 1788.47" stroke="#5A3516" stroke-width="15.62" stroke-linecap="round" stroke-linejoin="round"/>
<path d="M3116.58 1819.22V1779.6" stroke="#5A3516" stroke-width="15.62" stroke-linecap="round" stroke-linejoin="round"/>
<path d="M3134.17 1736.43L3184.16 1686.42" stroke="#5A3516" stroke-width="15.62" stroke-linecap="round" stroke-linejoin="round"/>
<path d="M3134.67 1698.53L3110 1676.76" stroke="#5A3516" stroke-width="15.62" stroke-linecap="round" stroke-linejoin="round"/>
</g>
<g opacity="0.3">
<path d="M3725.08 1899.64C3725.08 1889.08 3734.48 1880.91 3744.94 1882.5C3776.33 1887.27 3808.4 1884.76 3838.67 1875.15L3850.01 1871.55C3867.17 1866.1 3884.97 1862.92 3902.95 1862.07L3909.68 1861.75C3919.31 1861.3 3928.75 1864.5 3936.12 1870.72C3943.35 1876.83 3952.6 1880.04 3962.06 1879.72C3971.53 1879.4 3980.54 1875.58 3987.34 1869C4002.28 1854.55 4021.43 1845.24 4042.02 1842.42C4062.6 1839.6 4083.55 1843.41 4101.82 1853.3L4126.74 1866.79C4157.79 1883.59 4194.2 1887.5 4228.1 1877.68L4305.25 1855.35C4337.41 1846.04 4371.88 1849.07 4401.92 1863.83C4413.96 1869.75 4427.19 1872.82 4440.6 1872.82C4454.52 1872.82 4468.24 1869.51 4480.63 1863.15C4493.01 1856.79 4503.71 1847.58 4511.83 1836.26L4513.4 1834.07C4526.75 1815.49 4545.09 1801.07 4566.3 1792.49C4587.51 1783.91 4610.71 1781.52 4633.23 1785.6C4654.54 1789.45 4676.49 1787.52 4696.8 1779.99L4730.21 1767.61C4776.18 1750.57 4827.12 1775.09 4842.49 1821.66C4849.04 1841.47 4862.5 1858.25 4880.42 1868.91C4898.34 1879.58 4919.51 1883.42 4940.03 1879.73L4940.25 1879.69C4964.94 1875.25 4990.41 1878.54 5013.17 1889.11C5015.7 1890.28 5017.84 1892.16 5019.34 1894.51C5020.84 1896.86 5021.64 1899.59 5021.64 1902.37C5021.64 1906.25 5020.1 1909.97 5017.36 1912.71C5014.61 1915.46 5010.9 1917 5007.02 1917H3742.41C3737.81 1917 3733.4 1915.17 3730.15 1911.92C3726.9 1908.67 3725.08 1904.26 3725.08 1899.66V1899.64Z" fill="#765132"/>
<path d="M3822.49 1893.02V1916.98" stroke="#5A3516" stroke-width="15.62" stroke-linejoin="round"/>
</g>
</g>
<defs>
<clipPath id="clip0_587_811">
<rect width="3840" height="1920" fill="white"/>
</clipPath>
</defs>
</svg>
