<svg width="3840" height="1920" viewBox="0 0 3840 1920" fill="none" xmlns="http://www.w3.org/2000/svg">
<g clip-path="url(#clip0_587_811)">
<rect width="3840" height="1920" fill="#F2F3F4"/>
<path opacity="0.75" d="M-11 1904.62C-11 1894.04 16.908 1885.86 47.9411 1887.45C141.083 1892.23 236.234 1889.72 326.033 1880.1L359.698 1876.49C410.611 1871.04 463.415 1867.85 516.773 1867.01L536.72 1866.69C565.292 1866.23 593.317 1869.44 615.182 1875.66C636.646 1881.78 664.077 1885 692.158 1884.68C720.238 1884.36 746.968 1880.53 767.166 1873.94C811.489 1859.48 868.31 1850.16 929.385 1847.33C990.461 1844.51 1052.61 1848.32 1106.83 1858.23L1180.78 1871.73C1272.9 1888.55 1380.91 1892.47 1481.51 1882.64L1710.43 1860.27C1805.84 1850.96 1908.11 1853.98 1997.25 1868.77C2032.96 1874.69 2072.22 1877.77 2112 1877.77C2153.31 1877.77 2194.02 1874.45 2230.77 1868.09C2267.52 1861.72 2299.26 1852.49 2323.34 1841.17L2328.01 1838.97C2367.62 1820.37 2422.05 1805.93 2484.97 1797.34C2547.9 1788.75 2616.75 1786.36 2683.55 1790.44C2746.78 1794.3 2811.92 1792.36 2872.18 1784.82L2971.31 1772.43C3107.71 1755.37 3258.84 1779.92 3304.47 1826.54C3323.87 1846.37 3363.83 1863.17 3417 1873.86C3470.16 1884.54 3532.97 1888.38 3593.86 1884.69L3594.5 1884.65C3667.78 1880.2 3743.35 1883.49 3810.88 1894.08C3818.38 1895.25 3824.73 1897.13 3829.18 1899.48C3833.63 1901.83 3836 1904.57 3836 1907.36C3836 1911.24 3831.43 1914.96 3823.29 1917.71C3815.16 1920.46 3804.12 1922 3792.62 1922H40.4274C26.788 1922 13.7073 1920.17 4.06275 1916.92C-5.58177 1913.66 -11 1909.24 -11 1904.64V1904.62Z" fill="#765132"/>
<g opacity="0.75">
<path d="M3385.98 1896.02V1893.78C3385.98 1889.03 3384.09 1884.47 3380.73 1881.1C3377.37 1877.74 3372.81 1875.85 3368.05 1875.85H3291.6V1896.02M3460.14 1896.02V1893.78C3460.14 1889.03 3462.03 1884.47 3465.39 1881.1C3468.76 1877.74 3473.32 1875.85 3478.07 1875.85H3554.51V1896.02" stroke="#5A3516" stroke-width="15.63" stroke-miterlimit="10"/>
<path d="M3203.65 1685.03H3241.88V1699.17C3241.88 1702.89 3240.41 1706.46 3237.78 1709.09C3235.15 1711.71 3231.59 1713.19 3227.87 1713.19H3217.66C3213.95 1713.19 3210.38 1711.71 3207.76 1709.09C3205.13 1706.46 3203.65 1702.89 3203.65 1699.17V1685.03Z" fill="#D2C09F"/>
<path d="M3216.27 1685.03H3229.3V1691.55C3229.3 1693.27 3228.61 1694.93 3227.39 1696.15C3226.17 1697.37 3224.51 1698.06 3222.79 1698.06C3221.93 1698.06 3221.08 1697.89 3220.29 1697.56C3219.5 1697.24 3218.79 1696.76 3218.18 1696.15C3217.58 1695.55 3217.1 1694.83 3216.77 1694.04C3216.44 1693.25 3216.27 1692.4 3216.27 1691.55V1685.03Z" fill="#5A3516"/>
<path d="M3222.77 1685.03V1661.92" stroke="#5A3516" stroke-width="15.63" stroke-miterlimit="10"/>
<path d="M3273.21 1806.03H3311.45V1820.17C3311.45 1823.89 3309.97 1827.45 3307.34 1830.08C3304.72 1832.71 3301.15 1834.19 3297.43 1834.19H3287.22C3283.51 1834.19 3279.94 1832.71 3277.31 1830.08C3274.69 1827.45 3273.21 1823.89 3273.21 1820.17V1806.03Z" fill="#E38739"/>
<path d="M3292.33 1819.06C3290.6 1819.06 3288.94 1818.37 3287.72 1817.15C3286.5 1815.93 3285.81 1814.27 3285.81 1812.54V1806.03H3298.84V1812.54C3298.84 1813.4 3298.67 1814.25 3298.34 1815.04C3298.02 1815.83 3297.54 1816.55 3296.93 1817.15C3296.33 1817.76 3295.61 1818.24 3294.82 1818.56C3294.03 1818.89 3293.18 1819.06 3292.33 1819.06Z" fill="#5A3516"/>
<path d="M3292.33 1806.03V1782.91" stroke="#5A3516" stroke-width="15.63" stroke-miterlimit="10"/>
<path d="M3403.94 1853.31H3442.18V1867.46C3442.18 1871.17 3440.7 1874.74 3438.07 1877.37C3435.44 1880 3431.88 1881.47 3428.16 1881.47H3417.96C3414.25 1881.47 3410.68 1880 3408.06 1877.37C3405.43 1874.74 3403.95 1871.17 3403.95 1867.46V1853.31H3403.94Z" fill="#FBA256"/>
<path d="M3416.54 1853.31H3429.57V1859.83C3429.57 1861.56 3428.88 1863.21 3427.66 1864.43C3426.44 1865.66 3424.78 1866.34 3423.06 1866.34C3421.33 1866.34 3419.67 1865.66 3418.45 1864.43C3417.23 1863.21 3416.55 1861.56 3416.55 1859.83V1853.31H3416.54Z" fill="#5A3516"/>
<path d="M3423.06 1853.31V1830.2" stroke="#5A3516" stroke-width="15.63" stroke-miterlimit="10"/>
<path d="M3534.66 1806.03H3572.9V1820.17C3572.9 1823.89 3571.42 1827.45 3568.79 1830.08C3566.17 1832.71 3562.6 1834.19 3558.89 1834.19H3548.68C3544.96 1834.19 3541.4 1832.71 3538.77 1830.08C3536.14 1827.45 3534.66 1823.89 3534.66 1820.17V1806.03H3534.66Z" fill="#D2C09F"/>
<path d="M3547.26 1806.03H3560.29V1812.54C3560.29 1814.27 3559.6 1815.92 3558.38 1817.15C3557.16 1818.37 3555.51 1819.05 3553.78 1819.05C3552.05 1819.05 3550.4 1818.37 3549.17 1817.15C3547.95 1815.92 3547.27 1814.27 3547.27 1812.54V1806.03H3547.26Z" fill="#5A3516"/>
<path d="M3553.78 1806.03V1782.91" stroke="#5A3516" stroke-width="15.63" stroke-miterlimit="10"/>
<path d="M3604.21 1685.88H3642.45V1700.03C3642.45 1701.87 3642.09 1703.69 3641.39 1705.39C3640.68 1707.09 3639.65 1708.64 3638.35 1709.94C3637.05 1711.24 3635.5 1712.27 3633.8 1712.98C3632.1 1713.68 3630.28 1714.04 3628.44 1714.04H3618.23C3616.39 1714.04 3614.57 1713.68 3612.87 1712.98C3611.17 1712.27 3609.62 1711.24 3608.32 1709.94C3607.02 1708.64 3605.99 1707.09 3605.28 1705.39C3604.58 1703.69 3604.22 1701.87 3604.22 1700.03V1685.88H3604.21Z" fill="#E38739"/>
<path d="M3623.33 1698.93C3621.61 1698.93 3619.95 1698.24 3618.73 1697.02C3617.51 1695.8 3616.82 1694.14 3616.82 1692.42V1685.9H3629.85V1692.42C3629.85 1693.27 3629.68 1694.12 3629.35 1694.91C3629.03 1695.7 3628.55 1696.42 3627.94 1697.02C3627.34 1697.63 3626.62 1698.11 3625.83 1698.44C3625.04 1698.76 3624.19 1698.93 3623.33 1698.93Z" fill="#5A3516"/>
<path d="M3623.33 1685.88V1662.77" stroke="#5A3516" stroke-width="15.63" stroke-miterlimit="10"/>
<path d="M3580.06 1548.84H3618.3V1562.98C3618.3 1564.82 3617.94 1566.65 3617.23 1568.35C3616.53 1570.05 3615.5 1571.59 3614.2 1572.9C3612.9 1574.2 3611.35 1575.23 3609.65 1575.94C3607.95 1576.64 3606.13 1577 3604.29 1577H3594.08C3590.36 1577 3586.8 1575.53 3584.17 1572.9C3581.54 1570.27 3580.07 1566.7 3580.07 1562.99V1548.84H3580.06Z" fill="#FBA256"/>
<path d="M3592.66 1548.84H3605.69V1555.36C3605.69 1556.21 3605.52 1557.06 3605.19 1557.85C3604.86 1558.64 3604.38 1559.36 3603.78 1559.96C3603.17 1560.57 3602.45 1561.05 3601.66 1561.37C3600.87 1561.7 3600.02 1561.87 3599.17 1561.87C3597.44 1561.87 3595.78 1561.18 3594.56 1559.96C3593.34 1558.74 3592.65 1557.08 3592.65 1555.35V1548.84H3592.66Z" fill="#5A3516"/>
<path d="M3599.18 1548.84V1525.73" stroke="#5A3516" stroke-width="15.63" stroke-miterlimit="10"/>
<path d="M3473.49 1459.39H3511.73V1473.53C3511.73 1475.37 3511.37 1477.2 3510.67 1478.9C3509.96 1480.6 3508.93 1482.15 3507.63 1483.46C3506.33 1484.76 3504.78 1485.79 3503.08 1486.5C3501.38 1487.21 3499.56 1487.57 3497.71 1487.57H3487.51C3483.79 1487.57 3480.22 1486.09 3477.6 1483.46C3474.97 1480.84 3473.49 1477.27 3473.49 1473.55V1459.39H3473.49Z" fill="#D2C09F"/>
<path d="M3486.1 1459.39H3499.12V1465.9C3499.12 1467.63 3498.44 1469.29 3497.22 1470.51C3496 1471.73 3494.34 1472.42 3492.61 1472.42C3490.88 1472.42 3489.23 1471.73 3488.01 1470.51C3486.79 1469.29 3486.1 1467.63 3486.1 1465.9V1459.39H3486.1Z" fill="#5A3516"/>
<path d="M3492.61 1459.39V1436.28" stroke="#5A3516" stroke-width="15.63" stroke-miterlimit="10"/>
<path d="M3227.8 1550.31H3266.04V1564.45C3266.04 1568.17 3264.57 1571.74 3261.94 1574.37C3259.31 1576.99 3255.75 1578.47 3252.03 1578.47H3241.82C3239.98 1578.47 3238.16 1578.11 3236.46 1577.41C3234.75 1576.7 3233.21 1575.67 3231.91 1574.37C3230.6 1573.07 3229.57 1571.52 3228.86 1569.82C3228.16 1568.12 3227.8 1566.3 3227.8 1564.45V1550.31Z" fill="#E38739"/>
<path d="M3246.93 1563.34C3245.2 1563.34 3243.54 1562.65 3242.32 1561.43C3241.1 1560.21 3240.41 1558.55 3240.41 1556.83V1550.31H3253.44V1556.83C3253.44 1558.55 3252.75 1560.21 3251.53 1561.43C3250.31 1562.66 3248.65 1563.34 3246.93 1563.34Z" fill="#5A3516"/>
<path d="M3246.93 1550.31V1527.2" stroke="#5A3516" stroke-width="15.63" stroke-miterlimit="10"/>
<path d="M3334.38 1459.39H3372.61V1473.53C3372.62 1475.37 3372.26 1477.2 3371.55 1478.9C3370.85 1480.61 3369.82 1482.15 3368.52 1483.46C3367.22 1484.76 3365.67 1485.8 3363.97 1486.5C3362.27 1487.21 3360.44 1487.57 3358.6 1487.57H3348.39C3344.67 1487.57 3341.11 1486.09 3338.48 1483.46C3335.85 1480.84 3334.38 1477.27 3334.38 1473.55V1459.39Z" fill="#FBA256"/>
<path d="M3353.5 1472.42C3352.64 1472.42 3351.79 1472.25 3351 1471.93C3350.21 1471.6 3349.49 1471.12 3348.89 1470.52C3348.28 1469.91 3347.8 1469.19 3347.48 1468.4C3347.15 1467.61 3346.98 1466.76 3346.98 1465.91V1459.39H3360.02V1465.9C3360.02 1466.76 3359.85 1467.61 3359.52 1468.4C3359.19 1469.19 3358.71 1469.91 3358.11 1470.52C3357.5 1471.12 3356.78 1471.6 3355.99 1471.93C3355.2 1472.26 3354.35 1472.42 3353.5 1472.42Z" fill="#5A3516"/>
<path d="M3353.5 1459.39V1436.28" stroke="#5A3516" stroke-width="15.63" stroke-miterlimit="10"/>
<path d="M3246.93 1525.73L3222.77 1662.77" stroke="#5A3516" stroke-width="15.63" stroke-miterlimit="10"/>
<path d="M3222.77 1662.77L3292.33 1783.28" stroke="#5A3516" stroke-width="15.63" stroke-miterlimit="10"/>
<path d="M3292.33 1783.28L3423.05 1830.88" stroke="#5A3516" stroke-width="15.63" stroke-miterlimit="10"/>
<path d="M3423.05 1830.88L3553.78 1783.28" stroke="#5A3516" stroke-width="15.63" stroke-miterlimit="10"/>
<path d="M3553.78 1783.28L3623.33 1662.77" stroke="#5A3516" stroke-width="15.63" stroke-miterlimit="10"/>
<path d="M3623.33 1662.77L3599.18 1525.73" stroke="#5A3516" stroke-width="15.63" stroke-miterlimit="10"/>
<path d="M3599.18 1525.73L3492.61 1436.28" stroke="#5A3516" stroke-width="15.63" stroke-miterlimit="10"/>
<path d="M3492.61 1436.28H3353.5" stroke="#5A3516" stroke-width="15.63" stroke-miterlimit="10"/>
<path d="M3246.93 1525.73L3353.5 1436.28" stroke="#5A3516" stroke-width="15.63" stroke-miterlimit="10"/>
<path d="M3415.49 1614.34L3599.18 1525.73L3430.62 1640.55" stroke="#162A5A" stroke-width="15.63" stroke-miterlimit="10"/>
<path d="M3408.84 1622.27L3492.61 1436.28L3437.27 1632.62" stroke="#162A5A" stroke-width="15.63" stroke-miterlimit="10"/>
<path d="M3408.84 1632.62L3353.5 1436.28L3437.27 1622.27" stroke="#162A5A" stroke-width="15.63" stroke-miterlimit="10"/>
<path d="M3415.49 1640.55L3246.93 1525.73L3430.62 1614.34" stroke="#162A5A" stroke-width="15.63" stroke-miterlimit="10"/>
<path d="M3425.68 1642.35L3222.77 1662.77L3420.43 1612.54" stroke="#162A5A" stroke-width="15.63" stroke-miterlimit="10"/>
<path d="M3434.64 1637.17L3292.33 1783.28L3411.46 1617.72" stroke="#162A5A" stroke-width="15.63" stroke-miterlimit="10"/>
<path d="M3438.18 1627.44L3423.05 1830.88L3407.92 1627.44" stroke="#162A5A" stroke-width="15.63" stroke-miterlimit="10"/>
<path d="M3434.64 1617.72L3553.78 1783.28L3411.46 1637.17" stroke="#162A5A" stroke-width="15.63" stroke-miterlimit="10"/>
<path d="M3425.68 1612.54L3623.33 1662.77L3420.43 1642.35" stroke="#162A5A" stroke-width="15.63" stroke-miterlimit="10"/>
<path d="M3423.05 1830.88C3535.37 1830.88 3626.42 1739.8 3626.42 1627.44C3626.42 1515.09 3535.37 1424.01 3423.05 1424.01C3310.73 1424.01 3219.68 1515.09 3219.68 1627.44C3219.68 1739.8 3310.73 1830.88 3423.05 1830.88Z" stroke="#E38739" stroke-width="15.63" stroke-miterlimit="10"/>
<path d="M3423.05 1673.89C3448.7 1673.89 3469.48 1653.1 3469.48 1627.44C3469.48 1601.79 3448.7 1580.99 3423.05 1580.99C3397.41 1580.99 3376.62 1601.79 3376.62 1627.44C3376.62 1653.1 3397.41 1673.89 3423.05 1673.89Z" fill="#5A3516"/>
<path d="M3480.82 1901.47L3423.05 1671.45L3365.29 1901.47L3344.49 1896.25L3412.66 1624.83H3433.45L3501.62 1896.25L3480.82 1901.47Z" fill="#E38739"/>
<path d="M3357.5 1888.46L3357.52 1888.39" stroke="#EC9F5E" stroke-width="22.32" stroke-linecap="round" stroke-linejoin="bevel"/>
<path d="M3360.94 1874.79L3421.33 1634.31" stroke="#EC9F5E" stroke-width="22.32" stroke-linecap="round" stroke-linejoin="bevel" stroke-dasharray="0.44 43.79"/>
<path d="M3423.04 1627.51L3423.05 1627.45L3423.07 1627.51" stroke="#ECC35E" stroke-width="22.32" stroke-linecap="round" stroke-linejoin="bevel"/>
<path d="M3426.49 1641.11L3486.88 1881.59" stroke="#EC9F5E" stroke-width="22.32" stroke-linecap="round" stroke-linejoin="bevel" stroke-dasharray="0.44 43.79"/>
<path d="M3488.59 1888.39L3488.61 1888.46" stroke="#EC9F5E" stroke-width="22.32" stroke-linecap="round" stroke-linejoin="bevel"/>
<path d="M3439.34 1643.74C3448.34 1634.74 3448.34 1620.15 3439.34 1611.15C3430.34 1602.15 3415.76 1602.15 3406.76 1611.15C3397.76 1620.15 3397.76 1634.74 3406.76 1643.74C3415.76 1652.74 3430.34 1652.74 3439.34 1643.74Z" fill="#FBA256"/>
<path d="M3423.05 1642.57C3431.4 1642.57 3438.18 1635.8 3438.18 1627.44C3438.18 1619.09 3431.4 1612.31 3423.05 1612.31C3414.7 1612.31 3407.92 1619.09 3407.92 1627.44C3407.92 1635.8 3414.7 1642.57 3423.05 1642.57Z" fill="#5A3516"/>
<path d="M3557.06 1896.02H3289.04V1919.98H3557.06V1896.02Z" fill="#FBA256"/>
<path d="M3474.11 1908H3372.63V1919.98H3474.11V1908Z" fill="#E38739"/>
<path d="M3685.4 1668.62C3690.73 1667.43 3695.75 1665.11 3700.11 1661.81C3704.47 1658.51 3708.07 1654.31 3710.66 1649.49C3714.04 1643.21 3718.91 1637.85 3724.84 1633.89C3730.78 1629.93 3737.59 1627.49 3744.69 1626.79C3751.79 1626.09 3758.95 1627.15 3765.54 1629.88C3772.14 1632.6 3777.96 1636.9 3782.49 1642.41C3785.76 1646.38 3789.81 1649.64 3794.37 1652C3798.94 1654.36 3803.94 1655.77 3809.07 1656.14C3823.94 1657.32 3835.74 1669.62 3835.74 1684.8C3835.76 1689.61 3834.57 1694.35 3832.27 1698.58C3829.98 1702.8 3826.66 1706.39 3822.61 1708.99C3818.57 1711.59 3813.94 1713.14 3809.14 1713.48C3804.34 1713.81 3799.54 1712.94 3795.17 1710.93C3790.48 1708.83 3785.41 1707.7 3780.27 1707.61C3775.13 1707.51 3770.02 1708.45 3765.25 1710.38C3754.56 1714.7 3742.59 1714.6 3731.98 1710.1C3726.95 1708.01 3721.53 1707.01 3716.08 1707.2C3710.64 1707.38 3705.3 1708.73 3700.42 1711.16C3697.26 1712.69 3693.8 1713.51 3690.29 1713.55C3684.7 1713.53 3679.3 1711.46 3675.14 1707.72C3670.98 1703.98 3668.35 1698.84 3667.74 1693.27C3667.14 1687.71 3668.6 1682.12 3671.86 1677.57C3675.12 1673.02 3679.93 1669.83 3685.39 1668.62H3685.4Z" fill="#765132"/>
<path d="M3754.07 1896.02L3754.16 1919.98" stroke="#5A3516" stroke-width="15.62" stroke-linejoin="round"/>
<path d="M3753.17 1672.73L3754.07 1896.02" stroke="#5A3516" stroke-width="15.62" stroke-linecap="round" stroke-linejoin="round"/>
<path d="M3683.84 1788.87C3685.54 1794.21 3688.52 1799.05 3692.54 1802.96C3696.55 1806.87 3701.46 1809.73 3706.84 1811.29C3712.22 1812.85 3717.9 1813.06 3723.38 1811.9C3728.86 1810.74 3733.97 1808.25 3738.26 1804.65C3741.38 1802.07 3744.98 1800.16 3748.85 1799.01C3752.72 1797.86 3756.79 1797.5 3760.8 1797.96C3763.99 1798.31 3767.23 1798 3770.29 1797.03C3775.87 1795.26 3780.55 1791.39 3783.32 1786.24C3786.1 1781.08 3786.77 1775.05 3785.18 1769.41C3783.59 1763.78 3779.87 1758.98 3774.81 1756.04C3769.74 1753.1 3763.74 1752.25 3758.05 1753.66C3754.12 1754.57 3750.03 1754.68 3746.05 1754C3742.06 1753.31 3738.26 1751.83 3734.85 1749.66C3726.56 1744.49 3716.09 1742.61 3705.94 1745.87C3701.67 1747.24 3697.71 1749.44 3694.28 1752.35C3690.86 1755.25 3688.04 1758.8 3685.99 1762.79C3683.93 1766.78 3682.69 1771.14 3682.32 1775.62C3681.95 1780.09 3682.47 1784.6 3683.84 1788.87Z" fill="#765132"/>
<path d="M3753.17 1839.82L3704.84 1791.47" stroke="#5A3516" stroke-width="15.62" stroke-linecap="round" stroke-linejoin="round"/>
<path d="M3735.58 1822.22V1782.6" stroke="#5A3516" stroke-width="15.62" stroke-linecap="round" stroke-linejoin="round"/>
<path d="M3753.17 1739.43L3803.16 1689.42" stroke="#5A3516" stroke-width="15.62" stroke-linecap="round" stroke-linejoin="round"/>
<path d="M3753.67 1701.53L3729 1679.76" stroke="#5A3516" stroke-width="15.62" stroke-linecap="round" stroke-linejoin="round"/>
</g>
<g opacity="0.75">
<path d="M2240.98 1897.02V1894.78C2240.98 1890.03 2239.09 1885.47 2235.73 1882.1C2232.37 1878.74 2227.81 1876.85 2223.05 1876.85H2146.6V1897.02M2315.14 1897.02V1894.78C2315.14 1890.03 2317.03 1885.47 2320.39 1882.1C2323.76 1878.74 2328.32 1876.85 2333.07 1876.85H2409.51V1897.02" stroke="#5A3516" stroke-width="15.63" stroke-miterlimit="10"/>
<path d="M2058.65 1686.03H2096.88V1700.17C2096.88 1703.89 2095.41 1707.46 2092.78 1710.09C2090.15 1712.71 2086.59 1714.19 2082.87 1714.19H2072.66C2068.95 1714.19 2065.38 1712.71 2062.76 1710.09C2060.13 1707.46 2058.65 1703.89 2058.65 1700.17V1686.03Z" fill="#D2C09F"/>
<path d="M2071.27 1686.03H2084.3V1692.55C2084.3 1694.27 2083.61 1695.93 2082.39 1697.15C2081.17 1698.37 2079.51 1699.06 2077.79 1699.06C2076.93 1699.06 2076.08 1698.89 2075.29 1698.56C2074.5 1698.24 2073.79 1697.76 2073.18 1697.15C2072.58 1696.55 2072.1 1695.83 2071.77 1695.04C2071.44 1694.25 2071.27 1693.4 2071.27 1692.55V1686.03Z" fill="#5A3516"/>
<path d="M2077.77 1686.03V1662.92" stroke="#5A3516" stroke-width="15.63" stroke-miterlimit="10"/>
<path d="M2128.21 1807.03H2166.45V1821.17C2166.45 1824.89 2164.97 1828.45 2162.34 1831.08C2159.72 1833.71 2156.15 1835.19 2152.43 1835.19H2142.22C2138.51 1835.19 2134.94 1833.71 2132.31 1831.08C2129.69 1828.45 2128.21 1824.89 2128.21 1821.17V1807.03Z" fill="#E38739"/>
<path d="M2147.33 1820.06C2145.6 1820.06 2143.94 1819.37 2142.72 1818.15C2141.5 1816.93 2140.81 1815.27 2140.81 1813.54V1807.03H2153.84V1813.54C2153.84 1814.4 2153.67 1815.25 2153.34 1816.04C2153.02 1816.83 2152.54 1817.55 2151.93 1818.15C2151.33 1818.76 2150.61 1819.24 2149.82 1819.56C2149.03 1819.89 2148.18 1820.06 2147.33 1820.06Z" fill="#5A3516"/>
<path d="M2147.33 1807.03V1783.91" stroke="#5A3516" stroke-width="15.63" stroke-miterlimit="10"/>
<path d="M2258.94 1854.31H2297.18V1868.46C2297.18 1872.17 2295.7 1875.74 2293.07 1878.37C2290.44 1881 2286.88 1882.47 2283.16 1882.47H2272.96C2269.25 1882.47 2265.68 1881 2263.05 1878.37C2260.43 1875.74 2258.95 1872.17 2258.95 1868.46V1854.31H2258.94Z" fill="#FBA256"/>
<path d="M2271.54 1854.31H2284.57V1860.83C2284.57 1862.56 2283.88 1864.21 2282.66 1865.43C2281.44 1866.66 2279.78 1867.34 2278.06 1867.34C2276.33 1867.34 2274.67 1866.66 2273.45 1865.43C2272.23 1864.21 2271.55 1862.56 2271.55 1860.83V1854.31H2271.54Z" fill="#5A3516"/>
<path d="M2278.06 1854.31V1831.2" stroke="#5A3516" stroke-width="15.63" stroke-miterlimit="10"/>
<path d="M2389.66 1807.03H2427.9V1821.17C2427.9 1824.89 2426.42 1828.45 2423.79 1831.08C2421.17 1833.71 2417.6 1835.19 2413.89 1835.19H2403.68C2399.96 1835.19 2396.4 1833.71 2393.77 1831.08C2391.14 1828.45 2389.66 1824.89 2389.66 1821.17V1807.03H2389.66Z" fill="#D2C09F"/>
<path d="M2402.26 1807.03H2415.29V1813.54C2415.29 1815.27 2414.6 1816.92 2413.38 1818.15C2412.16 1819.37 2410.51 1820.05 2408.78 1820.05C2407.05 1820.05 2405.4 1819.37 2404.17 1818.15C2402.95 1816.92 2402.27 1815.27 2402.27 1813.54V1807.03H2402.26Z" fill="#5A3516"/>
<path d="M2408.78 1807.03V1783.91" stroke="#5A3516" stroke-width="15.63" stroke-miterlimit="10"/>
<path d="M2459.21 1686.88H2497.45V1701.03C2497.45 1702.87 2497.09 1704.69 2496.39 1706.39C2495.68 1708.09 2494.65 1709.64 2493.35 1710.94C2492.05 1712.24 2490.5 1713.27 2488.8 1713.98C2487.1 1714.68 2485.28 1715.04 2483.44 1715.04H2473.23C2471.39 1715.04 2469.57 1714.68 2467.87 1713.98C2466.17 1713.27 2464.62 1712.24 2463.32 1710.94C2462.02 1709.64 2460.99 1708.09 2460.28 1706.39C2459.58 1704.69 2459.22 1702.87 2459.22 1701.03V1686.88H2459.21Z" fill="#E38739"/>
<path d="M2478.33 1699.93C2476.61 1699.93 2474.95 1699.24 2473.73 1698.02C2472.51 1696.8 2471.82 1695.14 2471.82 1693.42V1686.9H2484.85V1693.42C2484.85 1694.27 2484.68 1695.12 2484.35 1695.91C2484.03 1696.7 2483.55 1697.42 2482.94 1698.02C2482.34 1698.63 2481.62 1699.11 2480.83 1699.44C2480.04 1699.76 2479.19 1699.93 2478.33 1699.93Z" fill="#5A3516"/>
<path d="M2478.33 1686.88V1663.77" stroke="#5A3516" stroke-width="15.63" stroke-miterlimit="10"/>
<path d="M2435.06 1549.84H2473.3V1563.98C2473.3 1565.82 2472.94 1567.65 2472.23 1569.35C2471.53 1571.05 2470.5 1572.59 2469.2 1573.9C2467.9 1575.2 2466.35 1576.23 2464.65 1576.94C2462.95 1577.64 2461.13 1578 2459.29 1578H2449.08C2445.36 1578 2441.8 1576.53 2439.17 1573.9C2436.54 1571.27 2435.07 1567.7 2435.07 1563.99V1549.84H2435.06Z" fill="#FBA256"/>
<path d="M2447.66 1549.84H2460.69V1556.36C2460.69 1557.21 2460.52 1558.06 2460.19 1558.85C2459.86 1559.64 2459.38 1560.36 2458.78 1560.96C2458.17 1561.57 2457.45 1562.05 2456.66 1562.37C2455.87 1562.7 2455.02 1562.87 2454.17 1562.87C2452.44 1562.87 2450.78 1562.18 2449.56 1560.96C2448.34 1559.74 2447.65 1558.08 2447.65 1556.35V1549.84H2447.66Z" fill="#5A3516"/>
<path d="M2454.18 1549.84V1526.73" stroke="#5A3516" stroke-width="15.63" stroke-miterlimit="10"/>
<path d="M2328.49 1460.39H2366.73V1474.53C2366.73 1476.37 2366.37 1478.2 2365.67 1479.9C2364.96 1481.6 2363.93 1483.15 2362.63 1484.46C2361.33 1485.76 2359.78 1486.79 2358.08 1487.5C2356.38 1488.21 2354.56 1488.57 2352.71 1488.57H2342.51C2338.79 1488.57 2335.22 1487.09 2332.6 1484.46C2329.97 1481.84 2328.49 1478.27 2328.49 1474.55V1460.39H2328.49Z" fill="#D2C09F"/>
<path d="M2341.1 1460.39H2354.12V1466.9C2354.12 1468.63 2353.44 1470.29 2352.22 1471.51C2351 1472.73 2349.34 1473.42 2347.61 1473.42C2345.88 1473.42 2344.23 1472.73 2343.01 1471.51C2341.79 1470.29 2341.1 1468.63 2341.1 1466.9V1460.39H2341.1Z" fill="#5A3516"/>
<path d="M2347.61 1460.39V1437.28" stroke="#5A3516" stroke-width="15.63" stroke-miterlimit="10"/>
<path d="M2082.8 1551.31H2121.04V1565.45C2121.04 1569.17 2119.57 1572.74 2116.94 1575.37C2114.31 1577.99 2110.75 1579.47 2107.03 1579.47H2096.82C2094.98 1579.47 2093.16 1579.11 2091.46 1578.41C2089.75 1577.7 2088.21 1576.67 2086.91 1575.37C2085.6 1574.07 2084.57 1572.52 2083.86 1570.82C2083.16 1569.12 2082.8 1567.3 2082.8 1565.45V1551.31Z" fill="#E38739"/>
<path d="M2101.93 1564.34C2100.2 1564.34 2098.54 1563.65 2097.32 1562.43C2096.1 1561.21 2095.41 1559.55 2095.41 1557.83V1551.31H2108.44V1557.83C2108.44 1559.55 2107.75 1561.21 2106.53 1562.43C2105.31 1563.66 2103.65 1564.34 2101.93 1564.34Z" fill="#5A3516"/>
<path d="M2101.93 1551.31V1528.2" stroke="#5A3516" stroke-width="15.63" stroke-miterlimit="10"/>
<path d="M2189.38 1460.39H2227.61V1474.53C2227.62 1476.37 2227.26 1478.2 2226.55 1479.9C2225.85 1481.61 2224.82 1483.15 2223.52 1484.46C2222.22 1485.76 2220.67 1486.8 2218.97 1487.5C2217.27 1488.21 2215.44 1488.57 2213.6 1488.57H2203.39C2199.67 1488.57 2196.11 1487.09 2193.48 1484.46C2190.85 1481.84 2189.38 1478.27 2189.38 1474.55V1460.39Z" fill="#FBA256"/>
<path d="M2208.5 1473.42C2207.64 1473.42 2206.79 1473.25 2206 1472.93C2205.21 1472.6 2204.49 1472.12 2203.89 1471.52C2203.28 1470.91 2202.8 1470.19 2202.48 1469.4C2202.15 1468.61 2201.98 1467.76 2201.98 1466.91V1460.39H2215.02V1466.9C2215.02 1467.76 2214.85 1468.61 2214.52 1469.4C2214.19 1470.19 2213.71 1470.91 2213.11 1471.52C2212.5 1472.12 2211.78 1472.6 2210.99 1472.93C2210.2 1473.26 2209.35 1473.42 2208.5 1473.42Z" fill="#5A3516"/>
<path d="M2208.5 1460.39V1437.28" stroke="#5A3516" stroke-width="15.63" stroke-miterlimit="10"/>
<path d="M2101.93 1526.73L2077.77 1663.77" stroke="#5A3516" stroke-width="15.63" stroke-miterlimit="10"/>
<path d="M2077.77 1663.77L2147.33 1784.28" stroke="#5A3516" stroke-width="15.63" stroke-miterlimit="10"/>
<path d="M2147.33 1784.28L2278.05 1831.88" stroke="#5A3516" stroke-width="15.63" stroke-miterlimit="10"/>
<path d="M2278.05 1831.88L2408.78 1784.28" stroke="#5A3516" stroke-width="15.63" stroke-miterlimit="10"/>
<path d="M2408.78 1784.28L2478.33 1663.77" stroke="#5A3516" stroke-width="15.63" stroke-miterlimit="10"/>
<path d="M2478.33 1663.77L2454.18 1526.73" stroke="#5A3516" stroke-width="15.63" stroke-miterlimit="10"/>
<path d="M2454.18 1526.73L2347.61 1437.28" stroke="#5A3516" stroke-width="15.63" stroke-miterlimit="10"/>
<path d="M2347.61 1437.28H2208.5" stroke="#5A3516" stroke-width="15.63" stroke-miterlimit="10"/>
<path d="M2101.93 1526.73L2208.5 1437.28" stroke="#5A3516" stroke-width="15.63" stroke-miterlimit="10"/>
<path d="M2270.49 1615.34L2454.18 1526.73L2285.62 1641.55" stroke="#162A5A" stroke-width="15.63" stroke-miterlimit="10"/>
<path d="M2263.84 1623.27L2347.61 1437.28L2292.27 1633.62" stroke="#162A5A" stroke-width="15.63" stroke-miterlimit="10"/>
<path d="M2263.84 1633.62L2208.5 1437.28L2292.27 1623.27" stroke="#162A5A" stroke-width="15.63" stroke-miterlimit="10"/>
<path d="M2270.49 1641.55L2101.93 1526.73L2285.62 1615.34" stroke="#162A5A" stroke-width="15.63" stroke-miterlimit="10"/>
<path d="M2280.68 1643.35L2077.77 1663.77L2275.43 1613.54" stroke="#162A5A" stroke-width="15.63" stroke-miterlimit="10"/>
<path d="M2289.64 1638.17L2147.33 1784.28L2266.46 1618.72" stroke="#162A5A" stroke-width="15.63" stroke-miterlimit="10"/>
<path d="M2293.18 1628.44L2278.05 1831.88L2262.92 1628.44" stroke="#162A5A" stroke-width="15.63" stroke-miterlimit="10"/>
<path d="M2289.64 1618.72L2408.78 1784.28L2266.46 1638.17" stroke="#162A5A" stroke-width="15.63" stroke-miterlimit="10"/>
<path d="M2280.68 1613.54L2478.33 1663.77L2275.43 1643.35" stroke="#162A5A" stroke-width="15.63" stroke-miterlimit="10"/>
<path d="M2278.05 1831.88C2390.37 1831.88 2481.42 1740.8 2481.42 1628.44C2481.42 1516.09 2390.37 1425.01 2278.05 1425.01C2165.73 1425.01 2074.68 1516.09 2074.68 1628.44C2074.68 1740.8 2165.73 1831.88 2278.05 1831.88Z" stroke="#E38739" stroke-width="15.63" stroke-miterlimit="10"/>
<path d="M2278.05 1674.89C2303.7 1674.89 2324.48 1654.1 2324.48 1628.44C2324.48 1602.79 2303.7 1581.99 2278.05 1581.99C2252.41 1581.99 2231.62 1602.79 2231.62 1628.44C2231.62 1654.1 2252.41 1674.89 2278.05 1674.89Z" fill="#5A3516"/>
<path d="M2335.82 1902.47L2278.05 1672.45L2220.29 1902.47L2199.49 1897.25L2267.66 1625.83H2288.45L2356.62 1897.25L2335.82 1902.47Z" fill="#E38739"/>
<path d="M2212.5 1889.46L2212.52 1889.39" stroke="#EC9F5E" stroke-width="22.32" stroke-linecap="round" stroke-linejoin="bevel"/>
<path d="M2215.94 1875.79L2276.33 1635.31" stroke="#EC9F5E" stroke-width="22.32" stroke-linecap="round" stroke-linejoin="bevel" stroke-dasharray="0.44 43.79"/>
<path d="M2278.04 1628.51L2278.05 1628.45L2278.07 1628.51" stroke="#ECC35E" stroke-width="22.32" stroke-linecap="round" stroke-linejoin="bevel"/>
<path d="M2281.49 1642.11L2341.88 1882.59" stroke="#EC9F5E" stroke-width="22.32" stroke-linecap="round" stroke-linejoin="bevel" stroke-dasharray="0.44 43.79"/>
<path d="M2343.59 1889.39L2343.61 1889.46" stroke="#EC9F5E" stroke-width="22.32" stroke-linecap="round" stroke-linejoin="bevel"/>
<path d="M2294.34 1644.74C2303.34 1635.74 2303.34 1621.15 2294.34 1612.15C2285.34 1603.15 2270.76 1603.15 2261.76 1612.15C2252.76 1621.15 2252.76 1635.74 2261.76 1644.74C2270.76 1653.74 2285.34 1653.74 2294.34 1644.74Z" fill="#FBA256"/>
<path d="M2278.05 1643.57C2286.4 1643.57 2293.18 1636.8 2293.18 1628.44C2293.18 1620.09 2286.4 1613.31 2278.05 1613.31C2269.7 1613.31 2262.92 1620.09 2262.92 1628.44C2262.92 1636.8 2269.7 1643.57 2278.05 1643.57Z" fill="#5A3516"/>
<path d="M2412.06 1897.02H2144.04V1920.98H2412.06V1897.02Z" fill="#FBA256"/>
<path d="M2329.11 1909H2227.63V1920.98H2329.11V1909Z" fill="#E38739"/>
<path d="M2838.18 1569.61H2877.02V1587.01C2877.02 1591.34 2875.3 1595.5 2872.23 1598.57C2869.16 1601.64 2865.01 1603.36 2860.67 1603.36H2854.53C2850.19 1603.36 2846.03 1601.64 2842.97 1598.57C2839.9 1595.5 2838.18 1591.34 2838.18 1587.01V1569.61H2838.18Z" fill="#E38739"/>
<path d="M2952.89 1621.9H2991.73V1639.3C2991.73 1643.64 2990.01 1647.8 2986.94 1650.87C2983.88 1653.93 2979.72 1655.66 2975.38 1655.66H2969.24C2964.9 1655.66 2960.74 1653.93 2957.68 1650.87C2954.61 1647.8 2952.89 1643.64 2952.89 1639.3V1621.9H2952.89Z" fill="#D2C09F"/>
<path d="M2980.64 1746H3019.48V1763.4C3019.48 1767.74 3017.75 1771.9 3014.69 1774.97C3011.62 1778.03 3007.46 1779.76 3003.13 1779.76H2996.98C2992.65 1779.76 2988.49 1778.03 2985.42 1774.97C2982.36 1771.9 2980.63 1767.74 2980.63 1763.4V1746H2980.64Z" fill="#FBA256"/>
<path d="M2900.75 1844.91H2939.59V1862.29C2939.59 1866.63 2937.87 1870.79 2934.8 1873.86C2931.74 1876.93 2927.58 1878.65 2923.24 1878.65H2917.1C2912.76 1878.65 2908.6 1876.93 2905.54 1873.86C2902.47 1870.79 2900.75 1866.63 2900.75 1862.29V1844.91H2900.75Z" fill="#E38739"/>
<path d="M2774.75 1844.91H2813.59V1862.29C2813.59 1866.63 2811.87 1870.79 2808.81 1873.86C2805.74 1876.93 2801.58 1878.65 2797.24 1878.65H2791.1C2788.95 1878.65 2786.83 1878.23 2784.84 1877.4C2782.86 1876.58 2781.06 1875.38 2779.54 1873.86C2778.02 1872.34 2776.82 1870.54 2776 1868.55C2775.17 1866.57 2774.75 1864.44 2774.75 1862.29V1844.91H2774.75Z" fill="#FBA256"/>
<path d="M2695.73 1746H2734.57V1763.4C2734.57 1767.74 2732.85 1771.9 2729.78 1774.97C2726.72 1778.03 2722.56 1779.75 2718.23 1779.75H2712.08C2709.94 1779.75 2707.81 1779.33 2705.83 1778.51C2703.84 1777.69 2702.04 1776.48 2700.52 1774.96C2699 1773.45 2697.8 1771.64 2696.98 1769.66C2696.16 1767.67 2695.73 1765.55 2695.73 1763.4V1746V1746Z" fill="#D2C09F"/>
<path d="M2722.13 1621.9H2760.97V1639.3C2760.97 1643.64 2759.25 1647.8 2756.18 1650.86C2753.12 1653.93 2748.96 1655.65 2744.62 1655.65H2738.48C2734.14 1655.65 2729.98 1653.93 2726.92 1650.86C2723.85 1647.8 2722.13 1643.64 2722.13 1639.3V1621.9Z" fill="#FBA256"/>
<path d="M2923.6 1901.31H2791.61L2785.57 1920.98H2929.64L2923.6 1901.31Z" fill="#5A3516"/>
<path d="M2857.6 1583.94L2743.37 1638.97L2715.15 1762.62L2794.21 1861.78H2921L3000.06 1762.62L2971.84 1638.97L2857.6 1583.94Z" stroke="#5A3516" stroke-width="15.75" stroke-miterlimit="10"/>
<path d="M2857.6 1580.71V1728.85" stroke="#5A3516" stroke-width="15.75" stroke-miterlimit="10"/>
<path d="M2740.6 1638.04L2857.61 1728.85" stroke="#5A3516" stroke-width="15.75" stroke-miterlimit="10"/>
<path d="M2713.53 1763.11L2857.6 1728.85" stroke="#5A3516" stroke-width="15.75" stroke-miterlimit="10"/>
<path d="M2793.81 1862.54L2857.6 1728.85" stroke="#5A3516" stroke-width="15.75" stroke-miterlimit="10"/>
<path d="M2920.69 1862.87L2857.61 1728.85" stroke="#5A3516" stroke-width="15.75" stroke-miterlimit="10"/>
<path d="M3001.65 1763.26L2857.61 1728.85" stroke="#5A3516" stroke-width="15.75" stroke-miterlimit="10"/>
<path d="M2974.1 1637.38L2857.6 1728.85" stroke="#5A3516" stroke-width="15.75" stroke-miterlimit="10"/>
<path d="M2857.6 1876.98C2939.39 1876.98 3005.7 1810.66 3005.7 1728.85C3005.7 1647.03 2939.39 1580.71 2857.6 1580.71C2775.81 1580.71 2709.51 1647.03 2709.51 1728.85C2709.51 1810.66 2775.81 1876.98 2857.6 1876.98Z" stroke="#EC9F5E" stroke-width="15.75" stroke-miterlimit="10"/>
<path d="M2855.34 1771.86L2828.79 1796.4C2828.31 1796.85 2827.69 1797.15 2827.03 1797.25C2826.37 1797.35 2825.7 1797.24 2825.1 1796.96C2824.5 1796.67 2824 1796.2 2823.66 1795.63C2823.33 1795.05 2823.18 1794.39 2823.22 1793.72L2825.85 1757.65C2825.91 1756.82 2825.66 1756 2825.14 1755.34C2824.62 1754.69 2823.87 1754.26 2823.04 1754.13L2787.31 1748.67C2786.65 1748.57 2786.03 1748.27 2785.55 1747.82C2785.06 1747.36 2784.72 1746.77 2784.57 1746.12C2784.42 1745.47 2784.47 1744.79 2784.71 1744.17C2784.96 1743.55 2785.38 1743.02 2785.93 1742.64L2815.76 1722.21C2816.45 1721.74 2816.93 1721.02 2817.12 1720.21C2817.31 1719.39 2817.18 1718.54 2816.76 1717.81L2798.75 1686.46C2798.42 1685.88 2798.27 1685.22 2798.32 1684.56C2798.37 1683.89 2798.62 1683.26 2799.03 1682.74C2799.44 1682.22 2800 1681.83 2800.64 1681.64C2801.27 1681.44 2801.95 1681.43 2802.59 1681.63L2837.17 1692.22C2837.97 1692.46 2838.83 1692.39 2839.58 1692.03C2840.33 1691.67 2840.92 1691.03 2841.23 1690.26L2854.5 1656.63C2854.75 1656.01 2855.17 1655.48 2855.72 1655.1C2856.28 1654.73 2856.93 1654.53 2857.59 1654.53C2858.26 1654.53 2858.91 1654.73 2859.46 1655.1C2860.01 1655.48 2860.44 1656.01 2860.68 1656.63L2873.96 1690.26C2874.27 1691.03 2874.86 1691.67 2875.61 1692.03C2876.36 1692.39 2877.22 1692.46 2878.02 1692.22L2912.6 1681.63C2913.24 1681.43 2913.92 1681.44 2914.55 1681.64C2915.19 1681.83 2915.75 1682.22 2916.16 1682.74C2916.57 1683.26 2916.82 1683.89 2916.87 1684.56C2916.92 1685.22 2916.77 1685.88 2916.44 1686.46L2898.43 1717.81C2898.01 1718.54 2897.89 1719.39 2898.07 1720.21C2898.26 1721.02 2898.74 1721.74 2899.43 1722.21L2929.26 1742.64C2929.81 1743.02 2930.24 1743.55 2930.48 1744.17C2930.72 1744.79 2930.77 1745.47 2930.63 1746.12C2930.48 1746.77 2930.14 1747.36 2929.65 1747.82C2929.16 1748.27 2928.55 1748.57 2927.89 1748.67L2892.15 1754.13C2891.33 1754.26 2890.58 1754.69 2890.06 1755.34C2889.53 1756 2889.28 1756.82 2889.34 1757.65L2891.97 1793.72C2892.02 1794.39 2891.86 1795.05 2891.53 1795.63C2891.2 1796.2 2890.7 1796.67 2890.1 1796.96C2889.49 1797.24 2888.82 1797.35 2888.16 1797.25C2887.5 1797.15 2886.89 1796.85 2886.4 1796.4L2859.85 1771.86C2859.24 1771.29 2858.43 1770.98 2857.59 1770.98C2856.76 1770.98 2855.95 1771.29 2855.34 1771.86Z" fill="#E38739"/>
<path d="M2857.6 1748.73C2868.58 1748.73 2877.49 1739.83 2877.49 1728.85C2877.49 1717.86 2868.58 1708.96 2857.6 1708.96C2846.62 1708.96 2837.72 1717.86 2837.72 1728.85C2837.72 1739.83 2846.62 1748.73 2857.6 1748.73Z" fill="#5A3516"/>
<path d="M2857.6 1757.14C2873.22 1757.14 2885.89 1744.47 2885.89 1728.85C2885.89 1713.22 2873.22 1700.55 2857.6 1700.55C2841.98 1700.55 2829.32 1713.22 2829.32 1728.85C2829.32 1744.47 2841.98 1757.14 2857.6 1757.14Z" stroke="#EDE5D6" stroke-width="15.75" stroke-linecap="round" stroke-linejoin="round" stroke-dasharray="0.46 34.24"/>
<path d="M2857.6 1718.28C2854.87 1718.28 2852.24 1719.29 2850.2 1721.11C2848.17 1722.94 2846.88 1725.45 2846.59 1728.17L2825.65 1920.98H2889.56L2868.64 1728.17C2868.34 1725.45 2867.05 1722.93 2865.01 1721.11C2862.98 1719.28 2860.34 1718.27 2857.6 1718.28Z" fill="#D2C09F"/>
<path d="M2857.6 1920.98V1761.04" stroke="#E38739" stroke-width="15.75" stroke-miterlimit="10"/>
<path d="M2869.68 1920.98V1841.01" stroke="#E38739" stroke-width="15.75" stroke-miterlimit="10"/>
<path d="M2845.53 1920.98V1841.01" stroke="#E38739" stroke-width="15.75" stroke-miterlimit="10"/>
<path d="M2857.6 1733.42C2860.13 1733.42 2862.18 1731.37 2862.18 1728.85C2862.18 1726.32 2860.13 1724.27 2857.6 1724.27C2855.08 1724.27 2853.03 1726.32 2853.03 1728.85C2853.03 1731.37 2855.08 1733.42 2857.6 1733.42Z" fill="#5A3516"/>
<path d="M3157.04 1800.9C3161.38 1793.31 3163.65 1784.71 3163.65 1775.97C3163.64 1767.22 3161.35 1758.63 3157 1751.04C3152.08 1742.34 3149.51 1732.49 3149.56 1722.49C3149.56 1722.42 3149.56 1722.36 3149.56 1722.29C3149.61 1717.5 3148.7 1712.75 3146.9 1708.31C3145.1 1703.87 3142.44 1699.83 3139.07 1696.43C3135.7 1693.03 3131.69 1690.33 3127.27 1688.48C3122.85 1686.64 3118.11 1685.69 3113.32 1685.69C3108.53 1685.69 3103.79 1686.64 3099.37 1688.48C3094.95 1690.33 3090.94 1693.03 3087.57 1696.43C3084.2 1699.83 3081.53 1703.87 3079.73 1708.31C3077.93 1712.75 3077.03 1717.5 3077.07 1722.29C3077.07 1722.35 3077.07 1722.42 3077.07 1722.49C3077.12 1732.5 3074.54 1742.35 3069.58 1751.04C3065.25 1758.64 3062.97 1767.23 3062.98 1775.98C3062.98 1784.72 3065.27 1793.32 3069.62 1800.9C3074.54 1809.61 3077.11 1819.45 3077.06 1829.46C3077.07 1829.53 3077.07 1829.6 3077.06 1829.66C3077.15 1839.22 3081.01 1848.36 3087.8 1855.08C3094.58 1861.81 3103.75 1865.58 3113.31 1865.58C3122.86 1865.58 3132.03 1861.81 3138.82 1855.08C3145.6 1848.36 3149.46 1839.22 3149.55 1829.66C3149.55 1829.59 3149.55 1829.53 3149.55 1829.46C3149.51 1819.45 3152.09 1809.6 3157.04 1800.9Z" fill="#765132"/>
<path d="M3131.21 1748.86C3129.08 1751.57 3126.37 1753.76 3123.27 1755.27C3120.17 1756.78 3116.76 1757.56 3113.32 1757.56M3142.37 1776.44C3142.37 1784.15 3139.31 1791.54 3133.86 1796.99C3128.41 1802.44 3121.02 1805.5 3113.32 1805.5M3090.57 1818.33C3090.57 1821.32 3091.15 1824.28 3092.3 1827.04C3093.44 1829.81 3095.11 1832.31 3097.23 1834.43C3099.34 1836.54 3101.85 1838.22 3104.61 1839.36C3107.37 1840.51 3110.33 1841.09 3113.31 1841.09" stroke="#5A3516" stroke-width="15.62" stroke-linecap="round"/>
<path d="M3113.32 1901.31V1920.98" stroke="#5A3516" stroke-width="15.62"/>
<path d="M3113.32 1734V1901.31" stroke="#5A3516" stroke-width="15.62" stroke-linecap="round"/>
<path d="M2540.4 1669.62C2545.73 1668.43 2550.75 1666.11 2555.11 1662.81C2559.47 1659.51 2563.07 1655.31 2565.66 1650.49C2569.04 1644.21 2573.91 1638.85 2579.84 1634.89C2585.78 1630.93 2592.59 1628.49 2599.69 1627.79C2606.79 1627.09 2613.95 1628.15 2620.54 1630.88C2627.14 1633.6 2632.96 1637.9 2637.49 1643.41C2640.76 1647.38 2644.81 1650.64 2649.37 1653C2653.94 1655.36 2658.94 1656.77 2664.07 1657.14C2678.94 1658.32 2690.74 1670.62 2690.74 1685.8C2690.76 1690.61 2689.57 1695.35 2687.27 1699.58C2684.98 1703.8 2681.66 1707.39 2677.61 1709.99C2673.57 1712.59 2668.94 1714.14 2664.14 1714.48C2659.34 1714.81 2654.54 1713.94 2650.17 1711.93C2645.48 1709.83 2640.41 1708.7 2635.27 1708.61C2630.13 1708.51 2625.02 1709.45 2620.25 1711.38C2609.56 1715.7 2597.59 1715.6 2586.98 1711.1C2581.95 1709.01 2576.53 1708.01 2571.08 1708.2C2565.64 1708.38 2560.3 1709.73 2555.42 1712.16C2552.26 1713.69 2548.8 1714.51 2545.29 1714.55C2539.7 1714.53 2534.3 1712.46 2530.14 1708.72C2525.98 1704.98 2523.35 1699.84 2522.74 1694.27C2522.14 1688.71 2523.6 1683.12 2526.86 1678.57C2530.12 1674.02 2534.93 1670.83 2540.39 1669.62H2540.4Z" fill="#765132"/>
<path d="M2609.07 1897.02L2609.16 1920.98" stroke="#5A3516" stroke-width="15.62" stroke-linejoin="round"/>
<path d="M2608.17 1673.73L2609.07 1897.02" stroke="#5A3516" stroke-width="15.62" stroke-linecap="round" stroke-linejoin="round"/>
<path d="M2538.84 1789.87C2540.54 1795.21 2543.52 1800.05 2547.54 1803.96C2551.55 1807.87 2556.46 1810.73 2561.84 1812.29C2567.22 1813.85 2572.9 1814.06 2578.38 1812.9C2583.86 1811.74 2588.97 1809.25 2593.26 1805.65C2596.38 1803.07 2599.98 1801.16 2603.85 1800.01C2607.72 1798.86 2611.79 1798.5 2615.8 1798.96C2618.99 1799.31 2622.23 1799 2625.29 1798.03C2630.87 1796.26 2635.55 1792.39 2638.32 1787.24C2641.1 1782.08 2641.77 1776.05 2640.18 1770.41C2638.59 1764.78 2634.87 1759.98 2629.81 1757.04C2624.74 1754.1 2618.74 1753.25 2613.05 1754.66C2609.12 1755.57 2605.03 1755.68 2601.05 1755C2597.06 1754.31 2593.26 1752.83 2589.85 1750.66C2581.56 1745.49 2571.09 1743.61 2560.94 1746.87C2556.67 1748.24 2552.71 1750.44 2549.28 1753.35C2545.86 1756.25 2543.04 1759.8 2540.99 1763.79C2538.93 1767.78 2537.69 1772.14 2537.32 1776.62C2536.95 1781.09 2537.47 1785.6 2538.84 1789.87Z" fill="#765132"/>
<path d="M2608.17 1840.82L2559.84 1792.47" stroke="#5A3516" stroke-width="15.62" stroke-linecap="round" stroke-linejoin="round"/>
<path d="M2590.58 1823.22V1783.6" stroke="#5A3516" stroke-width="15.62" stroke-linecap="round" stroke-linejoin="round"/>
<path d="M2608.17 1740.43L2658.16 1690.42" stroke="#5A3516" stroke-width="15.62" stroke-linecap="round" stroke-linejoin="round"/>
<path d="M2608.67 1702.53L2584 1680.76" stroke="#5A3516" stroke-width="15.62" stroke-linecap="round" stroke-linejoin="round"/>
</g>
<g opacity="0.75">
<path d="M1127.98 1897.02V1894.78C1127.98 1890.03 1126.09 1885.47 1122.73 1882.1C1119.37 1878.74 1114.81 1876.85 1110.05 1876.85H1033.6V1897.02M1202.14 1897.02V1894.78C1202.14 1890.03 1204.03 1885.47 1207.39 1882.1C1210.76 1878.74 1215.32 1876.85 1220.07 1876.85H1296.51V1897.02" stroke="#5A3516" stroke-width="15.63" stroke-miterlimit="10"/>
<path d="M945.651 1686.03H983.883V1700.17C983.883 1703.89 982.407 1707.46 979.779 1710.09C977.151 1712.71 973.587 1714.19 969.87 1714.19H959.664C955.948 1714.19 952.383 1712.71 949.756 1710.09C947.128 1707.46 945.651 1703.89 945.651 1700.17V1686.03Z" fill="#D2C09F"/>
<path d="M958.271 1686.03H971.298V1692.55C971.298 1694.27 970.612 1695.93 969.391 1697.15C968.17 1698.37 966.513 1699.06 964.786 1699.06C963.931 1699.06 963.084 1698.89 962.294 1698.56C961.504 1698.24 960.786 1697.76 960.181 1697.15C959.576 1696.55 959.096 1695.83 958.768 1695.04C958.441 1694.25 958.272 1693.4 958.271 1692.55V1686.03Z" fill="#5A3516"/>
<path d="M964.77 1686.03V1662.92" stroke="#5A3516" stroke-width="15.63" stroke-miterlimit="10"/>
<path d="M1015.21 1807.03H1053.45V1821.17C1053.45 1824.89 1051.97 1828.45 1049.34 1831.08C1046.72 1833.71 1043.15 1835.19 1039.43 1835.19H1029.22C1025.51 1835.19 1021.94 1833.71 1019.31 1831.08C1016.69 1828.45 1015.21 1824.89 1015.21 1821.17V1807.03Z" fill="#E38739"/>
<path d="M1034.33 1820.06C1032.6 1820.06 1030.94 1819.37 1029.72 1818.15C1028.5 1816.93 1027.81 1815.27 1027.81 1813.54V1807.03H1040.84V1813.54C1040.84 1814.4 1040.67 1815.25 1040.34 1816.04C1040.02 1816.83 1039.54 1817.55 1038.93 1818.15C1038.33 1818.76 1037.61 1819.24 1036.82 1819.56C1036.03 1819.89 1035.18 1820.06 1034.33 1820.06Z" fill="#5A3516"/>
<path d="M1034.33 1807.03V1783.91" stroke="#5A3516" stroke-width="15.63" stroke-miterlimit="10"/>
<path d="M1145.94 1854.31H1184.18V1868.46C1184.18 1872.17 1182.7 1875.74 1180.07 1878.37C1177.44 1881 1173.88 1882.47 1170.16 1882.47H1159.96C1156.25 1882.47 1152.68 1881 1150.05 1878.37C1147.43 1875.74 1145.95 1872.17 1145.95 1868.46V1854.31H1145.94Z" fill="#FBA256"/>
<path d="M1158.54 1854.31H1171.57V1860.83C1171.57 1862.56 1170.88 1864.21 1169.66 1865.43C1168.44 1866.66 1166.78 1867.34 1165.06 1867.34C1163.33 1867.34 1161.67 1866.66 1160.45 1865.43C1159.23 1864.21 1158.55 1862.56 1158.55 1860.83V1854.31H1158.54Z" fill="#5A3516"/>
<path d="M1165.06 1854.31V1831.2" stroke="#5A3516" stroke-width="15.63" stroke-miterlimit="10"/>
<path d="M1276.66 1807.03H1314.9V1821.17C1314.9 1824.89 1313.42 1828.45 1310.79 1831.08C1308.17 1833.71 1304.6 1835.19 1300.89 1835.19H1290.68C1286.96 1835.19 1283.4 1833.71 1280.77 1831.08C1278.14 1828.45 1276.66 1824.89 1276.66 1821.17V1807.03H1276.66Z" fill="#D2C09F"/>
<path d="M1289.26 1807.03H1302.29V1813.54C1302.29 1815.27 1301.6 1816.92 1300.38 1818.15C1299.16 1819.37 1297.51 1820.05 1295.78 1820.05C1294.05 1820.05 1292.4 1819.37 1291.17 1818.15C1289.95 1816.92 1289.27 1815.27 1289.27 1813.54V1807.03H1289.26Z" fill="#5A3516"/>
<path d="M1295.78 1807.03V1783.91" stroke="#5A3516" stroke-width="15.63" stroke-miterlimit="10"/>
<path d="M1346.21 1686.88H1384.45V1701.03C1384.45 1702.87 1384.09 1704.69 1383.39 1706.39C1382.68 1708.09 1381.65 1709.64 1380.35 1710.94C1379.05 1712.24 1377.5 1713.27 1375.8 1713.98C1374.1 1714.68 1372.28 1715.04 1370.44 1715.04H1360.23C1358.39 1715.04 1356.57 1714.68 1354.87 1713.98C1353.17 1713.27 1351.62 1712.24 1350.32 1710.94C1349.02 1709.64 1347.99 1708.09 1347.28 1706.39C1346.58 1704.69 1346.22 1702.87 1346.22 1701.03V1686.88H1346.21Z" fill="#E38739"/>
<path d="M1365.33 1699.93C1363.61 1699.93 1361.95 1699.24 1360.73 1698.02C1359.51 1696.8 1358.82 1695.14 1358.82 1693.42V1686.9H1371.85V1693.42C1371.85 1694.27 1371.68 1695.12 1371.35 1695.91C1371.03 1696.7 1370.55 1697.42 1369.94 1698.02C1369.34 1698.63 1368.62 1699.11 1367.83 1699.44C1367.04 1699.76 1366.19 1699.93 1365.33 1699.93Z" fill="#5A3516"/>
<path d="M1365.33 1686.88V1663.77" stroke="#5A3516" stroke-width="15.63" stroke-miterlimit="10"/>
<path d="M1322.06 1549.84H1360.3V1563.98C1360.3 1565.82 1359.94 1567.65 1359.23 1569.35C1358.53 1571.05 1357.5 1572.59 1356.2 1573.9C1354.9 1575.2 1353.35 1576.23 1351.65 1576.94C1349.95 1577.64 1348.13 1578 1346.29 1578H1336.08C1332.36 1578 1328.8 1576.53 1326.17 1573.9C1323.54 1571.27 1322.07 1567.7 1322.07 1563.99V1549.84H1322.06Z" fill="#FBA256"/>
<path d="M1334.66 1549.84H1347.69V1556.36C1347.69 1557.21 1347.52 1558.06 1347.19 1558.85C1346.86 1559.64 1346.38 1560.36 1345.78 1560.96C1345.17 1561.57 1344.45 1562.05 1343.66 1562.37C1342.87 1562.7 1342.02 1562.87 1341.17 1562.87C1339.44 1562.87 1337.78 1562.18 1336.56 1560.96C1335.34 1559.74 1334.65 1558.08 1334.65 1556.35V1549.84H1334.66Z" fill="#5A3516"/>
<path d="M1341.18 1549.84V1526.73" stroke="#5A3516" stroke-width="15.63" stroke-miterlimit="10"/>
<path d="M1215.49 1460.39H1253.73V1474.53C1253.73 1476.37 1253.37 1478.2 1252.67 1479.9C1251.96 1481.6 1250.93 1483.15 1249.63 1484.46C1248.33 1485.76 1246.78 1486.79 1245.08 1487.5C1243.38 1488.21 1241.56 1488.57 1239.71 1488.57H1229.51C1225.79 1488.57 1222.22 1487.09 1219.6 1484.46C1216.97 1481.84 1215.49 1478.27 1215.49 1474.55V1460.39H1215.49Z" fill="#D2C09F"/>
<path d="M1228.1 1460.39H1241.12V1466.9C1241.12 1468.63 1240.44 1470.29 1239.22 1471.51C1238 1472.73 1236.34 1473.42 1234.61 1473.42C1232.88 1473.42 1231.23 1472.73 1230.01 1471.51C1228.79 1470.29 1228.1 1468.63 1228.1 1466.9V1460.39H1228.1Z" fill="#5A3516"/>
<path d="M1234.61 1460.39V1437.28" stroke="#5A3516" stroke-width="15.63" stroke-miterlimit="10"/>
<path d="M969.797 1551.31H1008.04V1565.45C1008.04 1569.17 1006.57 1572.74 1003.94 1575.37C1001.31 1577.99 997.748 1579.47 994.032 1579.47H983.822C981.981 1579.47 980.157 1579.11 978.456 1578.41C976.754 1577.7 975.208 1576.67 973.905 1575.37C972.603 1574.07 971.57 1572.52 970.865 1570.82C970.16 1569.12 969.797 1567.3 969.797 1565.45V1551.31Z" fill="#E38739"/>
<path d="M988.925 1564.34C987.198 1564.34 985.542 1563.65 984.321 1562.43C983.1 1561.21 982.414 1559.55 982.414 1557.83V1551.31H995.44V1557.83C995.44 1559.55 994.754 1561.21 993.532 1562.43C992.31 1563.66 990.653 1564.34 988.925 1564.34Z" fill="#5A3516"/>
<path d="M988.925 1551.31V1528.2" stroke="#5A3516" stroke-width="15.63" stroke-miterlimit="10"/>
<path d="M1076.38 1460.39H1114.61V1474.53C1114.62 1476.37 1114.26 1478.2 1113.55 1479.9C1112.85 1481.61 1111.82 1483.15 1110.52 1484.46C1109.22 1485.76 1107.67 1486.8 1105.97 1487.5C1104.27 1488.21 1102.44 1488.57 1100.6 1488.57H1090.39C1086.67 1488.57 1083.11 1487.09 1080.48 1484.46C1077.85 1481.84 1076.38 1478.27 1076.38 1474.55V1460.39Z" fill="#FBA256"/>
<path d="M1095.5 1473.42C1094.64 1473.42 1093.79 1473.25 1093 1472.93C1092.21 1472.6 1091.49 1472.12 1090.89 1471.52C1090.28 1470.91 1089.8 1470.19 1089.48 1469.4C1089.15 1468.61 1088.98 1467.76 1088.98 1466.91V1460.39H1102.02V1466.9C1102.02 1467.76 1101.85 1468.61 1101.52 1469.4C1101.19 1470.19 1100.71 1470.91 1100.11 1471.52C1099.5 1472.12 1098.78 1472.6 1097.99 1472.93C1097.2 1473.26 1096.35 1473.42 1095.5 1473.42Z" fill="#5A3516"/>
<path d="M1095.5 1460.39V1437.28" stroke="#5A3516" stroke-width="15.63" stroke-miterlimit="10"/>
<path d="M988.925 1526.73L964.77 1663.77" stroke="#5A3516" stroke-width="15.63" stroke-miterlimit="10"/>
<path d="M964.77 1663.77L1034.33 1784.28" stroke="#5A3516" stroke-width="15.63" stroke-miterlimit="10"/>
<path d="M1034.33 1784.28L1165.05 1831.88" stroke="#5A3516" stroke-width="15.63" stroke-miterlimit="10"/>
<path d="M1165.05 1831.88L1295.78 1784.28" stroke="#5A3516" stroke-width="15.63" stroke-miterlimit="10"/>
<path d="M1295.78 1784.28L1365.33 1663.77" stroke="#5A3516" stroke-width="15.63" stroke-miterlimit="10"/>
<path d="M1365.33 1663.77L1341.18 1526.73" stroke="#5A3516" stroke-width="15.63" stroke-miterlimit="10"/>
<path d="M1341.18 1526.73L1234.61 1437.28" stroke="#5A3516" stroke-width="15.63" stroke-miterlimit="10"/>
<path d="M1234.61 1437.28H1095.5" stroke="#5A3516" stroke-width="15.63" stroke-miterlimit="10"/>
<path d="M988.925 1526.73L1095.5 1437.28" stroke="#5A3516" stroke-width="15.63" stroke-miterlimit="10"/>
<path d="M1157.49 1615.34L1341.18 1526.73L1172.62 1641.55" stroke="#162A5A" stroke-width="15.63" stroke-miterlimit="10"/>
<path d="M1150.84 1623.27L1234.61 1437.28L1179.27 1633.62" stroke="#162A5A" stroke-width="15.63" stroke-miterlimit="10"/>
<path d="M1150.84 1633.62L1095.5 1437.28L1179.27 1623.27" stroke="#162A5A" stroke-width="15.63" stroke-miterlimit="10"/>
<path d="M1157.49 1641.55L988.925 1526.73L1172.62 1615.34" stroke="#162A5A" stroke-width="15.63" stroke-miterlimit="10"/>
<path d="M1167.68 1643.35L964.77 1663.77L1162.43 1613.54" stroke="#162A5A" stroke-width="15.63" stroke-miterlimit="10"/>
<path d="M1176.64 1638.17L1034.33 1784.28L1153.46 1618.72" stroke="#162A5A" stroke-width="15.63" stroke-miterlimit="10"/>
<path d="M1180.18 1628.44L1165.05 1831.88L1149.92 1628.44" stroke="#162A5A" stroke-width="15.63" stroke-miterlimit="10"/>
<path d="M1176.64 1618.72L1295.78 1784.28L1153.46 1638.17" stroke="#162A5A" stroke-width="15.63" stroke-miterlimit="10"/>
<path d="M1167.68 1613.54L1365.33 1663.77L1162.43 1643.35" stroke="#162A5A" stroke-width="15.63" stroke-miterlimit="10"/>
<path d="M1165.05 1831.88C1277.37 1831.88 1368.42 1740.8 1368.42 1628.44C1368.42 1516.09 1277.37 1425.01 1165.05 1425.01C1052.73 1425.01 961.678 1516.09 961.678 1628.44C961.678 1740.8 1052.73 1831.88 1165.05 1831.88Z" stroke="#E38739" stroke-width="15.63" stroke-miterlimit="10"/>
<path d="M1165.05 1674.89C1190.7 1674.89 1211.48 1654.1 1211.48 1628.44C1211.48 1602.79 1190.7 1581.99 1165.05 1581.99C1139.41 1581.99 1118.62 1602.79 1118.62 1628.44C1118.62 1654.1 1139.41 1674.89 1165.05 1674.89Z" fill="#5A3516"/>
<path d="M1222.82 1902.47L1165.05 1672.45L1107.29 1902.47L1086.49 1897.25L1154.66 1625.83H1175.45L1243.62 1897.25L1222.82 1902.47Z" fill="#E38739"/>
<path d="M1099.5 1889.46L1099.52 1889.39" stroke="#EC9F5E" stroke-width="22.32" stroke-linecap="round" stroke-linejoin="bevel"/>
<path d="M1102.94 1875.79L1163.33 1635.31" stroke="#EC9F5E" stroke-width="22.32" stroke-linecap="round" stroke-linejoin="bevel" stroke-dasharray="0.44 43.79"/>
<path d="M1165.04 1628.51L1165.05 1628.45L1165.07 1628.51" stroke="#ECC35E" stroke-width="22.32" stroke-linecap="round" stroke-linejoin="bevel"/>
<path d="M1168.49 1642.11L1228.88 1882.59" stroke="#EC9F5E" stroke-width="22.32" stroke-linecap="round" stroke-linejoin="bevel" stroke-dasharray="0.44 43.79"/>
<path d="M1230.59 1889.39L1230.61 1889.46" stroke="#EC9F5E" stroke-width="22.32" stroke-linecap="round" stroke-linejoin="bevel"/>
<path d="M1181.34 1644.74C1190.34 1635.74 1190.34 1621.15 1181.34 1612.15C1172.34 1603.15 1157.76 1603.15 1148.76 1612.15C1139.76 1621.15 1139.76 1635.74 1148.76 1644.74C1157.76 1653.74 1172.34 1653.74 1181.34 1644.74Z" fill="#FBA256"/>
<path d="M1165.05 1643.57C1173.4 1643.57 1180.18 1636.8 1180.18 1628.44C1180.18 1620.09 1173.4 1613.31 1165.05 1613.31C1156.7 1613.31 1149.92 1620.09 1149.92 1628.44C1149.92 1636.8 1156.7 1643.57 1165.05 1643.57Z" fill="#5A3516"/>
<path d="M1299.06 1897.02H1031.04V1920.98H1299.06V1897.02Z" fill="#FBA256"/>
<path d="M1216.11 1909H1114.63V1920.98H1216.11V1909Z" fill="#E38739"/>
<path d="M1725.18 1569.61H1764.02V1587.01C1764.02 1591.34 1762.3 1595.5 1759.23 1598.57C1756.16 1601.64 1752.01 1603.36 1747.67 1603.36H1741.53C1737.19 1603.36 1733.03 1601.64 1729.97 1598.57C1726.9 1595.5 1725.18 1591.34 1725.18 1587.01V1569.61H1725.18Z" fill="#E38739"/>
<path d="M1839.89 1621.9H1878.73V1639.3C1878.73 1643.64 1877.01 1647.8 1873.94 1650.87C1870.88 1653.93 1866.72 1655.66 1862.38 1655.66H1856.24C1851.9 1655.66 1847.74 1653.93 1844.68 1650.87C1841.61 1647.8 1839.89 1643.64 1839.89 1639.3V1621.9H1839.89Z" fill="#D2C09F"/>
<path d="M1867.64 1746H1906.48V1763.4C1906.48 1767.74 1904.75 1771.9 1901.69 1774.97C1898.62 1778.03 1894.46 1779.76 1890.13 1779.76H1883.98C1879.65 1779.76 1875.49 1778.03 1872.42 1774.97C1869.36 1771.9 1867.63 1767.74 1867.63 1763.4V1746H1867.64Z" fill="#FBA256"/>
<path d="M1787.75 1844.91H1826.59V1862.29C1826.59 1866.63 1824.87 1870.79 1821.8 1873.86C1818.74 1876.93 1814.58 1878.65 1810.24 1878.65H1804.1C1799.76 1878.65 1795.6 1876.93 1792.54 1873.86C1789.47 1870.79 1787.75 1866.63 1787.75 1862.29V1844.91H1787.75Z" fill="#E38739"/>
<path d="M1661.75 1844.91H1700.59V1862.29C1700.59 1866.63 1698.87 1870.79 1695.81 1873.86C1692.74 1876.93 1688.58 1878.65 1684.24 1878.65H1678.1C1675.95 1878.65 1673.83 1878.23 1671.84 1877.4C1669.86 1876.58 1668.06 1875.38 1666.54 1873.86C1665.02 1872.34 1663.82 1870.54 1663 1868.55C1662.17 1866.57 1661.75 1864.44 1661.75 1862.29V1844.91H1661.75Z" fill="#FBA256"/>
<path d="M1582.73 1746H1621.57V1763.4C1621.57 1767.74 1619.85 1771.9 1616.78 1774.97C1613.72 1778.03 1609.56 1779.75 1605.23 1779.75H1599.08C1596.94 1779.75 1594.81 1779.33 1592.83 1778.51C1590.84 1777.69 1589.04 1776.48 1587.52 1774.96C1586 1773.45 1584.8 1771.64 1583.98 1769.66C1583.16 1767.67 1582.73 1765.55 1582.73 1763.4V1746V1746Z" fill="#D2C09F"/>
<path d="M1609.13 1621.9H1647.97V1639.3C1647.97 1643.64 1646.25 1647.8 1643.18 1650.86C1640.12 1653.93 1635.96 1655.65 1631.62 1655.65H1625.48C1621.14 1655.65 1616.98 1653.93 1613.92 1650.86C1610.85 1647.8 1609.13 1643.64 1609.13 1639.3V1621.9Z" fill="#FBA256"/>
<path d="M1810.6 1901.31H1678.61L1672.57 1920.98H1816.64L1810.6 1901.31Z" fill="#5A3516"/>
<path d="M1744.6 1583.94L1630.37 1638.97L1602.15 1762.62L1681.21 1861.78H1808L1887.06 1762.62L1858.84 1638.97L1744.6 1583.94Z" stroke="#5A3516" stroke-width="15.75" stroke-miterlimit="10"/>
<path d="M1744.6 1580.71V1728.85" stroke="#5A3516" stroke-width="15.75" stroke-miterlimit="10"/>
<path d="M1627.6 1638.04L1744.61 1728.85" stroke="#5A3516" stroke-width="15.75" stroke-miterlimit="10"/>
<path d="M1600.53 1763.11L1744.6 1728.85" stroke="#5A3516" stroke-width="15.75" stroke-miterlimit="10"/>
<path d="M1680.81 1862.54L1744.6 1728.85" stroke="#5A3516" stroke-width="15.75" stroke-miterlimit="10"/>
<path d="M1807.69 1862.87L1744.61 1728.85" stroke="#5A3516" stroke-width="15.75" stroke-miterlimit="10"/>
<path d="M1888.65 1763.26L1744.61 1728.85" stroke="#5A3516" stroke-width="15.75" stroke-miterlimit="10"/>
<path d="M1861.1 1637.38L1744.6 1728.85" stroke="#5A3516" stroke-width="15.75" stroke-miterlimit="10"/>
<path d="M1744.6 1876.98C1826.39 1876.98 1892.7 1810.66 1892.7 1728.85C1892.7 1647.03 1826.39 1580.71 1744.6 1580.71C1662.81 1580.71 1596.51 1647.03 1596.51 1728.85C1596.51 1810.66 1662.81 1876.98 1744.6 1876.98Z" stroke="#EC9F5E" stroke-width="15.75" stroke-miterlimit="10"/>
<path d="M1742.34 1771.86L1715.79 1796.4C1715.31 1796.85 1714.69 1797.15 1714.03 1797.25C1713.37 1797.35 1712.7 1797.24 1712.1 1796.96C1711.5 1796.67 1711 1796.2 1710.66 1795.63C1710.33 1795.05 1710.18 1794.39 1710.22 1793.72L1712.85 1757.65C1712.91 1756.82 1712.66 1756 1712.14 1755.34C1711.62 1754.69 1710.87 1754.26 1710.04 1754.13L1674.31 1748.67C1673.65 1748.57 1673.04 1748.27 1672.55 1747.82C1672.06 1747.36 1671.72 1746.77 1671.57 1746.12C1671.42 1745.47 1671.47 1744.79 1671.71 1744.17C1671.96 1743.55 1672.38 1743.02 1672.93 1742.64L1702.76 1722.21C1703.45 1721.74 1703.93 1721.02 1704.12 1720.21C1704.31 1719.39 1704.18 1718.54 1703.76 1717.81L1685.75 1686.46C1685.42 1685.88 1685.27 1685.22 1685.32 1684.56C1685.37 1683.89 1685.62 1683.26 1686.03 1682.74C1686.44 1682.22 1687 1681.83 1687.64 1681.64C1688.27 1681.44 1688.95 1681.43 1689.59 1681.63L1724.17 1692.22C1724.97 1692.46 1725.83 1692.39 1726.58 1692.03C1727.33 1691.67 1727.92 1691.03 1728.23 1690.26L1741.5 1656.63C1741.75 1656.01 1742.17 1655.48 1742.72 1655.1C1743.28 1654.73 1743.93 1654.53 1744.59 1654.53C1745.26 1654.53 1745.91 1654.73 1746.46 1655.1C1747.01 1655.48 1747.44 1656.01 1747.68 1656.63L1760.96 1690.26C1761.27 1691.03 1761.86 1691.67 1762.61 1692.03C1763.36 1692.39 1764.22 1692.46 1765.02 1692.22L1799.6 1681.63C1800.24 1681.43 1800.92 1681.44 1801.55 1681.64C1802.19 1681.83 1802.75 1682.22 1803.16 1682.74C1803.57 1683.26 1803.82 1683.89 1803.87 1684.56C1803.92 1685.22 1803.77 1685.88 1803.44 1686.46L1785.43 1717.81C1785.01 1718.54 1784.89 1719.39 1785.07 1720.21C1785.26 1721.02 1785.74 1721.74 1786.43 1722.21L1816.26 1742.64C1816.81 1743.02 1817.24 1743.55 1817.48 1744.17C1817.72 1744.79 1817.77 1745.47 1817.63 1746.12C1817.48 1746.77 1817.14 1747.36 1816.65 1747.82C1816.16 1748.27 1815.55 1748.57 1814.89 1748.67L1779.15 1754.13C1778.33 1754.26 1777.58 1754.69 1777.06 1755.34C1776.53 1756 1776.28 1756.82 1776.34 1757.65L1778.97 1793.72C1779.02 1794.39 1778.86 1795.05 1778.53 1795.63C1778.2 1796.2 1777.7 1796.67 1777.1 1796.96C1776.49 1797.24 1775.82 1797.35 1775.16 1797.25C1774.5 1797.15 1773.89 1796.85 1773.4 1796.4L1746.85 1771.86C1746.24 1771.29 1745.43 1770.98 1744.59 1770.98C1743.76 1770.98 1742.95 1771.29 1742.34 1771.86Z" fill="#E38739"/>
<path d="M1744.6 1748.73C1755.58 1748.73 1764.49 1739.83 1764.49 1728.85C1764.49 1717.86 1755.58 1708.96 1744.6 1708.96C1733.62 1708.96 1724.72 1717.86 1724.72 1728.85C1724.72 1739.83 1733.62 1748.73 1744.6 1748.73Z" fill="#5A3516"/>
<path d="M1744.6 1757.14C1760.22 1757.14 1772.89 1744.47 1772.89 1728.85C1772.89 1713.22 1760.22 1700.55 1744.6 1700.55C1728.98 1700.55 1716.32 1713.22 1716.32 1728.85C1716.32 1744.47 1728.98 1757.14 1744.6 1757.14Z" stroke="#EDE5D6" stroke-width="15.75" stroke-linecap="round" stroke-linejoin="round" stroke-dasharray="0.46 34.24"/>
<path d="M1744.6 1718.28C1741.87 1718.28 1739.24 1719.29 1737.2 1721.11C1735.17 1722.94 1733.88 1725.45 1733.59 1728.17L1712.65 1920.98H1776.56L1755.64 1728.17C1755.34 1725.45 1754.05 1722.93 1752.01 1721.11C1749.98 1719.28 1747.34 1718.27 1744.6 1718.28Z" fill="#D2C09F"/>
<path d="M1744.6 1920.98V1761.04" stroke="#E38739" stroke-width="15.75" stroke-miterlimit="10"/>
<path d="M1756.68 1920.98V1841.01" stroke="#E38739" stroke-width="15.75" stroke-miterlimit="10"/>
<path d="M1732.53 1920.98V1841.01" stroke="#E38739" stroke-width="15.75" stroke-miterlimit="10"/>
<path d="M1744.6 1733.42C1747.13 1733.42 1749.18 1731.37 1749.18 1728.85C1749.18 1726.32 1747.13 1724.27 1744.6 1724.27C1742.08 1724.27 1740.03 1726.32 1740.03 1728.85C1740.03 1731.37 1742.08 1733.42 1744.6 1733.42Z" fill="#5A3516"/>
<path d="M2044.04 1800.9C2048.38 1793.31 2050.65 1784.71 2050.65 1775.97C2050.64 1767.22 2048.35 1758.63 2044 1751.04C2039.08 1742.34 2036.51 1732.49 2036.56 1722.49C2036.56 1722.42 2036.56 1722.36 2036.56 1722.29C2036.61 1717.5 2035.7 1712.75 2033.9 1708.31C2032.1 1703.87 2029.44 1699.83 2026.07 1696.43C2022.7 1693.03 2018.69 1690.33 2014.27 1688.48C2009.85 1686.64 2005.11 1685.69 2000.32 1685.69C1995.53 1685.69 1990.79 1686.64 1986.37 1688.48C1981.95 1690.33 1977.94 1693.03 1974.57 1696.43C1971.2 1699.83 1968.53 1703.87 1966.73 1708.31C1964.93 1712.75 1964.03 1717.5 1964.07 1722.29C1964.07 1722.35 1964.07 1722.42 1964.07 1722.49C1964.12 1732.5 1961.54 1742.35 1956.58 1751.04C1952.25 1758.64 1949.97 1767.23 1949.98 1775.98C1949.98 1784.72 1952.27 1793.32 1956.62 1800.9C1961.54 1809.61 1964.11 1819.45 1964.06 1829.46C1964.07 1829.53 1964.07 1829.6 1964.06 1829.66C1964.15 1839.22 1968.01 1848.36 1974.8 1855.08C1981.58 1861.81 1990.75 1865.58 2000.31 1865.58C2009.86 1865.58 2019.03 1861.81 2025.82 1855.08C2032.6 1848.36 2036.46 1839.22 2036.55 1829.66C2036.55 1829.59 2036.55 1829.53 2036.55 1829.46C2036.51 1819.45 2039.09 1809.6 2044.04 1800.9Z" fill="#765132"/>
<path d="M2018.21 1748.86C2016.08 1751.57 2013.37 1753.76 2010.27 1755.27C2007.17 1756.78 2003.76 1757.56 2000.32 1757.56M2029.37 1776.44C2029.37 1784.15 2026.31 1791.54 2020.86 1796.99C2015.41 1802.44 2008.02 1805.5 2000.32 1805.5M1977.57 1818.33C1977.56 1821.32 1978.15 1824.28 1979.3 1827.04C1980.44 1829.81 1982.11 1832.31 1984.23 1834.43C1986.34 1836.54 1988.85 1838.22 1991.61 1839.36C1994.37 1840.51 1997.33 1841.09 2000.31 1841.09" stroke="#5A3516" stroke-width="15.62" stroke-linecap="round"/>
<path d="M2000.32 1901.31V1920.98" stroke="#5A3516" stroke-width="15.62"/>
<path d="M2000.32 1734V1901.31" stroke="#5A3516" stroke-width="15.62" stroke-linecap="round"/>
<path d="M1427.4 1669.62C1432.73 1668.43 1437.75 1666.11 1442.11 1662.81C1446.47 1659.51 1450.07 1655.31 1452.66 1650.49C1456.04 1644.21 1460.91 1638.85 1466.84 1634.89C1472.78 1630.93 1479.59 1628.49 1486.69 1627.79C1493.79 1627.09 1500.95 1628.15 1507.54 1630.88C1514.14 1633.6 1519.96 1637.9 1524.49 1643.41C1527.76 1647.38 1531.81 1650.64 1536.37 1653C1540.94 1655.36 1545.94 1656.77 1551.07 1657.14C1565.94 1658.32 1577.74 1670.62 1577.74 1685.8C1577.76 1690.61 1576.57 1695.35 1574.27 1699.58C1571.98 1703.8 1568.66 1707.39 1564.61 1709.99C1560.57 1712.59 1555.94 1714.14 1551.14 1714.48C1546.34 1714.81 1541.54 1713.94 1537.17 1711.93C1532.48 1709.83 1527.41 1708.7 1522.27 1708.61C1517.13 1708.51 1512.02 1709.45 1507.25 1711.38C1496.56 1715.7 1484.59 1715.6 1473.98 1711.1C1468.95 1709.01 1463.53 1708.01 1458.08 1708.2C1452.64 1708.38 1447.3 1709.73 1442.42 1712.16C1439.26 1713.69 1435.8 1714.51 1432.29 1714.55C1426.7 1714.53 1421.3 1712.46 1417.14 1708.72C1412.98 1704.98 1410.35 1699.84 1409.74 1694.27C1409.14 1688.71 1410.6 1683.12 1413.86 1678.57C1417.12 1674.02 1421.93 1670.83 1427.39 1669.62H1427.4Z" fill="#765132"/>
<path d="M1496.07 1897.02L1496.16 1920.98" stroke="#5A3516" stroke-width="15.62" stroke-linejoin="round"/>
<path d="M1495.17 1673.73L1496.07 1897.02" stroke="#5A3516" stroke-width="15.62" stroke-linecap="round" stroke-linejoin="round"/>
<path d="M1425.84 1789.87C1427.54 1795.21 1430.52 1800.05 1434.54 1803.96C1438.55 1807.87 1443.46 1810.73 1448.84 1812.29C1454.22 1813.85 1459.9 1814.06 1465.38 1812.9C1470.86 1811.74 1475.97 1809.25 1480.26 1805.65C1483.38 1803.07 1486.98 1801.16 1490.85 1800.01C1494.72 1798.86 1498.79 1798.5 1502.8 1798.96C1505.99 1799.31 1509.23 1799 1512.29 1798.03C1517.87 1796.26 1522.55 1792.39 1525.32 1787.24C1528.1 1782.08 1528.77 1776.05 1527.18 1770.41C1525.59 1764.78 1521.87 1759.98 1516.81 1757.04C1511.74 1754.1 1505.74 1753.25 1500.05 1754.66C1496.12 1755.57 1492.03 1755.68 1488.05 1755C1484.06 1754.31 1480.26 1752.83 1476.85 1750.66C1468.56 1745.49 1458.09 1743.61 1447.94 1746.87C1443.67 1748.24 1439.71 1750.44 1436.28 1753.35C1432.86 1756.25 1430.04 1759.8 1427.99 1763.79C1425.93 1767.78 1424.69 1772.14 1424.32 1776.62C1423.95 1781.09 1424.47 1785.6 1425.84 1789.87Z" fill="#765132"/>
<path d="M1495.17 1840.82L1446.84 1792.47" stroke="#5A3516" stroke-width="15.62" stroke-linecap="round" stroke-linejoin="round"/>
<path d="M1477.58 1823.22V1783.6" stroke="#5A3516" stroke-width="15.62" stroke-linecap="round" stroke-linejoin="round"/>
<path d="M1495.17 1740.43L1545.16 1690.42" stroke="#5A3516" stroke-width="15.62" stroke-linecap="round" stroke-linejoin="round"/>
<path d="M1495.67 1702.53L1471 1680.76" stroke="#5A3516" stroke-width="15.62" stroke-linecap="round" stroke-linejoin="round"/>
</g>
<g opacity="0.75">
<path d="M1.98085 1897.02V1894.78C1.98085 1890.03 0.0920082 1885.47 -3.27018 1882.1C-6.63236 1878.74 -11.1925 1876.85 -15.9473 1876.85H-92.3982V1897.02M76.1427 1897.02V1894.78C76.1427 1890.03 78.0315 1885.47 81.3937 1882.1C84.7559 1878.74 89.316 1876.85 94.0709 1876.85H170.512V1897.02" stroke="#5A3516" stroke-width="15.63" stroke-miterlimit="10"/>
<path d="M19.9379 1854.31H58.1761V1868.46C58.1761 1872.17 56.6998 1875.74 54.0719 1878.37C51.444 1881 47.8798 1882.47 44.1633 1882.47H33.9635C30.2471 1882.47 26.6828 1881 24.0549 1878.37C21.427 1875.74 19.9507 1872.17 19.9507 1868.46V1854.31H19.9379Z" fill="#FBA256"/>
<path d="M32.542 1854.31H45.5687V1860.83C45.5687 1862.56 44.8827 1864.21 43.6615 1865.43C42.4403 1866.66 40.784 1867.34 39.057 1867.34C37.33 1867.34 35.6737 1866.66 34.4525 1865.43C33.2313 1864.21 32.5452 1862.56 32.5452 1860.83V1854.31H32.542Z" fill="#5A3516"/>
<path d="M39.0569 1854.31V1831.2" stroke="#5A3516" stroke-width="15.63" stroke-miterlimit="10"/>
<path d="M150.66 1807.03H188.898V1821.17C188.898 1824.89 187.422 1828.45 184.794 1831.08C182.166 1833.71 178.602 1835.19 174.885 1835.19H164.676C160.959 1835.19 157.395 1833.71 154.767 1831.08C152.139 1828.45 150.663 1824.89 150.663 1821.17V1807.03H150.66Z" fill="#D2C09F"/>
<path d="M163.264 1807.03H176.291V1813.54C176.291 1815.27 175.605 1816.92 174.384 1818.15C173.162 1819.37 171.506 1820.05 169.779 1820.05C168.052 1820.05 166.396 1819.37 165.174 1818.15C163.953 1816.92 163.267 1815.27 163.267 1813.54V1807.03H163.264Z" fill="#5A3516"/>
<path d="M169.779 1807.03V1783.91" stroke="#5A3516" stroke-width="15.63" stroke-miterlimit="10"/>
<path d="M220.215 1686.88H258.453V1701.03C258.453 1702.87 258.091 1704.69 257.386 1706.39C256.682 1708.09 255.65 1709.64 254.349 1710.94C253.048 1712.24 251.503 1713.27 249.803 1713.98C248.103 1714.68 246.28 1715.04 244.44 1715.04H234.231C232.391 1715.04 230.568 1714.68 228.868 1713.98C227.168 1713.27 225.624 1712.24 224.322 1710.94C223.021 1709.64 221.989 1708.09 221.285 1706.39C220.58 1704.69 220.218 1702.87 220.218 1701.03V1686.88H220.215Z" fill="#E38739"/>
<path d="M239.334 1699.93C237.607 1699.93 235.951 1699.24 234.729 1698.02C233.508 1696.8 232.822 1695.14 232.822 1693.42V1686.9H245.849V1693.42C245.849 1694.27 245.68 1695.12 245.353 1695.91C245.025 1696.7 244.545 1697.42 243.94 1698.02C243.335 1698.63 242.617 1699.11 241.827 1699.44C241.036 1699.76 240.189 1699.93 239.334 1699.93Z" fill="#5A3516"/>
<path d="M239.334 1686.88V1663.77" stroke="#5A3516" stroke-width="15.63" stroke-miterlimit="10"/>
<path d="M196.06 1549.84H234.298V1563.98C234.298 1565.82 233.936 1567.65 233.233 1569.35C232.529 1571.05 231.497 1572.59 230.196 1573.9C228.895 1575.2 227.351 1576.23 225.651 1576.94C223.951 1577.64 222.129 1578 220.288 1578H210.079C206.363 1578 202.798 1576.53 200.17 1573.9C197.543 1571.27 196.066 1567.7 196.066 1563.99V1549.84H196.06Z" fill="#FBA256"/>
<path d="M208.664 1549.84H221.691V1556.36C221.69 1557.21 221.521 1558.06 221.193 1558.85C220.865 1559.64 220.384 1560.36 219.778 1560.96C219.172 1561.57 218.453 1562.05 217.661 1562.37C216.87 1562.7 216.022 1562.87 215.166 1562.87C213.439 1562.87 211.783 1562.18 210.562 1560.96C209.34 1559.74 208.654 1558.08 208.654 1556.35V1549.84H208.664Z" fill="#5A3516"/>
<path d="M215.179 1549.84V1526.73" stroke="#5A3516" stroke-width="15.63" stroke-miterlimit="10"/>
<path d="M89.4895 1460.39H127.728V1474.53C127.731 1476.37 127.37 1478.2 126.668 1479.9C125.965 1481.6 124.933 1483.15 123.631 1484.46C122.33 1485.76 120.784 1486.79 119.083 1487.5C117.381 1488.21 115.557 1488.57 113.715 1488.57H103.506C99.7891 1488.57 96.2249 1487.09 93.597 1484.46C90.9691 1481.84 89.4927 1478.27 89.4927 1474.55V1460.39H89.4895Z" fill="#D2C09F"/>
<path d="M102.097 1460.39H115.124V1466.9C115.124 1468.63 114.438 1470.29 113.216 1471.51C111.995 1472.73 110.339 1473.42 108.612 1473.42C106.885 1473.42 105.229 1472.73 104.007 1471.51C102.786 1470.29 102.1 1468.63 102.1 1466.9V1460.39H102.097Z" fill="#5A3516"/>
<path d="M108.609 1460.39V1437.28" stroke="#5A3516" stroke-width="15.63" stroke-miterlimit="10"/>
<path d="M-91.6747 1784.28L39.0505 1831.88" stroke="#5A3516" stroke-width="15.63" stroke-miterlimit="10"/>
<path d="M39.0505 1831.88L169.779 1784.28" stroke="#5A3516" stroke-width="15.63" stroke-miterlimit="10"/>
<path d="M169.779 1784.28L239.334 1663.77" stroke="#5A3516" stroke-width="15.63" stroke-miterlimit="10"/>
<path d="M239.334 1663.77L215.179 1526.73" stroke="#5A3516" stroke-width="15.63" stroke-miterlimit="10"/>
<path d="M215.179 1526.73L108.609 1437.28" stroke="#5A3516" stroke-width="15.63" stroke-miterlimit="10"/>
<path d="M108.609 1437.28H-30.5044" stroke="#5A3516" stroke-width="15.63" stroke-miterlimit="10"/>
<path d="M31.4887 1615.34L215.179 1526.73L46.6156 1641.55" stroke="#162A5A" stroke-width="15.63" stroke-miterlimit="10"/>
<path d="M24.8361 1623.27L108.609 1437.28L53.2682 1633.62" stroke="#162A5A" stroke-width="15.63" stroke-miterlimit="10"/>
<path d="M24.836 1633.62L-30.5044 1437.28L53.2682 1623.27" stroke="#162A5A" stroke-width="15.63" stroke-miterlimit="10"/>
<path d="M31.4887 1641.55L-137.075 1526.73L46.6156 1615.34" stroke="#162A5A" stroke-width="15.63" stroke-miterlimit="10"/>
<path d="M41.6789 1643.35L-161.23 1663.77L36.4253 1613.54" stroke="#162A5A" stroke-width="15.63" stroke-miterlimit="10"/>
<path d="M50.6398 1638.17L-91.6747 1784.28L27.4644 1618.72" stroke="#162A5A" stroke-width="15.63" stroke-miterlimit="10"/>
<path d="M54.1807 1628.44L39.0506 1831.88L23.9237 1628.44" stroke="#162A5A" stroke-width="15.63" stroke-miterlimit="10"/>
<path d="M50.6398 1618.72L169.776 1784.28L27.4644 1638.17" stroke="#162A5A" stroke-width="15.63" stroke-miterlimit="10"/>
<path d="M41.6789 1613.54L239.334 1663.77L36.4253 1643.35" stroke="#162A5A" stroke-width="15.63" stroke-miterlimit="10"/>
<path d="M39.0506 1831.88C151.37 1831.88 242.423 1740.8 242.423 1628.44C242.423 1516.09 151.37 1425.01 39.0506 1425.01C-73.2691 1425.01 -164.322 1516.09 -164.322 1628.44C-164.322 1740.8 -73.2691 1831.88 39.0506 1831.88Z" stroke="#E38739" stroke-width="15.63" stroke-miterlimit="10"/>
<path d="M39.0506 1674.89C64.6954 1674.89 85.4846 1654.1 85.4846 1628.44C85.4846 1602.79 64.6954 1581.99 39.0506 1581.99C13.4058 1581.99 -7.38342 1602.79 -7.38342 1628.44C-7.38342 1654.1 13.4058 1674.89 39.0506 1674.89Z" fill="#5A3516"/>
<path d="M96.8241 1902.47L39.0537 1672.45L-18.7134 1902.47L-39.5069 1897.25L28.6586 1625.83H49.4521L117.618 1897.25L96.8241 1902.47Z" fill="#E38739"/>
<path d="M-23.0642 1875.79L37.3314 1635.31" stroke="#EC9F5E" stroke-width="22.32" stroke-linecap="round" stroke-linejoin="bevel" stroke-dasharray="0.44 43.79"/>
<path d="M39.0377 1628.51L39.054 1628.45L39.0734 1628.51" stroke="#ECC35E" stroke-width="22.32" stroke-linecap="round" stroke-linejoin="bevel"/>
<path d="M42.4889 1642.11L102.884 1882.59" stroke="#EC9F5E" stroke-width="22.32" stroke-linecap="round" stroke-linejoin="bevel" stroke-dasharray="0.44 43.79"/>
<path d="M104.591 1889.39L104.607 1889.46" stroke="#EC9F5E" stroke-width="22.32" stroke-linecap="round" stroke-linejoin="bevel"/>
<path d="M55.3422 1644.74C64.3403 1635.74 64.3403 1621.15 55.3422 1612.15C46.3442 1603.15 31.7555 1603.15 22.7575 1612.15C13.7594 1621.15 13.7594 1635.74 22.7575 1644.74C31.7555 1653.74 46.3442 1653.74 55.3422 1644.74Z" fill="#FBA256"/>
<path d="M39.0506 1643.57C47.405 1643.57 54.1775 1636.8 54.1775 1628.44C54.1775 1620.09 47.405 1613.31 39.0506 1613.31C30.6962 1613.31 23.9237 1620.09 23.9237 1628.44C23.9237 1636.8 30.6962 1643.57 39.0506 1643.57Z" fill="#5A3516"/>
<path d="M173.057 1897.02H-94.9562V1920.98H173.057V1897.02Z" fill="#FBA256"/>
<path d="M90.1074 1909H-11.3661V1920.98H90.1074V1909Z" fill="#E38739"/>
<path d="M599.178 1569.61H638.018V1587.01C638.018 1591.34 636.296 1595.5 633.23 1598.57C630.165 1601.64 626.007 1603.36 621.672 1603.36H615.528C611.193 1603.36 607.035 1601.64 603.969 1598.57C600.904 1595.5 599.181 1591.34 599.181 1587.01V1569.61H599.178Z" fill="#E38739"/>
<path d="M713.893 1621.9H752.733V1639.3C752.733 1643.64 751.01 1647.8 747.944 1650.87C744.878 1653.93 740.719 1655.66 736.383 1655.66H730.24C725.903 1655.66 721.745 1653.93 718.678 1650.87C715.612 1647.8 713.89 1643.64 713.89 1639.3V1621.9H713.893Z" fill="#D2C09F"/>
<path d="M741.637 1746H780.477V1763.4C780.477 1767.74 778.754 1771.9 775.688 1774.97C772.622 1778.03 768.463 1779.76 764.127 1779.76H757.983C753.647 1779.76 749.488 1778.03 746.422 1774.97C743.356 1771.9 741.634 1767.74 741.634 1763.4V1746H741.637Z" fill="#FBA256"/>
<path d="M661.751 1844.91H700.591V1862.29C700.591 1866.63 698.868 1870.79 695.802 1873.86C692.736 1876.93 688.577 1878.65 684.241 1878.65H678.097C673.761 1878.65 669.602 1876.93 666.536 1873.86C663.47 1870.79 661.747 1866.63 661.747 1862.29V1844.91H661.751Z" fill="#E38739"/>
<path d="M535.754 1844.91H574.594V1862.29C574.594 1866.63 572.872 1870.79 569.805 1873.86C566.739 1876.93 562.58 1878.65 558.244 1878.65H552.101C549.954 1878.65 547.827 1878.23 545.844 1877.4C543.86 1876.58 542.058 1875.38 540.54 1873.86C539.021 1872.34 537.817 1870.54 536.995 1868.55C536.174 1866.57 535.751 1864.44 535.751 1862.29V1844.91H535.754Z" fill="#FBA256"/>
<path d="M456.732 1746H495.572V1763.4C495.572 1767.74 493.85 1771.9 490.785 1774.97C487.719 1778.03 483.561 1779.75 479.226 1779.75H473.082C470.935 1779.75 468.809 1779.33 466.825 1778.51C464.842 1777.69 463.039 1776.48 461.521 1774.96C460.003 1773.45 458.799 1771.64 457.977 1769.66C457.155 1767.67 456.732 1765.55 456.732 1763.4V1746V1746Z" fill="#D2C09F"/>
<path d="M483.128 1621.9H521.968V1639.3C521.968 1643.64 520.246 1647.8 517.181 1650.86C514.115 1653.93 509.957 1655.65 505.622 1655.65H499.478C495.142 1655.65 490.983 1653.93 487.917 1650.86C484.851 1647.8 483.128 1643.64 483.128 1639.3V1621.9Z" fill="#FBA256"/>
<path d="M684.6 1901.31H552.61L546.572 1920.98H690.637L684.6 1901.31Z" fill="#5A3516"/>
<path d="M618.604 1583.94L504.367 1638.97L476.152 1762.62L555.209 1861.78H682.003L761.057 1762.62L732.842 1638.97L618.604 1583.94Z" stroke="#5A3516" stroke-width="15.75" stroke-miterlimit="10"/>
<path d="M618.604 1580.71V1728.85" stroke="#5A3516" stroke-width="15.75" stroke-miterlimit="10"/>
<path d="M501.598 1638.04L618.608 1728.85" stroke="#5A3516" stroke-width="15.75" stroke-miterlimit="10"/>
<path d="M474.526 1763.11L618.604 1728.85" stroke="#5A3516" stroke-width="15.75" stroke-miterlimit="10"/>
<path d="M554.812 1862.54L618.605 1728.85" stroke="#5A3516" stroke-width="15.75" stroke-miterlimit="10"/>
<path d="M681.686 1862.87L618.608 1728.85" stroke="#5A3516" stroke-width="15.75" stroke-miterlimit="10"/>
<path d="M762.648 1763.26L618.611 1728.85" stroke="#5A3516" stroke-width="15.75" stroke-miterlimit="10"/>
<path d="M735.096 1637.38L618.604 1728.85" stroke="#5A3516" stroke-width="15.75" stroke-miterlimit="10"/>
<path d="M618.604 1876.98C700.394 1876.98 766.698 1810.66 766.698 1728.85C766.698 1647.03 700.394 1580.71 618.604 1580.71C536.815 1580.71 470.511 1647.03 470.511 1728.85C470.511 1810.66 536.815 1876.98 618.604 1876.98Z" stroke="#EC9F5E" stroke-width="15.75" stroke-miterlimit="10"/>
<path d="M616.341 1771.86L589.795 1796.4C589.305 1796.85 588.691 1797.15 588.032 1797.25C587.372 1797.35 586.699 1797.24 586.098 1796.96C585.497 1796.67 584.997 1796.2 584.663 1795.63C584.329 1795.05 584.176 1794.39 584.224 1793.72L586.852 1757.65C586.913 1756.82 586.658 1756 586.137 1755.34C585.616 1754.69 584.867 1754.26 584.042 1754.13L548.307 1748.67C547.648 1748.57 547.035 1748.27 546.547 1747.82C546.059 1747.36 545.719 1746.77 545.57 1746.12C545.422 1745.47 545.472 1744.79 545.715 1744.17C545.957 1743.55 546.381 1743.02 546.93 1742.64L576.758 1722.21C577.448 1721.74 577.934 1721.02 578.12 1720.21C578.306 1719.39 578.177 1718.54 577.76 1717.81L559.749 1686.46C559.418 1685.88 559.268 1685.22 559.318 1684.56C559.369 1683.89 559.617 1683.26 560.03 1682.74C560.444 1682.22 561.005 1681.83 561.639 1681.64C562.274 1681.44 562.954 1681.43 563.591 1681.63L598.166 1692.22C598.966 1692.46 599.828 1692.39 600.581 1692.03C601.333 1691.67 601.922 1691.03 602.229 1690.26L615.502 1656.63C615.747 1656.01 616.173 1655.48 616.724 1655.1C617.275 1654.73 617.927 1654.53 618.593 1654.53C619.26 1654.53 619.911 1654.73 620.463 1655.1C621.014 1655.48 621.44 1656.01 621.684 1656.63L634.961 1690.26C635.267 1691.03 635.856 1691.67 636.609 1692.03C637.362 1692.39 638.224 1692.46 639.023 1692.22L673.599 1681.63C674.236 1681.43 674.916 1681.44 675.55 1681.64C676.185 1681.83 676.746 1682.22 677.159 1682.74C677.573 1683.26 677.821 1683.89 677.871 1684.56C677.922 1685.22 677.772 1685.88 677.441 1686.46L659.43 1717.81C659.013 1718.54 658.885 1719.39 659.072 1720.21C659.258 1721.02 659.745 1721.74 660.435 1722.21L690.26 1742.64C690.811 1743.02 691.236 1743.55 691.479 1744.17C691.723 1744.79 691.774 1745.47 691.626 1746.12C691.478 1746.77 691.137 1747.36 690.648 1747.82C690.16 1748.27 689.546 1748.57 688.886 1748.67L653.152 1754.13C652.325 1754.26 651.577 1754.69 651.055 1755.34C650.534 1756 650.277 1756.82 650.337 1757.65L652.969 1793.72C653.017 1794.39 652.864 1795.05 652.53 1795.63C652.196 1796.2 651.696 1796.67 651.095 1796.96C650.494 1797.24 649.821 1797.35 649.161 1797.25C648.502 1797.15 647.888 1796.85 647.399 1796.4L620.849 1771.86C620.235 1771.29 619.43 1770.98 618.595 1770.98C617.759 1770.98 616.955 1771.29 616.341 1771.86Z" fill="#E38739"/>
<path d="M618.604 1748.73C629.584 1748.73 638.486 1739.83 638.486 1728.85C638.486 1717.86 629.584 1708.96 618.604 1708.96C607.624 1708.96 598.723 1717.86 598.723 1728.85C598.723 1739.83 607.624 1748.73 618.604 1748.73Z" fill="#5A3516"/>
<path d="M618.604 1757.14C634.224 1757.14 646.886 1744.47 646.886 1728.85C646.886 1713.22 634.224 1700.55 618.604 1700.55C602.985 1700.55 590.323 1713.22 590.323 1728.85C590.323 1744.47 602.985 1757.14 618.604 1757.14Z" stroke="#EDE5D6" stroke-width="15.75" stroke-linecap="round" stroke-linejoin="round" stroke-dasharray="0.46 34.24"/>
<path d="M618.605 1718.28C615.872 1718.28 613.235 1719.29 611.202 1721.11C609.168 1722.94 607.88 1725.45 607.585 1728.17L586.654 1920.98H650.565L629.637 1728.17C629.341 1725.45 628.05 1722.93 626.014 1721.11C623.978 1719.28 621.339 1718.27 618.605 1718.28Z" fill="#D2C09F"/>
<path d="M618.604 1920.98V1761.04" stroke="#E38739" stroke-width="15.75" stroke-miterlimit="10"/>
<path d="M630.677 1920.98V1841.01" stroke="#E38739" stroke-width="15.75" stroke-miterlimit="10"/>
<path d="M606.532 1920.98V1841.01" stroke="#E38739" stroke-width="15.75" stroke-miterlimit="10"/>
<path d="M618.605 1733.42C621.129 1733.42 623.176 1731.37 623.176 1728.85C623.176 1726.32 621.129 1724.27 618.605 1724.27C616.08 1724.27 614.033 1726.32 614.033 1728.85C614.033 1731.37 616.08 1733.42 618.605 1733.42Z" fill="#5A3516"/>
<path d="M918.04 1800.9C922.375 1793.31 924.652 1784.71 924.645 1775.97C924.638 1767.22 922.348 1758.63 918.002 1751.04C913.077 1742.34 910.513 1732.49 910.562 1722.49C910.557 1722.42 910.557 1722.36 910.562 1722.29C910.607 1717.5 909.703 1712.75 907.901 1708.31C906.1 1703.87 903.437 1699.83 900.067 1696.43C896.697 1693.03 892.686 1690.33 888.266 1688.48C883.846 1686.64 879.105 1685.69 874.317 1685.69C869.528 1685.69 864.787 1686.64 860.367 1688.48C855.947 1690.33 851.936 1693.03 848.566 1696.43C845.196 1699.83 842.533 1703.87 840.732 1708.31C838.93 1712.75 838.026 1717.5 838.071 1722.29C838.071 1722.35 838.071 1722.42 838.071 1722.49C838.117 1732.5 835.535 1742.35 830.583 1751.04C826.249 1758.64 823.972 1767.23 823.978 1775.98C823.984 1784.72 826.273 1793.32 830.618 1800.9C835.545 1809.61 838.111 1819.45 838.062 1829.46C838.066 1829.53 838.066 1829.6 838.062 1829.66C838.151 1839.22 842.01 1848.36 848.797 1855.08C855.585 1861.81 864.753 1865.58 874.307 1865.58C883.861 1865.58 893.029 1861.81 899.817 1855.08C906.604 1848.36 910.462 1839.22 910.552 1829.66C910.552 1829.59 910.552 1829.53 910.552 1829.46C910.506 1819.45 913.089 1809.6 918.04 1800.9Z" fill="#765132"/>
<path d="M892.211 1748.86C890.083 1751.57 887.366 1753.76 884.266 1755.27C881.166 1756.78 877.765 1757.56 874.318 1757.56M903.368 1776.44C903.367 1784.15 900.306 1791.54 894.859 1796.99C889.411 1802.44 882.022 1805.5 874.318 1805.5M851.565 1818.33C851.565 1821.32 852.153 1824.28 853.296 1827.04C854.439 1829.81 856.115 1832.31 858.227 1834.43C860.34 1836.54 862.848 1838.22 865.608 1839.36C868.369 1840.51 871.327 1841.09 874.315 1841.09" stroke="#5A3516" stroke-width="15.62" stroke-linecap="round"/>
<path d="M874.318 1901.31V1920.98" stroke="#5A3516" stroke-width="15.62"/>
<path d="M874.318 1734V1901.31" stroke="#5A3516" stroke-width="15.62" stroke-linecap="round"/>
<path d="M301.398 1669.62C306.734 1668.43 311.753 1666.11 316.112 1662.81C320.472 1659.51 324.07 1655.31 326.663 1650.49C330.038 1644.21 334.907 1638.85 340.842 1634.89C346.776 1630.93 353.593 1628.49 360.692 1627.79C367.79 1627.09 374.952 1628.15 381.544 1630.88C388.137 1633.6 393.958 1637.9 398.495 1643.41C401.765 1647.38 405.806 1650.64 410.373 1653C414.941 1655.36 419.939 1656.77 425.067 1657.14C439.937 1658.32 451.744 1670.62 451.744 1685.8C451.762 1690.61 450.569 1695.35 448.274 1699.58C445.979 1703.8 442.656 1707.39 438.613 1709.99C434.57 1712.59 429.936 1714.14 425.14 1714.48C420.344 1714.81 415.539 1713.94 411.169 1711.93C406.476 1709.83 401.408 1708.7 396.267 1708.61C391.127 1708.51 386.02 1709.45 381.252 1711.38C370.561 1715.7 358.594 1715.6 347.976 1711.1C342.948 1709.01 337.528 1708.01 332.084 1708.2C326.64 1708.38 321.298 1709.73 316.422 1712.16C313.262 1713.69 309.802 1714.51 306.289 1714.55C300.696 1714.53 295.303 1712.46 291.143 1708.72C286.983 1704.98 284.348 1699.84 283.742 1694.27C283.136 1688.71 284.601 1683.12 287.858 1678.57C291.115 1674.02 295.935 1670.83 301.394 1669.62H301.398Z" fill="#765132"/>
<path d="M370.069 1897.02L370.165 1920.98" stroke="#5A3516" stroke-width="15.62" stroke-linejoin="round"/>
<path d="M369.166 1673.73L370.069 1897.02" stroke="#5A3516" stroke-width="15.62" stroke-linecap="round" stroke-linejoin="round"/>
<path d="M299.838 1789.87C301.537 1795.21 304.524 1800.05 308.536 1803.96C312.548 1807.87 317.461 1810.73 322.841 1812.29C328.221 1813.85 333.903 1814.06 339.383 1812.9C344.863 1811.74 349.974 1809.25 354.263 1805.65C357.378 1803.07 360.98 1801.16 364.852 1800.01C368.724 1798.86 372.788 1798.5 376.801 1798.96C379.995 1799.31 383.226 1799 386.291 1798.03C391.871 1796.26 396.545 1792.39 399.324 1787.24C402.102 1782.08 402.767 1776.05 401.177 1770.41C399.587 1764.78 395.867 1759.98 390.805 1757.04C385.743 1754.1 379.736 1753.25 374.055 1754.66C370.115 1755.57 366.034 1755.68 362.049 1755C358.065 1754.31 354.258 1752.83 350.85 1750.66C342.559 1745.49 332.09 1743.61 321.944 1746.87C317.67 1748.24 313.708 1750.44 310.283 1753.35C306.859 1756.25 304.04 1759.8 301.987 1763.79C299.934 1767.78 298.688 1772.14 298.319 1776.62C297.951 1781.09 298.467 1785.6 299.838 1789.87Z" fill="#765132"/>
<path d="M369.166 1840.82L320.837 1792.47" stroke="#5A3516" stroke-width="15.62" stroke-linecap="round" stroke-linejoin="round"/>
<path d="M351.577 1823.22V1783.6" stroke="#5A3516" stroke-width="15.62" stroke-linecap="round" stroke-linejoin="round"/>
<path d="M369.166 1740.43L419.16 1690.42" stroke="#5A3516" stroke-width="15.62" stroke-linecap="round" stroke-linejoin="round"/>
<path d="M369.669 1702.53L345.001 1680.76" stroke="#5A3516" stroke-width="15.62" stroke-linecap="round" stroke-linejoin="round"/>
</g>
</g>
<defs>
<clipPath id="clip0_587_811">
<rect width="3840" height="1920" fill="white"/>
</clipPath>
</defs>
</svg>
