<svg width="130" height="162" viewBox="0 0 130 162" fill="none" xmlns="http://www.w3.org/2000/svg" xmlns:xlink="http://www.w3.org/1999/xlink">
<path d="M77.042,160.697C78.074,161.585 79.402,162.049 80.759,161.996C82.117,161.943 83.405,161.378 84.366,160.413C85.327,159.447 85.89,158.153 85.942,156.789C85.994,155.425 85.533,154.092 84.649,153.055L19.565,81L84.703,8.945C85.587,7.908 86.048,6.575 85.996,5.211C85.944,3.847 85.381,2.553 84.42,1.587C83.459,0.622 82.171,0.057 80.813,0.004C79.456,-0.049 78.128,0.415 77.096,1.303L1.569,77.179C0.564,78.195 0,79.568 0,81C0,82.432 0.564,83.805 1.569,84.821L77.042,160.697Z" fill="#F36F21"/>
<path d="M121.042,160.697C122.074,161.585 123.402,162.049 124.759,161.996C126.117,161.943 127.405,161.378 128.366,160.413C129.327,159.447 129.89,158.153 129.942,156.789C129.994,155.425 129.533,154.092 128.649,153.055L63.565,81L128.703,8.945C129.587,7.908 130.048,6.575 129.996,5.211C129.944,3.847 129.381,2.553 128.42,1.587C127.459,0.622 126.171,0.057 124.813,0.004C123.456,-0.049 122.128,0.415 121.096,1.303L45.569,77.179C44.564,78.195 44,79.568 44,81C44,82.432 44.564,83.805 45.569,84.821L121.042,160.697Z" fill="#F36F21"/>
</svg>
