<svg width="128" height="96" viewBox="0 0 128 96" fill="none" xmlns="http://www.w3.org/2000/svg" xmlns:xlink="http://www.w3.org/1999/xlink">
<path d="M112,0L42.667,0L0,48L42.667,96L112,96C120.836,96 128,88.836 128,80L128,16C128,7.164 120.836,0 112,0ZM117.333,80C117.333,82.941 114.941,85.333 112,85.333L47.457,85.333L14.272,48L47.457,10.667L112,10.667C114.941,10.667 117.333,13.059 117.333,16L117.333,80ZM99.771,60.229C100.28,60.721 100.686,61.31 100.966,61.961C101.245,62.611 101.393,63.311 101.399,64.019C101.405,64.727 101.27,65.43 101.002,66.085C100.734,66.741 100.338,67.336 99.837,67.837C99.336,68.338 98.741,68.734 98.085,69.002C97.43,69.27 96.727,69.405 96.019,69.399C95.311,69.393 94.611,69.245 93.961,68.966C93.31,68.686 92.721,68.28 92.229,67.771L80,55.543L67.771,67.771C66.729,68.812 65.364,69.333 64,69.333C62.636,69.333 61.271,68.812 60.229,67.771C59.229,66.771 58.668,65.414 58.668,64C58.668,62.586 59.229,61.229 60.229,60.229L72.457,48L60.229,35.771C59.72,35.279 59.314,34.69 59.034,34.039C58.755,33.389 58.607,32.689 58.601,31.981C58.595,31.273 58.73,30.57 58.998,29.915C59.266,29.259 59.662,28.664 60.163,28.163C60.664,27.662 61.259,27.266 61.915,26.998C62.57,26.73 63.273,26.595 63.981,26.601C64.689,26.607 65.389,26.755 66.039,27.034C66.69,27.314 67.279,27.72 67.771,28.229L80,40.457L92.229,28.229C92.721,27.72 93.31,27.314 93.961,27.034C94.611,26.755 95.311,26.607 96.019,26.601C96.727,26.595 97.43,26.73 98.085,26.998C98.741,27.266 99.336,27.662 99.837,28.163C100.338,28.664 100.734,29.259 101.002,29.915C101.27,30.57 101.405,31.273 101.399,31.981C101.393,32.689 101.245,33.389 100.966,34.039C100.686,34.69 100.28,35.279 99.771,35.771L87.543,48L99.771,60.229Z" fill="#000000"/>
</svg>
