<svg width="244" height="246" viewBox="0 0 244 246" fill="none" xmlns="http://www.w3.org/2000/svg" xmlns:xlink="http://www.w3.org/1999/xlink">
<rect  x="88.303" y="63.689" width="66.002" height="118.611" fill="#FF5F00"/>
<path d="M92.494,123C92.484,111.578 95.072,100.303 100.064,90.029C105.056,79.755 112.319,70.751 121.305,63.7C110.177,54.955 96.814,49.517 82.743,48.007C68.671,46.497 54.459,48.977 41.73,55.162C29.001,61.347 18.268,70.989 10.759,82.985C3.25,94.981 -0.732,108.848 -0.733,123C-0.731,137.15 3.252,151.015 10.761,163.009C18.269,175.003 29,184.644 41.727,190.829C54.455,197.014 68.665,199.494 82.735,197.986C96.805,196.477 110.167,191.042 121.295,182.3C112.312,175.246 105.051,166.242 100.061,155.969C95.072,145.695 92.484,134.421 92.494,123Z" fill="#EB001B"/>
<path d="M243.343,123C243.341,137.152 239.359,151.019 231.85,163.015C224.341,175.011 213.609,184.652 200.88,190.838C188.151,197.023 173.938,199.502 159.866,197.993C145.795,196.483 132.432,191.045 121.305,182.3C138.848,168.49 150.116,147.062 150.116,123C150.116,98.938 138.848,77.51 121.305,63.7C132.432,54.955 145.795,49.517 159.866,48.007C173.938,46.497 188.151,48.977 200.88,55.162C213.609,61.347 224.341,70.989 231.85,82.985C239.359,94.981 243.341,108.848 243.343,123Z" fill="#F79E1B"/>
</svg>
