<svg width="298" height="298" viewBox="0 0 298 298" fill="none" xmlns="http://www.w3.org/2000/svg" xmlns:xlink="http://www.w3.org/1999/xlink">
<path d="M109.173,190.906L124.073,107.094L147.354,107.094L132.92,190.906L109.173,190.906Z" fill="#3C58BF"/>
<path d="M109.173,190.906L128.263,107.094L147.354,107.094L132.92,190.906L109.173,190.906Z" fill="#293688"/>
<path d="M217.198,108.025C212.541,106.162 205.091,104.3 195.779,104.3C172.498,104.3 155.735,115.94 155.735,132.703C155.735,145.275 167.376,151.794 176.688,155.984C186.001,160.175 188.795,162.969 188.795,166.694C188.795,172.281 181.345,175.075 174.826,175.075C165.513,175.075 160.391,173.678 152.476,170.419L149.216,169.022L145.957,188.112C151.545,190.44 161.788,192.769 172.498,192.769C197.176,192.769 213.473,181.128 213.473,163.434C213.473,153.656 207.42,146.206 193.451,140.153C185.07,135.962 179.948,133.634 179.948,129.444C179.948,125.719 184.138,121.994 193.451,121.994C201.366,121.994 206.954,123.39 211.145,125.253L213.473,126.184L217.198,108.025Z" fill="#3C58BF"/>
<path d="M217.198,108.025C212.541,106.162 205.091,104.3 195.779,104.3C172.498,104.3 159.926,115.94 159.926,132.703C159.926,145.275 167.376,151.794 176.688,155.984C186.001,160.175 188.795,162.969 188.795,166.694C188.795,172.281 181.345,175.075 174.826,175.075C165.513,175.075 160.391,173.678 152.476,170.419L149.216,169.022L145.957,188.112C151.545,190.44 161.788,192.769 172.498,192.769C197.176,192.769 213.473,181.128 213.473,163.434C213.473,153.656 207.42,146.206 193.451,140.153C185.07,135.962 179.948,133.634 179.948,129.444C179.948,125.719 184.138,121.994 193.451,121.994C201.366,121.994 206.954,123.39 211.145,125.253L213.473,126.184L217.198,108.025Z" fill="#293688"/>
<path d="M257.241,107.094C251.653,107.094 247.463,107.559 245.135,113.147L210.213,190.906L235.357,190.906L240.013,176.938L269.813,176.938L272.607,190.906L294.957,190.906L275.4,107.094L257.241,107.094ZM246.532,162.969C247.928,158.778 255.844,138.291 255.844,138.291C255.844,138.291 257.707,133.169 259.103,129.909L260.5,137.825C260.5,137.825 265.157,158.778 266.088,163.434L246.532,163.434L246.532,162.969Z" fill="#3C58BF"/>
<path d="M262.828,107.094C257.241,107.094 253.05,107.559 250.722,113.147L210.213,190.906L235.357,190.906L240.013,176.938L269.813,176.938L272.607,190.906L294.957,190.906L275.4,107.094L262.828,107.094ZM246.532,162.969C248.394,158.313 255.844,138.291 255.844,138.291C255.844,138.291 257.707,133.169 259.103,129.909L260.5,137.825C260.5,137.825 265.157,158.778 266.088,163.434L246.532,163.434L246.532,162.969Z" fill="#293688"/>
<path d="M66.335,165.763L64.007,153.656C59.816,139.688 46.313,124.322 31.413,116.872L52.366,191.372L77.51,191.372L115.225,107.56L90.082,107.56L66.335,165.763Z" fill="#3C58BF"/>
<path d="M66.335,165.763L64.007,153.656C59.816,139.688 46.313,124.322 31.413,116.872L52.366,191.372L77.51,191.372L115.225,107.56L94.738,107.56L66.335,165.763Z" fill="#293688"/>
<path d="M1.613,107.094L5.804,108.025C35.604,115.009 56.091,132.703 64.007,153.656L55.626,114.078C54.229,108.491 50.038,107.094 44.916,107.094L1.613,107.094Z" fill="#FFBC00"/>
<path d="M1.613,107.094C31.413,114.078 56.091,132.238 64.007,153.191L56.091,120.131C54.694,114.544 50.038,111.284 44.916,111.284L1.613,107.094Z" fill="#F7981D"/>
<path d="M1.613,107.094C31.413,114.078 56.091,132.238 64.007,153.191L58.419,135.031C57.023,129.444 55.16,123.856 48.641,121.528L1.613,107.094Z" fill="#ED7C00"/>
<path d="M89.616,162.969L73.785,147.137L66.335,164.831L64.473,153.191C60.282,139.222 46.779,123.856 31.879,116.406L52.832,190.906L77.976,190.906L89.616,162.969ZM132.92,190.906L112.898,170.419L109.173,190.906L132.92,190.906ZM186.467,162.037C188.329,163.9 189.26,165.297 188.795,167.159C188.795,172.747 181.345,175.541 174.826,175.541C165.513,175.541 160.392,174.144 152.476,170.884L149.217,169.487L145.957,188.578C151.545,190.906 161.788,193.234 172.498,193.234C187.398,193.234 199.504,189.044 206.488,181.594L186.467,162.037ZM213.473,190.906L235.357,190.906L240.013,176.937L269.813,176.937L272.607,190.906L294.957,190.906L287.041,156.916L259.103,129.909L260.501,137.359C260.501,137.359 265.157,158.312 266.089,162.969L246.533,162.969C248.395,158.312 255.845,138.291 255.845,138.291C255.845,138.291 257.707,133.169 259.103,129.909Z" fill="#051244"/>
</svg>
